G75*
%MOIN*%
%OFA0B0*%
%FSLAX25Y25*%
%IPPOS*%
%LPD*%
%AMOC8*
5,1,8,0,0,1.08239X$1,22.5*
%
%ADD10C,0.00100*%
%ADD11C,0.00000*%
%ADD12C,0.12998*%
%ADD13R,0.03156X0.05912*%
%ADD14R,0.03943X0.03156*%
%ADD15R,0.03156X0.03943*%
%ADD16R,0.07487X0.04337*%
%ADD17R,0.01975X0.05912*%
%ADD18C,0.03746*%
%ADD19R,0.07874X0.06693*%
%ADD20R,0.10630X0.06693*%
%ADD21R,0.08400X0.07400*%
%ADD22C,0.07800*%
%ADD23R,0.01975X0.06306*%
%ADD24R,0.07800X0.07800*%
%ADD25R,0.03550X0.03943*%
%ADD26R,0.10243X0.12998*%
%ADD27C,0.03550*%
D10*
X0033000Y0015846D02*
X0148000Y0015846D01*
X0148483Y0015852D01*
X0148966Y0015869D01*
X0149449Y0015899D01*
X0149930Y0015939D01*
X0150411Y0015992D01*
X0150890Y0016056D01*
X0151367Y0016131D01*
X0151843Y0016219D01*
X0152316Y0016317D01*
X0152786Y0016427D01*
X0153254Y0016548D01*
X0153719Y0016681D01*
X0154180Y0016825D01*
X0154638Y0016980D01*
X0155092Y0017146D01*
X0155542Y0017323D01*
X0155987Y0017510D01*
X0156428Y0017709D01*
X0156864Y0017917D01*
X0157294Y0018137D01*
X0157720Y0018367D01*
X0158139Y0018607D01*
X0158553Y0018857D01*
X0158960Y0019117D01*
X0159361Y0019386D01*
X0159756Y0019666D01*
X0160143Y0019954D01*
X0160524Y0020253D01*
X0160897Y0020560D01*
X0161262Y0020876D01*
X0161620Y0021201D01*
X0161970Y0021534D01*
X0162312Y0021876D01*
X0162645Y0022226D01*
X0162970Y0022584D01*
X0163286Y0022949D01*
X0163593Y0023322D01*
X0163892Y0023703D01*
X0164180Y0024090D01*
X0164460Y0024485D01*
X0164729Y0024886D01*
X0164989Y0025293D01*
X0165239Y0025707D01*
X0165479Y0026126D01*
X0165709Y0026552D01*
X0165929Y0026982D01*
X0166137Y0027418D01*
X0166336Y0027859D01*
X0166523Y0028304D01*
X0166700Y0028754D01*
X0166866Y0029208D01*
X0167021Y0029666D01*
X0167165Y0030127D01*
X0167298Y0030592D01*
X0167419Y0031060D01*
X0167529Y0031530D01*
X0167627Y0032003D01*
X0167715Y0032479D01*
X0167790Y0032956D01*
X0167854Y0033435D01*
X0167907Y0033916D01*
X0167947Y0034397D01*
X0167977Y0034880D01*
X0167994Y0035363D01*
X0168000Y0035846D01*
X0168000Y0155846D01*
X0167994Y0156329D01*
X0167977Y0156812D01*
X0167947Y0157295D01*
X0167907Y0157776D01*
X0167854Y0158257D01*
X0167790Y0158736D01*
X0167715Y0159213D01*
X0167627Y0159689D01*
X0167529Y0160162D01*
X0167419Y0160632D01*
X0167298Y0161100D01*
X0167165Y0161565D01*
X0167021Y0162026D01*
X0166866Y0162484D01*
X0166700Y0162938D01*
X0166523Y0163388D01*
X0166336Y0163833D01*
X0166137Y0164274D01*
X0165929Y0164710D01*
X0165709Y0165140D01*
X0165479Y0165566D01*
X0165239Y0165985D01*
X0164989Y0166399D01*
X0164729Y0166806D01*
X0164460Y0167207D01*
X0164180Y0167602D01*
X0163892Y0167989D01*
X0163593Y0168370D01*
X0163286Y0168743D01*
X0162970Y0169108D01*
X0162645Y0169466D01*
X0162312Y0169816D01*
X0161970Y0170158D01*
X0161620Y0170491D01*
X0161262Y0170816D01*
X0160897Y0171132D01*
X0160524Y0171439D01*
X0160143Y0171738D01*
X0159756Y0172026D01*
X0159361Y0172306D01*
X0158960Y0172575D01*
X0158553Y0172835D01*
X0158139Y0173085D01*
X0157720Y0173325D01*
X0157294Y0173555D01*
X0156864Y0173775D01*
X0156428Y0173983D01*
X0155987Y0174182D01*
X0155542Y0174369D01*
X0155092Y0174546D01*
X0154638Y0174712D01*
X0154180Y0174867D01*
X0153719Y0175011D01*
X0153254Y0175144D01*
X0152786Y0175265D01*
X0152316Y0175375D01*
X0151843Y0175473D01*
X0151367Y0175561D01*
X0150890Y0175636D01*
X0150411Y0175700D01*
X0149930Y0175753D01*
X0149449Y0175793D01*
X0148966Y0175823D01*
X0148483Y0175840D01*
X0148000Y0175846D01*
X0033000Y0175846D01*
X0032517Y0175840D01*
X0032034Y0175823D01*
X0031551Y0175793D01*
X0031070Y0175753D01*
X0030589Y0175700D01*
X0030110Y0175636D01*
X0029633Y0175561D01*
X0029157Y0175473D01*
X0028684Y0175375D01*
X0028214Y0175265D01*
X0027746Y0175144D01*
X0027281Y0175011D01*
X0026820Y0174867D01*
X0026362Y0174712D01*
X0025908Y0174546D01*
X0025458Y0174369D01*
X0025013Y0174182D01*
X0024572Y0173983D01*
X0024136Y0173775D01*
X0023706Y0173555D01*
X0023280Y0173325D01*
X0022861Y0173085D01*
X0022447Y0172835D01*
X0022040Y0172575D01*
X0021639Y0172306D01*
X0021244Y0172026D01*
X0020857Y0171738D01*
X0020476Y0171439D01*
X0020103Y0171132D01*
X0019738Y0170816D01*
X0019380Y0170491D01*
X0019030Y0170158D01*
X0018688Y0169816D01*
X0018355Y0169466D01*
X0018030Y0169108D01*
X0017714Y0168743D01*
X0017407Y0168370D01*
X0017108Y0167989D01*
X0016820Y0167602D01*
X0016540Y0167207D01*
X0016271Y0166806D01*
X0016011Y0166399D01*
X0015761Y0165985D01*
X0015521Y0165566D01*
X0015291Y0165140D01*
X0015071Y0164710D01*
X0014863Y0164274D01*
X0014664Y0163833D01*
X0014477Y0163388D01*
X0014300Y0162938D01*
X0014134Y0162484D01*
X0013979Y0162026D01*
X0013835Y0161565D01*
X0013702Y0161100D01*
X0013581Y0160632D01*
X0013471Y0160162D01*
X0013373Y0159689D01*
X0013285Y0159213D01*
X0013210Y0158736D01*
X0013146Y0158257D01*
X0013093Y0157776D01*
X0013053Y0157295D01*
X0013023Y0156812D01*
X0013006Y0156329D01*
X0013000Y0155846D01*
X0013000Y0035846D01*
X0013006Y0035363D01*
X0013023Y0034880D01*
X0013053Y0034397D01*
X0013093Y0033916D01*
X0013146Y0033435D01*
X0013210Y0032956D01*
X0013285Y0032479D01*
X0013373Y0032003D01*
X0013471Y0031530D01*
X0013581Y0031060D01*
X0013702Y0030592D01*
X0013835Y0030127D01*
X0013979Y0029666D01*
X0014134Y0029208D01*
X0014300Y0028754D01*
X0014477Y0028304D01*
X0014664Y0027859D01*
X0014863Y0027418D01*
X0015071Y0026982D01*
X0015291Y0026552D01*
X0015521Y0026126D01*
X0015761Y0025707D01*
X0016011Y0025293D01*
X0016271Y0024886D01*
X0016540Y0024485D01*
X0016820Y0024090D01*
X0017108Y0023703D01*
X0017407Y0023322D01*
X0017714Y0022949D01*
X0018030Y0022584D01*
X0018355Y0022226D01*
X0018688Y0021876D01*
X0019030Y0021534D01*
X0019380Y0021201D01*
X0019738Y0020876D01*
X0020103Y0020560D01*
X0020476Y0020253D01*
X0020857Y0019954D01*
X0021244Y0019666D01*
X0021639Y0019386D01*
X0022040Y0019117D01*
X0022447Y0018857D01*
X0022861Y0018607D01*
X0023280Y0018367D01*
X0023706Y0018137D01*
X0024136Y0017917D01*
X0024572Y0017709D01*
X0025013Y0017510D01*
X0025458Y0017323D01*
X0025908Y0017146D01*
X0026362Y0016980D01*
X0026820Y0016825D01*
X0027281Y0016681D01*
X0027746Y0016548D01*
X0028214Y0016427D01*
X0028684Y0016317D01*
X0029157Y0016219D01*
X0029633Y0016131D01*
X0030110Y0016056D01*
X0030589Y0015992D01*
X0031070Y0015939D01*
X0031551Y0015899D01*
X0032034Y0015869D01*
X0032517Y0015852D01*
X0033000Y0015846D01*
D11*
X0021701Y0030846D02*
X0021703Y0031004D01*
X0021709Y0031162D01*
X0021719Y0031320D01*
X0021733Y0031478D01*
X0021751Y0031635D01*
X0021772Y0031792D01*
X0021798Y0031948D01*
X0021828Y0032104D01*
X0021861Y0032259D01*
X0021899Y0032412D01*
X0021940Y0032565D01*
X0021985Y0032717D01*
X0022034Y0032868D01*
X0022087Y0033017D01*
X0022143Y0033165D01*
X0022203Y0033311D01*
X0022267Y0033456D01*
X0022335Y0033599D01*
X0022406Y0033741D01*
X0022480Y0033881D01*
X0022558Y0034018D01*
X0022640Y0034154D01*
X0022724Y0034288D01*
X0022813Y0034419D01*
X0022904Y0034548D01*
X0022999Y0034675D01*
X0023096Y0034800D01*
X0023197Y0034922D01*
X0023301Y0035041D01*
X0023408Y0035158D01*
X0023518Y0035272D01*
X0023631Y0035383D01*
X0023746Y0035492D01*
X0023864Y0035597D01*
X0023985Y0035699D01*
X0024108Y0035799D01*
X0024234Y0035895D01*
X0024362Y0035988D01*
X0024492Y0036078D01*
X0024625Y0036164D01*
X0024760Y0036248D01*
X0024896Y0036327D01*
X0025035Y0036404D01*
X0025176Y0036476D01*
X0025318Y0036546D01*
X0025462Y0036611D01*
X0025608Y0036673D01*
X0025755Y0036731D01*
X0025904Y0036786D01*
X0026054Y0036837D01*
X0026205Y0036884D01*
X0026357Y0036927D01*
X0026510Y0036966D01*
X0026665Y0037002D01*
X0026820Y0037033D01*
X0026976Y0037061D01*
X0027132Y0037085D01*
X0027289Y0037105D01*
X0027447Y0037121D01*
X0027604Y0037133D01*
X0027763Y0037141D01*
X0027921Y0037145D01*
X0028079Y0037145D01*
X0028237Y0037141D01*
X0028396Y0037133D01*
X0028553Y0037121D01*
X0028711Y0037105D01*
X0028868Y0037085D01*
X0029024Y0037061D01*
X0029180Y0037033D01*
X0029335Y0037002D01*
X0029490Y0036966D01*
X0029643Y0036927D01*
X0029795Y0036884D01*
X0029946Y0036837D01*
X0030096Y0036786D01*
X0030245Y0036731D01*
X0030392Y0036673D01*
X0030538Y0036611D01*
X0030682Y0036546D01*
X0030824Y0036476D01*
X0030965Y0036404D01*
X0031104Y0036327D01*
X0031240Y0036248D01*
X0031375Y0036164D01*
X0031508Y0036078D01*
X0031638Y0035988D01*
X0031766Y0035895D01*
X0031892Y0035799D01*
X0032015Y0035699D01*
X0032136Y0035597D01*
X0032254Y0035492D01*
X0032369Y0035383D01*
X0032482Y0035272D01*
X0032592Y0035158D01*
X0032699Y0035041D01*
X0032803Y0034922D01*
X0032904Y0034800D01*
X0033001Y0034675D01*
X0033096Y0034548D01*
X0033187Y0034419D01*
X0033276Y0034288D01*
X0033360Y0034154D01*
X0033442Y0034018D01*
X0033520Y0033881D01*
X0033594Y0033741D01*
X0033665Y0033599D01*
X0033733Y0033456D01*
X0033797Y0033311D01*
X0033857Y0033165D01*
X0033913Y0033017D01*
X0033966Y0032868D01*
X0034015Y0032717D01*
X0034060Y0032565D01*
X0034101Y0032412D01*
X0034139Y0032259D01*
X0034172Y0032104D01*
X0034202Y0031948D01*
X0034228Y0031792D01*
X0034249Y0031635D01*
X0034267Y0031478D01*
X0034281Y0031320D01*
X0034291Y0031162D01*
X0034297Y0031004D01*
X0034299Y0030846D01*
X0034297Y0030688D01*
X0034291Y0030530D01*
X0034281Y0030372D01*
X0034267Y0030214D01*
X0034249Y0030057D01*
X0034228Y0029900D01*
X0034202Y0029744D01*
X0034172Y0029588D01*
X0034139Y0029433D01*
X0034101Y0029280D01*
X0034060Y0029127D01*
X0034015Y0028975D01*
X0033966Y0028824D01*
X0033913Y0028675D01*
X0033857Y0028527D01*
X0033797Y0028381D01*
X0033733Y0028236D01*
X0033665Y0028093D01*
X0033594Y0027951D01*
X0033520Y0027811D01*
X0033442Y0027674D01*
X0033360Y0027538D01*
X0033276Y0027404D01*
X0033187Y0027273D01*
X0033096Y0027144D01*
X0033001Y0027017D01*
X0032904Y0026892D01*
X0032803Y0026770D01*
X0032699Y0026651D01*
X0032592Y0026534D01*
X0032482Y0026420D01*
X0032369Y0026309D01*
X0032254Y0026200D01*
X0032136Y0026095D01*
X0032015Y0025993D01*
X0031892Y0025893D01*
X0031766Y0025797D01*
X0031638Y0025704D01*
X0031508Y0025614D01*
X0031375Y0025528D01*
X0031240Y0025444D01*
X0031104Y0025365D01*
X0030965Y0025288D01*
X0030824Y0025216D01*
X0030682Y0025146D01*
X0030538Y0025081D01*
X0030392Y0025019D01*
X0030245Y0024961D01*
X0030096Y0024906D01*
X0029946Y0024855D01*
X0029795Y0024808D01*
X0029643Y0024765D01*
X0029490Y0024726D01*
X0029335Y0024690D01*
X0029180Y0024659D01*
X0029024Y0024631D01*
X0028868Y0024607D01*
X0028711Y0024587D01*
X0028553Y0024571D01*
X0028396Y0024559D01*
X0028237Y0024551D01*
X0028079Y0024547D01*
X0027921Y0024547D01*
X0027763Y0024551D01*
X0027604Y0024559D01*
X0027447Y0024571D01*
X0027289Y0024587D01*
X0027132Y0024607D01*
X0026976Y0024631D01*
X0026820Y0024659D01*
X0026665Y0024690D01*
X0026510Y0024726D01*
X0026357Y0024765D01*
X0026205Y0024808D01*
X0026054Y0024855D01*
X0025904Y0024906D01*
X0025755Y0024961D01*
X0025608Y0025019D01*
X0025462Y0025081D01*
X0025318Y0025146D01*
X0025176Y0025216D01*
X0025035Y0025288D01*
X0024896Y0025365D01*
X0024760Y0025444D01*
X0024625Y0025528D01*
X0024492Y0025614D01*
X0024362Y0025704D01*
X0024234Y0025797D01*
X0024108Y0025893D01*
X0023985Y0025993D01*
X0023864Y0026095D01*
X0023746Y0026200D01*
X0023631Y0026309D01*
X0023518Y0026420D01*
X0023408Y0026534D01*
X0023301Y0026651D01*
X0023197Y0026770D01*
X0023096Y0026892D01*
X0022999Y0027017D01*
X0022904Y0027144D01*
X0022813Y0027273D01*
X0022724Y0027404D01*
X0022640Y0027538D01*
X0022558Y0027674D01*
X0022480Y0027811D01*
X0022406Y0027951D01*
X0022335Y0028093D01*
X0022267Y0028236D01*
X0022203Y0028381D01*
X0022143Y0028527D01*
X0022087Y0028675D01*
X0022034Y0028824D01*
X0021985Y0028975D01*
X0021940Y0029127D01*
X0021899Y0029280D01*
X0021861Y0029433D01*
X0021828Y0029588D01*
X0021798Y0029744D01*
X0021772Y0029900D01*
X0021751Y0030057D01*
X0021733Y0030214D01*
X0021719Y0030372D01*
X0021709Y0030530D01*
X0021703Y0030688D01*
X0021701Y0030846D01*
X0080347Y0030008D02*
X0080349Y0030089D01*
X0080355Y0030171D01*
X0080365Y0030252D01*
X0080379Y0030332D01*
X0080396Y0030411D01*
X0080418Y0030490D01*
X0080443Y0030567D01*
X0080472Y0030644D01*
X0080505Y0030718D01*
X0080542Y0030791D01*
X0080581Y0030862D01*
X0080625Y0030931D01*
X0080671Y0030998D01*
X0080721Y0031062D01*
X0080774Y0031124D01*
X0080830Y0031184D01*
X0080888Y0031240D01*
X0080950Y0031294D01*
X0081014Y0031345D01*
X0081080Y0031392D01*
X0081148Y0031436D01*
X0081219Y0031477D01*
X0081291Y0031514D01*
X0081366Y0031548D01*
X0081441Y0031578D01*
X0081519Y0031604D01*
X0081597Y0031627D01*
X0081676Y0031645D01*
X0081756Y0031660D01*
X0081837Y0031671D01*
X0081918Y0031678D01*
X0082000Y0031681D01*
X0082081Y0031680D01*
X0082162Y0031675D01*
X0082243Y0031666D01*
X0082324Y0031653D01*
X0082404Y0031636D01*
X0082482Y0031616D01*
X0082560Y0031591D01*
X0082637Y0031563D01*
X0082712Y0031531D01*
X0082785Y0031496D01*
X0082856Y0031457D01*
X0082926Y0031414D01*
X0082993Y0031369D01*
X0083059Y0031320D01*
X0083121Y0031268D01*
X0083181Y0031212D01*
X0083238Y0031154D01*
X0083293Y0031094D01*
X0083344Y0031030D01*
X0083392Y0030965D01*
X0083437Y0030897D01*
X0083479Y0030827D01*
X0083517Y0030755D01*
X0083552Y0030681D01*
X0083583Y0030606D01*
X0083610Y0030529D01*
X0083633Y0030451D01*
X0083653Y0030372D01*
X0083669Y0030292D01*
X0083681Y0030211D01*
X0083689Y0030130D01*
X0083693Y0030049D01*
X0083693Y0029967D01*
X0083689Y0029886D01*
X0083681Y0029805D01*
X0083669Y0029724D01*
X0083653Y0029644D01*
X0083633Y0029565D01*
X0083610Y0029487D01*
X0083583Y0029410D01*
X0083552Y0029335D01*
X0083517Y0029261D01*
X0083479Y0029189D01*
X0083437Y0029119D01*
X0083392Y0029051D01*
X0083344Y0028986D01*
X0083293Y0028922D01*
X0083238Y0028862D01*
X0083181Y0028804D01*
X0083121Y0028748D01*
X0083059Y0028696D01*
X0082993Y0028647D01*
X0082926Y0028602D01*
X0082857Y0028559D01*
X0082785Y0028520D01*
X0082712Y0028485D01*
X0082637Y0028453D01*
X0082560Y0028425D01*
X0082482Y0028400D01*
X0082404Y0028380D01*
X0082324Y0028363D01*
X0082243Y0028350D01*
X0082162Y0028341D01*
X0082081Y0028336D01*
X0082000Y0028335D01*
X0081918Y0028338D01*
X0081837Y0028345D01*
X0081756Y0028356D01*
X0081676Y0028371D01*
X0081597Y0028389D01*
X0081519Y0028412D01*
X0081441Y0028438D01*
X0081366Y0028468D01*
X0081291Y0028502D01*
X0081219Y0028539D01*
X0081148Y0028580D01*
X0081080Y0028624D01*
X0081014Y0028671D01*
X0080950Y0028722D01*
X0080888Y0028776D01*
X0080830Y0028832D01*
X0080774Y0028892D01*
X0080721Y0028954D01*
X0080671Y0029018D01*
X0080625Y0029085D01*
X0080581Y0029154D01*
X0080542Y0029225D01*
X0080505Y0029298D01*
X0080472Y0029372D01*
X0080443Y0029449D01*
X0080418Y0029526D01*
X0080396Y0029605D01*
X0080379Y0029684D01*
X0080365Y0029764D01*
X0080355Y0029845D01*
X0080349Y0029927D01*
X0080347Y0030008D01*
X0095307Y0030008D02*
X0095309Y0030089D01*
X0095315Y0030171D01*
X0095325Y0030252D01*
X0095339Y0030332D01*
X0095356Y0030411D01*
X0095378Y0030490D01*
X0095403Y0030567D01*
X0095432Y0030644D01*
X0095465Y0030718D01*
X0095502Y0030791D01*
X0095541Y0030862D01*
X0095585Y0030931D01*
X0095631Y0030998D01*
X0095681Y0031062D01*
X0095734Y0031124D01*
X0095790Y0031184D01*
X0095848Y0031240D01*
X0095910Y0031294D01*
X0095974Y0031345D01*
X0096040Y0031392D01*
X0096108Y0031436D01*
X0096179Y0031477D01*
X0096251Y0031514D01*
X0096326Y0031548D01*
X0096401Y0031578D01*
X0096479Y0031604D01*
X0096557Y0031627D01*
X0096636Y0031645D01*
X0096716Y0031660D01*
X0096797Y0031671D01*
X0096878Y0031678D01*
X0096960Y0031681D01*
X0097041Y0031680D01*
X0097122Y0031675D01*
X0097203Y0031666D01*
X0097284Y0031653D01*
X0097364Y0031636D01*
X0097442Y0031616D01*
X0097520Y0031591D01*
X0097597Y0031563D01*
X0097672Y0031531D01*
X0097745Y0031496D01*
X0097816Y0031457D01*
X0097886Y0031414D01*
X0097953Y0031369D01*
X0098019Y0031320D01*
X0098081Y0031268D01*
X0098141Y0031212D01*
X0098198Y0031154D01*
X0098253Y0031094D01*
X0098304Y0031030D01*
X0098352Y0030965D01*
X0098397Y0030897D01*
X0098439Y0030827D01*
X0098477Y0030755D01*
X0098512Y0030681D01*
X0098543Y0030606D01*
X0098570Y0030529D01*
X0098593Y0030451D01*
X0098613Y0030372D01*
X0098629Y0030292D01*
X0098641Y0030211D01*
X0098649Y0030130D01*
X0098653Y0030049D01*
X0098653Y0029967D01*
X0098649Y0029886D01*
X0098641Y0029805D01*
X0098629Y0029724D01*
X0098613Y0029644D01*
X0098593Y0029565D01*
X0098570Y0029487D01*
X0098543Y0029410D01*
X0098512Y0029335D01*
X0098477Y0029261D01*
X0098439Y0029189D01*
X0098397Y0029119D01*
X0098352Y0029051D01*
X0098304Y0028986D01*
X0098253Y0028922D01*
X0098198Y0028862D01*
X0098141Y0028804D01*
X0098081Y0028748D01*
X0098019Y0028696D01*
X0097953Y0028647D01*
X0097886Y0028602D01*
X0097817Y0028559D01*
X0097745Y0028520D01*
X0097672Y0028485D01*
X0097597Y0028453D01*
X0097520Y0028425D01*
X0097442Y0028400D01*
X0097364Y0028380D01*
X0097284Y0028363D01*
X0097203Y0028350D01*
X0097122Y0028341D01*
X0097041Y0028336D01*
X0096960Y0028335D01*
X0096878Y0028338D01*
X0096797Y0028345D01*
X0096716Y0028356D01*
X0096636Y0028371D01*
X0096557Y0028389D01*
X0096479Y0028412D01*
X0096401Y0028438D01*
X0096326Y0028468D01*
X0096251Y0028502D01*
X0096179Y0028539D01*
X0096108Y0028580D01*
X0096040Y0028624D01*
X0095974Y0028671D01*
X0095910Y0028722D01*
X0095848Y0028776D01*
X0095790Y0028832D01*
X0095734Y0028892D01*
X0095681Y0028954D01*
X0095631Y0029018D01*
X0095585Y0029085D01*
X0095541Y0029154D01*
X0095502Y0029225D01*
X0095465Y0029298D01*
X0095432Y0029372D01*
X0095403Y0029449D01*
X0095378Y0029526D01*
X0095356Y0029605D01*
X0095339Y0029684D01*
X0095325Y0029764D01*
X0095315Y0029845D01*
X0095309Y0029927D01*
X0095307Y0030008D01*
X0146701Y0030846D02*
X0146703Y0031004D01*
X0146709Y0031162D01*
X0146719Y0031320D01*
X0146733Y0031478D01*
X0146751Y0031635D01*
X0146772Y0031792D01*
X0146798Y0031948D01*
X0146828Y0032104D01*
X0146861Y0032259D01*
X0146899Y0032412D01*
X0146940Y0032565D01*
X0146985Y0032717D01*
X0147034Y0032868D01*
X0147087Y0033017D01*
X0147143Y0033165D01*
X0147203Y0033311D01*
X0147267Y0033456D01*
X0147335Y0033599D01*
X0147406Y0033741D01*
X0147480Y0033881D01*
X0147558Y0034018D01*
X0147640Y0034154D01*
X0147724Y0034288D01*
X0147813Y0034419D01*
X0147904Y0034548D01*
X0147999Y0034675D01*
X0148096Y0034800D01*
X0148197Y0034922D01*
X0148301Y0035041D01*
X0148408Y0035158D01*
X0148518Y0035272D01*
X0148631Y0035383D01*
X0148746Y0035492D01*
X0148864Y0035597D01*
X0148985Y0035699D01*
X0149108Y0035799D01*
X0149234Y0035895D01*
X0149362Y0035988D01*
X0149492Y0036078D01*
X0149625Y0036164D01*
X0149760Y0036248D01*
X0149896Y0036327D01*
X0150035Y0036404D01*
X0150176Y0036476D01*
X0150318Y0036546D01*
X0150462Y0036611D01*
X0150608Y0036673D01*
X0150755Y0036731D01*
X0150904Y0036786D01*
X0151054Y0036837D01*
X0151205Y0036884D01*
X0151357Y0036927D01*
X0151510Y0036966D01*
X0151665Y0037002D01*
X0151820Y0037033D01*
X0151976Y0037061D01*
X0152132Y0037085D01*
X0152289Y0037105D01*
X0152447Y0037121D01*
X0152604Y0037133D01*
X0152763Y0037141D01*
X0152921Y0037145D01*
X0153079Y0037145D01*
X0153237Y0037141D01*
X0153396Y0037133D01*
X0153553Y0037121D01*
X0153711Y0037105D01*
X0153868Y0037085D01*
X0154024Y0037061D01*
X0154180Y0037033D01*
X0154335Y0037002D01*
X0154490Y0036966D01*
X0154643Y0036927D01*
X0154795Y0036884D01*
X0154946Y0036837D01*
X0155096Y0036786D01*
X0155245Y0036731D01*
X0155392Y0036673D01*
X0155538Y0036611D01*
X0155682Y0036546D01*
X0155824Y0036476D01*
X0155965Y0036404D01*
X0156104Y0036327D01*
X0156240Y0036248D01*
X0156375Y0036164D01*
X0156508Y0036078D01*
X0156638Y0035988D01*
X0156766Y0035895D01*
X0156892Y0035799D01*
X0157015Y0035699D01*
X0157136Y0035597D01*
X0157254Y0035492D01*
X0157369Y0035383D01*
X0157482Y0035272D01*
X0157592Y0035158D01*
X0157699Y0035041D01*
X0157803Y0034922D01*
X0157904Y0034800D01*
X0158001Y0034675D01*
X0158096Y0034548D01*
X0158187Y0034419D01*
X0158276Y0034288D01*
X0158360Y0034154D01*
X0158442Y0034018D01*
X0158520Y0033881D01*
X0158594Y0033741D01*
X0158665Y0033599D01*
X0158733Y0033456D01*
X0158797Y0033311D01*
X0158857Y0033165D01*
X0158913Y0033017D01*
X0158966Y0032868D01*
X0159015Y0032717D01*
X0159060Y0032565D01*
X0159101Y0032412D01*
X0159139Y0032259D01*
X0159172Y0032104D01*
X0159202Y0031948D01*
X0159228Y0031792D01*
X0159249Y0031635D01*
X0159267Y0031478D01*
X0159281Y0031320D01*
X0159291Y0031162D01*
X0159297Y0031004D01*
X0159299Y0030846D01*
X0159297Y0030688D01*
X0159291Y0030530D01*
X0159281Y0030372D01*
X0159267Y0030214D01*
X0159249Y0030057D01*
X0159228Y0029900D01*
X0159202Y0029744D01*
X0159172Y0029588D01*
X0159139Y0029433D01*
X0159101Y0029280D01*
X0159060Y0029127D01*
X0159015Y0028975D01*
X0158966Y0028824D01*
X0158913Y0028675D01*
X0158857Y0028527D01*
X0158797Y0028381D01*
X0158733Y0028236D01*
X0158665Y0028093D01*
X0158594Y0027951D01*
X0158520Y0027811D01*
X0158442Y0027674D01*
X0158360Y0027538D01*
X0158276Y0027404D01*
X0158187Y0027273D01*
X0158096Y0027144D01*
X0158001Y0027017D01*
X0157904Y0026892D01*
X0157803Y0026770D01*
X0157699Y0026651D01*
X0157592Y0026534D01*
X0157482Y0026420D01*
X0157369Y0026309D01*
X0157254Y0026200D01*
X0157136Y0026095D01*
X0157015Y0025993D01*
X0156892Y0025893D01*
X0156766Y0025797D01*
X0156638Y0025704D01*
X0156508Y0025614D01*
X0156375Y0025528D01*
X0156240Y0025444D01*
X0156104Y0025365D01*
X0155965Y0025288D01*
X0155824Y0025216D01*
X0155682Y0025146D01*
X0155538Y0025081D01*
X0155392Y0025019D01*
X0155245Y0024961D01*
X0155096Y0024906D01*
X0154946Y0024855D01*
X0154795Y0024808D01*
X0154643Y0024765D01*
X0154490Y0024726D01*
X0154335Y0024690D01*
X0154180Y0024659D01*
X0154024Y0024631D01*
X0153868Y0024607D01*
X0153711Y0024587D01*
X0153553Y0024571D01*
X0153396Y0024559D01*
X0153237Y0024551D01*
X0153079Y0024547D01*
X0152921Y0024547D01*
X0152763Y0024551D01*
X0152604Y0024559D01*
X0152447Y0024571D01*
X0152289Y0024587D01*
X0152132Y0024607D01*
X0151976Y0024631D01*
X0151820Y0024659D01*
X0151665Y0024690D01*
X0151510Y0024726D01*
X0151357Y0024765D01*
X0151205Y0024808D01*
X0151054Y0024855D01*
X0150904Y0024906D01*
X0150755Y0024961D01*
X0150608Y0025019D01*
X0150462Y0025081D01*
X0150318Y0025146D01*
X0150176Y0025216D01*
X0150035Y0025288D01*
X0149896Y0025365D01*
X0149760Y0025444D01*
X0149625Y0025528D01*
X0149492Y0025614D01*
X0149362Y0025704D01*
X0149234Y0025797D01*
X0149108Y0025893D01*
X0148985Y0025993D01*
X0148864Y0026095D01*
X0148746Y0026200D01*
X0148631Y0026309D01*
X0148518Y0026420D01*
X0148408Y0026534D01*
X0148301Y0026651D01*
X0148197Y0026770D01*
X0148096Y0026892D01*
X0147999Y0027017D01*
X0147904Y0027144D01*
X0147813Y0027273D01*
X0147724Y0027404D01*
X0147640Y0027538D01*
X0147558Y0027674D01*
X0147480Y0027811D01*
X0147406Y0027951D01*
X0147335Y0028093D01*
X0147267Y0028236D01*
X0147203Y0028381D01*
X0147143Y0028527D01*
X0147087Y0028675D01*
X0147034Y0028824D01*
X0146985Y0028975D01*
X0146940Y0029127D01*
X0146899Y0029280D01*
X0146861Y0029433D01*
X0146828Y0029588D01*
X0146798Y0029744D01*
X0146772Y0029900D01*
X0146751Y0030057D01*
X0146733Y0030214D01*
X0146719Y0030372D01*
X0146709Y0030530D01*
X0146703Y0030688D01*
X0146701Y0030846D01*
X0080567Y0101492D02*
X0080569Y0101571D01*
X0080575Y0101650D01*
X0080585Y0101729D01*
X0080599Y0101807D01*
X0080616Y0101884D01*
X0080638Y0101960D01*
X0080663Y0102035D01*
X0080693Y0102108D01*
X0080725Y0102180D01*
X0080762Y0102251D01*
X0080802Y0102319D01*
X0080845Y0102385D01*
X0080891Y0102449D01*
X0080941Y0102511D01*
X0080994Y0102570D01*
X0081049Y0102626D01*
X0081108Y0102680D01*
X0081169Y0102730D01*
X0081232Y0102778D01*
X0081298Y0102822D01*
X0081366Y0102863D01*
X0081436Y0102900D01*
X0081507Y0102934D01*
X0081581Y0102964D01*
X0081655Y0102990D01*
X0081731Y0103012D01*
X0081808Y0103031D01*
X0081886Y0103046D01*
X0081964Y0103057D01*
X0082043Y0103064D01*
X0082122Y0103067D01*
X0082201Y0103066D01*
X0082280Y0103061D01*
X0082359Y0103052D01*
X0082437Y0103039D01*
X0082514Y0103022D01*
X0082591Y0103002D01*
X0082666Y0102977D01*
X0082740Y0102949D01*
X0082813Y0102917D01*
X0082883Y0102882D01*
X0082952Y0102843D01*
X0083019Y0102800D01*
X0083084Y0102754D01*
X0083146Y0102706D01*
X0083206Y0102654D01*
X0083263Y0102599D01*
X0083317Y0102541D01*
X0083368Y0102481D01*
X0083416Y0102418D01*
X0083461Y0102353D01*
X0083503Y0102285D01*
X0083541Y0102216D01*
X0083575Y0102145D01*
X0083606Y0102072D01*
X0083634Y0101997D01*
X0083657Y0101922D01*
X0083677Y0101845D01*
X0083693Y0101768D01*
X0083705Y0101689D01*
X0083713Y0101611D01*
X0083717Y0101532D01*
X0083717Y0101452D01*
X0083713Y0101373D01*
X0083705Y0101295D01*
X0083693Y0101216D01*
X0083677Y0101139D01*
X0083657Y0101062D01*
X0083634Y0100987D01*
X0083606Y0100912D01*
X0083575Y0100839D01*
X0083541Y0100768D01*
X0083503Y0100699D01*
X0083461Y0100631D01*
X0083416Y0100566D01*
X0083368Y0100503D01*
X0083317Y0100443D01*
X0083263Y0100385D01*
X0083206Y0100330D01*
X0083146Y0100278D01*
X0083084Y0100230D01*
X0083019Y0100184D01*
X0082952Y0100141D01*
X0082883Y0100102D01*
X0082813Y0100067D01*
X0082740Y0100035D01*
X0082666Y0100007D01*
X0082591Y0099982D01*
X0082514Y0099962D01*
X0082437Y0099945D01*
X0082359Y0099932D01*
X0082280Y0099923D01*
X0082201Y0099918D01*
X0082122Y0099917D01*
X0082043Y0099920D01*
X0081964Y0099927D01*
X0081886Y0099938D01*
X0081808Y0099953D01*
X0081731Y0099972D01*
X0081655Y0099994D01*
X0081581Y0100020D01*
X0081507Y0100050D01*
X0081436Y0100084D01*
X0081366Y0100121D01*
X0081298Y0100162D01*
X0081232Y0100206D01*
X0081169Y0100254D01*
X0081108Y0100304D01*
X0081049Y0100358D01*
X0080994Y0100414D01*
X0080941Y0100473D01*
X0080891Y0100535D01*
X0080845Y0100599D01*
X0080802Y0100665D01*
X0080762Y0100733D01*
X0080725Y0100804D01*
X0080693Y0100876D01*
X0080663Y0100949D01*
X0080638Y0101024D01*
X0080616Y0101100D01*
X0080599Y0101177D01*
X0080585Y0101255D01*
X0080575Y0101334D01*
X0080569Y0101413D01*
X0080567Y0101492D01*
X0104779Y0125705D02*
X0104781Y0125784D01*
X0104787Y0125863D01*
X0104797Y0125942D01*
X0104811Y0126020D01*
X0104828Y0126097D01*
X0104850Y0126173D01*
X0104875Y0126248D01*
X0104905Y0126321D01*
X0104937Y0126393D01*
X0104974Y0126464D01*
X0105014Y0126532D01*
X0105057Y0126598D01*
X0105103Y0126662D01*
X0105153Y0126724D01*
X0105206Y0126783D01*
X0105261Y0126839D01*
X0105320Y0126893D01*
X0105381Y0126943D01*
X0105444Y0126991D01*
X0105510Y0127035D01*
X0105578Y0127076D01*
X0105648Y0127113D01*
X0105719Y0127147D01*
X0105793Y0127177D01*
X0105867Y0127203D01*
X0105943Y0127225D01*
X0106020Y0127244D01*
X0106098Y0127259D01*
X0106176Y0127270D01*
X0106255Y0127277D01*
X0106334Y0127280D01*
X0106413Y0127279D01*
X0106492Y0127274D01*
X0106571Y0127265D01*
X0106649Y0127252D01*
X0106726Y0127235D01*
X0106803Y0127215D01*
X0106878Y0127190D01*
X0106952Y0127162D01*
X0107025Y0127130D01*
X0107095Y0127095D01*
X0107164Y0127056D01*
X0107231Y0127013D01*
X0107296Y0126967D01*
X0107358Y0126919D01*
X0107418Y0126867D01*
X0107475Y0126812D01*
X0107529Y0126754D01*
X0107580Y0126694D01*
X0107628Y0126631D01*
X0107673Y0126566D01*
X0107715Y0126498D01*
X0107753Y0126429D01*
X0107787Y0126358D01*
X0107818Y0126285D01*
X0107846Y0126210D01*
X0107869Y0126135D01*
X0107889Y0126058D01*
X0107905Y0125981D01*
X0107917Y0125902D01*
X0107925Y0125824D01*
X0107929Y0125745D01*
X0107929Y0125665D01*
X0107925Y0125586D01*
X0107917Y0125508D01*
X0107905Y0125429D01*
X0107889Y0125352D01*
X0107869Y0125275D01*
X0107846Y0125200D01*
X0107818Y0125125D01*
X0107787Y0125052D01*
X0107753Y0124981D01*
X0107715Y0124912D01*
X0107673Y0124844D01*
X0107628Y0124779D01*
X0107580Y0124716D01*
X0107529Y0124656D01*
X0107475Y0124598D01*
X0107418Y0124543D01*
X0107358Y0124491D01*
X0107296Y0124443D01*
X0107231Y0124397D01*
X0107164Y0124354D01*
X0107095Y0124315D01*
X0107025Y0124280D01*
X0106952Y0124248D01*
X0106878Y0124220D01*
X0106803Y0124195D01*
X0106726Y0124175D01*
X0106649Y0124158D01*
X0106571Y0124145D01*
X0106492Y0124136D01*
X0106413Y0124131D01*
X0106334Y0124130D01*
X0106255Y0124133D01*
X0106176Y0124140D01*
X0106098Y0124151D01*
X0106020Y0124166D01*
X0105943Y0124185D01*
X0105867Y0124207D01*
X0105793Y0124233D01*
X0105719Y0124263D01*
X0105648Y0124297D01*
X0105578Y0124334D01*
X0105510Y0124375D01*
X0105444Y0124419D01*
X0105381Y0124467D01*
X0105320Y0124517D01*
X0105261Y0124571D01*
X0105206Y0124627D01*
X0105153Y0124686D01*
X0105103Y0124748D01*
X0105057Y0124812D01*
X0105014Y0124878D01*
X0104974Y0124946D01*
X0104937Y0125017D01*
X0104905Y0125089D01*
X0104875Y0125162D01*
X0104850Y0125237D01*
X0104828Y0125313D01*
X0104811Y0125390D01*
X0104797Y0125468D01*
X0104787Y0125547D01*
X0104781Y0125626D01*
X0104779Y0125705D01*
X0146701Y0160846D02*
X0146703Y0161004D01*
X0146709Y0161162D01*
X0146719Y0161320D01*
X0146733Y0161478D01*
X0146751Y0161635D01*
X0146772Y0161792D01*
X0146798Y0161948D01*
X0146828Y0162104D01*
X0146861Y0162259D01*
X0146899Y0162412D01*
X0146940Y0162565D01*
X0146985Y0162717D01*
X0147034Y0162868D01*
X0147087Y0163017D01*
X0147143Y0163165D01*
X0147203Y0163311D01*
X0147267Y0163456D01*
X0147335Y0163599D01*
X0147406Y0163741D01*
X0147480Y0163881D01*
X0147558Y0164018D01*
X0147640Y0164154D01*
X0147724Y0164288D01*
X0147813Y0164419D01*
X0147904Y0164548D01*
X0147999Y0164675D01*
X0148096Y0164800D01*
X0148197Y0164922D01*
X0148301Y0165041D01*
X0148408Y0165158D01*
X0148518Y0165272D01*
X0148631Y0165383D01*
X0148746Y0165492D01*
X0148864Y0165597D01*
X0148985Y0165699D01*
X0149108Y0165799D01*
X0149234Y0165895D01*
X0149362Y0165988D01*
X0149492Y0166078D01*
X0149625Y0166164D01*
X0149760Y0166248D01*
X0149896Y0166327D01*
X0150035Y0166404D01*
X0150176Y0166476D01*
X0150318Y0166546D01*
X0150462Y0166611D01*
X0150608Y0166673D01*
X0150755Y0166731D01*
X0150904Y0166786D01*
X0151054Y0166837D01*
X0151205Y0166884D01*
X0151357Y0166927D01*
X0151510Y0166966D01*
X0151665Y0167002D01*
X0151820Y0167033D01*
X0151976Y0167061D01*
X0152132Y0167085D01*
X0152289Y0167105D01*
X0152447Y0167121D01*
X0152604Y0167133D01*
X0152763Y0167141D01*
X0152921Y0167145D01*
X0153079Y0167145D01*
X0153237Y0167141D01*
X0153396Y0167133D01*
X0153553Y0167121D01*
X0153711Y0167105D01*
X0153868Y0167085D01*
X0154024Y0167061D01*
X0154180Y0167033D01*
X0154335Y0167002D01*
X0154490Y0166966D01*
X0154643Y0166927D01*
X0154795Y0166884D01*
X0154946Y0166837D01*
X0155096Y0166786D01*
X0155245Y0166731D01*
X0155392Y0166673D01*
X0155538Y0166611D01*
X0155682Y0166546D01*
X0155824Y0166476D01*
X0155965Y0166404D01*
X0156104Y0166327D01*
X0156240Y0166248D01*
X0156375Y0166164D01*
X0156508Y0166078D01*
X0156638Y0165988D01*
X0156766Y0165895D01*
X0156892Y0165799D01*
X0157015Y0165699D01*
X0157136Y0165597D01*
X0157254Y0165492D01*
X0157369Y0165383D01*
X0157482Y0165272D01*
X0157592Y0165158D01*
X0157699Y0165041D01*
X0157803Y0164922D01*
X0157904Y0164800D01*
X0158001Y0164675D01*
X0158096Y0164548D01*
X0158187Y0164419D01*
X0158276Y0164288D01*
X0158360Y0164154D01*
X0158442Y0164018D01*
X0158520Y0163881D01*
X0158594Y0163741D01*
X0158665Y0163599D01*
X0158733Y0163456D01*
X0158797Y0163311D01*
X0158857Y0163165D01*
X0158913Y0163017D01*
X0158966Y0162868D01*
X0159015Y0162717D01*
X0159060Y0162565D01*
X0159101Y0162412D01*
X0159139Y0162259D01*
X0159172Y0162104D01*
X0159202Y0161948D01*
X0159228Y0161792D01*
X0159249Y0161635D01*
X0159267Y0161478D01*
X0159281Y0161320D01*
X0159291Y0161162D01*
X0159297Y0161004D01*
X0159299Y0160846D01*
X0159297Y0160688D01*
X0159291Y0160530D01*
X0159281Y0160372D01*
X0159267Y0160214D01*
X0159249Y0160057D01*
X0159228Y0159900D01*
X0159202Y0159744D01*
X0159172Y0159588D01*
X0159139Y0159433D01*
X0159101Y0159280D01*
X0159060Y0159127D01*
X0159015Y0158975D01*
X0158966Y0158824D01*
X0158913Y0158675D01*
X0158857Y0158527D01*
X0158797Y0158381D01*
X0158733Y0158236D01*
X0158665Y0158093D01*
X0158594Y0157951D01*
X0158520Y0157811D01*
X0158442Y0157674D01*
X0158360Y0157538D01*
X0158276Y0157404D01*
X0158187Y0157273D01*
X0158096Y0157144D01*
X0158001Y0157017D01*
X0157904Y0156892D01*
X0157803Y0156770D01*
X0157699Y0156651D01*
X0157592Y0156534D01*
X0157482Y0156420D01*
X0157369Y0156309D01*
X0157254Y0156200D01*
X0157136Y0156095D01*
X0157015Y0155993D01*
X0156892Y0155893D01*
X0156766Y0155797D01*
X0156638Y0155704D01*
X0156508Y0155614D01*
X0156375Y0155528D01*
X0156240Y0155444D01*
X0156104Y0155365D01*
X0155965Y0155288D01*
X0155824Y0155216D01*
X0155682Y0155146D01*
X0155538Y0155081D01*
X0155392Y0155019D01*
X0155245Y0154961D01*
X0155096Y0154906D01*
X0154946Y0154855D01*
X0154795Y0154808D01*
X0154643Y0154765D01*
X0154490Y0154726D01*
X0154335Y0154690D01*
X0154180Y0154659D01*
X0154024Y0154631D01*
X0153868Y0154607D01*
X0153711Y0154587D01*
X0153553Y0154571D01*
X0153396Y0154559D01*
X0153237Y0154551D01*
X0153079Y0154547D01*
X0152921Y0154547D01*
X0152763Y0154551D01*
X0152604Y0154559D01*
X0152447Y0154571D01*
X0152289Y0154587D01*
X0152132Y0154607D01*
X0151976Y0154631D01*
X0151820Y0154659D01*
X0151665Y0154690D01*
X0151510Y0154726D01*
X0151357Y0154765D01*
X0151205Y0154808D01*
X0151054Y0154855D01*
X0150904Y0154906D01*
X0150755Y0154961D01*
X0150608Y0155019D01*
X0150462Y0155081D01*
X0150318Y0155146D01*
X0150176Y0155216D01*
X0150035Y0155288D01*
X0149896Y0155365D01*
X0149760Y0155444D01*
X0149625Y0155528D01*
X0149492Y0155614D01*
X0149362Y0155704D01*
X0149234Y0155797D01*
X0149108Y0155893D01*
X0148985Y0155993D01*
X0148864Y0156095D01*
X0148746Y0156200D01*
X0148631Y0156309D01*
X0148518Y0156420D01*
X0148408Y0156534D01*
X0148301Y0156651D01*
X0148197Y0156770D01*
X0148096Y0156892D01*
X0147999Y0157017D01*
X0147904Y0157144D01*
X0147813Y0157273D01*
X0147724Y0157404D01*
X0147640Y0157538D01*
X0147558Y0157674D01*
X0147480Y0157811D01*
X0147406Y0157951D01*
X0147335Y0158093D01*
X0147267Y0158236D01*
X0147203Y0158381D01*
X0147143Y0158527D01*
X0147087Y0158675D01*
X0147034Y0158824D01*
X0146985Y0158975D01*
X0146940Y0159127D01*
X0146899Y0159280D01*
X0146861Y0159433D01*
X0146828Y0159588D01*
X0146798Y0159744D01*
X0146772Y0159900D01*
X0146751Y0160057D01*
X0146733Y0160214D01*
X0146719Y0160372D01*
X0146709Y0160530D01*
X0146703Y0160688D01*
X0146701Y0160846D01*
X0021701Y0160846D02*
X0021703Y0161004D01*
X0021709Y0161162D01*
X0021719Y0161320D01*
X0021733Y0161478D01*
X0021751Y0161635D01*
X0021772Y0161792D01*
X0021798Y0161948D01*
X0021828Y0162104D01*
X0021861Y0162259D01*
X0021899Y0162412D01*
X0021940Y0162565D01*
X0021985Y0162717D01*
X0022034Y0162868D01*
X0022087Y0163017D01*
X0022143Y0163165D01*
X0022203Y0163311D01*
X0022267Y0163456D01*
X0022335Y0163599D01*
X0022406Y0163741D01*
X0022480Y0163881D01*
X0022558Y0164018D01*
X0022640Y0164154D01*
X0022724Y0164288D01*
X0022813Y0164419D01*
X0022904Y0164548D01*
X0022999Y0164675D01*
X0023096Y0164800D01*
X0023197Y0164922D01*
X0023301Y0165041D01*
X0023408Y0165158D01*
X0023518Y0165272D01*
X0023631Y0165383D01*
X0023746Y0165492D01*
X0023864Y0165597D01*
X0023985Y0165699D01*
X0024108Y0165799D01*
X0024234Y0165895D01*
X0024362Y0165988D01*
X0024492Y0166078D01*
X0024625Y0166164D01*
X0024760Y0166248D01*
X0024896Y0166327D01*
X0025035Y0166404D01*
X0025176Y0166476D01*
X0025318Y0166546D01*
X0025462Y0166611D01*
X0025608Y0166673D01*
X0025755Y0166731D01*
X0025904Y0166786D01*
X0026054Y0166837D01*
X0026205Y0166884D01*
X0026357Y0166927D01*
X0026510Y0166966D01*
X0026665Y0167002D01*
X0026820Y0167033D01*
X0026976Y0167061D01*
X0027132Y0167085D01*
X0027289Y0167105D01*
X0027447Y0167121D01*
X0027604Y0167133D01*
X0027763Y0167141D01*
X0027921Y0167145D01*
X0028079Y0167145D01*
X0028237Y0167141D01*
X0028396Y0167133D01*
X0028553Y0167121D01*
X0028711Y0167105D01*
X0028868Y0167085D01*
X0029024Y0167061D01*
X0029180Y0167033D01*
X0029335Y0167002D01*
X0029490Y0166966D01*
X0029643Y0166927D01*
X0029795Y0166884D01*
X0029946Y0166837D01*
X0030096Y0166786D01*
X0030245Y0166731D01*
X0030392Y0166673D01*
X0030538Y0166611D01*
X0030682Y0166546D01*
X0030824Y0166476D01*
X0030965Y0166404D01*
X0031104Y0166327D01*
X0031240Y0166248D01*
X0031375Y0166164D01*
X0031508Y0166078D01*
X0031638Y0165988D01*
X0031766Y0165895D01*
X0031892Y0165799D01*
X0032015Y0165699D01*
X0032136Y0165597D01*
X0032254Y0165492D01*
X0032369Y0165383D01*
X0032482Y0165272D01*
X0032592Y0165158D01*
X0032699Y0165041D01*
X0032803Y0164922D01*
X0032904Y0164800D01*
X0033001Y0164675D01*
X0033096Y0164548D01*
X0033187Y0164419D01*
X0033276Y0164288D01*
X0033360Y0164154D01*
X0033442Y0164018D01*
X0033520Y0163881D01*
X0033594Y0163741D01*
X0033665Y0163599D01*
X0033733Y0163456D01*
X0033797Y0163311D01*
X0033857Y0163165D01*
X0033913Y0163017D01*
X0033966Y0162868D01*
X0034015Y0162717D01*
X0034060Y0162565D01*
X0034101Y0162412D01*
X0034139Y0162259D01*
X0034172Y0162104D01*
X0034202Y0161948D01*
X0034228Y0161792D01*
X0034249Y0161635D01*
X0034267Y0161478D01*
X0034281Y0161320D01*
X0034291Y0161162D01*
X0034297Y0161004D01*
X0034299Y0160846D01*
X0034297Y0160688D01*
X0034291Y0160530D01*
X0034281Y0160372D01*
X0034267Y0160214D01*
X0034249Y0160057D01*
X0034228Y0159900D01*
X0034202Y0159744D01*
X0034172Y0159588D01*
X0034139Y0159433D01*
X0034101Y0159280D01*
X0034060Y0159127D01*
X0034015Y0158975D01*
X0033966Y0158824D01*
X0033913Y0158675D01*
X0033857Y0158527D01*
X0033797Y0158381D01*
X0033733Y0158236D01*
X0033665Y0158093D01*
X0033594Y0157951D01*
X0033520Y0157811D01*
X0033442Y0157674D01*
X0033360Y0157538D01*
X0033276Y0157404D01*
X0033187Y0157273D01*
X0033096Y0157144D01*
X0033001Y0157017D01*
X0032904Y0156892D01*
X0032803Y0156770D01*
X0032699Y0156651D01*
X0032592Y0156534D01*
X0032482Y0156420D01*
X0032369Y0156309D01*
X0032254Y0156200D01*
X0032136Y0156095D01*
X0032015Y0155993D01*
X0031892Y0155893D01*
X0031766Y0155797D01*
X0031638Y0155704D01*
X0031508Y0155614D01*
X0031375Y0155528D01*
X0031240Y0155444D01*
X0031104Y0155365D01*
X0030965Y0155288D01*
X0030824Y0155216D01*
X0030682Y0155146D01*
X0030538Y0155081D01*
X0030392Y0155019D01*
X0030245Y0154961D01*
X0030096Y0154906D01*
X0029946Y0154855D01*
X0029795Y0154808D01*
X0029643Y0154765D01*
X0029490Y0154726D01*
X0029335Y0154690D01*
X0029180Y0154659D01*
X0029024Y0154631D01*
X0028868Y0154607D01*
X0028711Y0154587D01*
X0028553Y0154571D01*
X0028396Y0154559D01*
X0028237Y0154551D01*
X0028079Y0154547D01*
X0027921Y0154547D01*
X0027763Y0154551D01*
X0027604Y0154559D01*
X0027447Y0154571D01*
X0027289Y0154587D01*
X0027132Y0154607D01*
X0026976Y0154631D01*
X0026820Y0154659D01*
X0026665Y0154690D01*
X0026510Y0154726D01*
X0026357Y0154765D01*
X0026205Y0154808D01*
X0026054Y0154855D01*
X0025904Y0154906D01*
X0025755Y0154961D01*
X0025608Y0155019D01*
X0025462Y0155081D01*
X0025318Y0155146D01*
X0025176Y0155216D01*
X0025035Y0155288D01*
X0024896Y0155365D01*
X0024760Y0155444D01*
X0024625Y0155528D01*
X0024492Y0155614D01*
X0024362Y0155704D01*
X0024234Y0155797D01*
X0024108Y0155893D01*
X0023985Y0155993D01*
X0023864Y0156095D01*
X0023746Y0156200D01*
X0023631Y0156309D01*
X0023518Y0156420D01*
X0023408Y0156534D01*
X0023301Y0156651D01*
X0023197Y0156770D01*
X0023096Y0156892D01*
X0022999Y0157017D01*
X0022904Y0157144D01*
X0022813Y0157273D01*
X0022724Y0157404D01*
X0022640Y0157538D01*
X0022558Y0157674D01*
X0022480Y0157811D01*
X0022406Y0157951D01*
X0022335Y0158093D01*
X0022267Y0158236D01*
X0022203Y0158381D01*
X0022143Y0158527D01*
X0022087Y0158675D01*
X0022034Y0158824D01*
X0021985Y0158975D01*
X0021940Y0159127D01*
X0021899Y0159280D01*
X0021861Y0159433D01*
X0021828Y0159588D01*
X0021798Y0159744D01*
X0021772Y0159900D01*
X0021751Y0160057D01*
X0021733Y0160214D01*
X0021719Y0160372D01*
X0021709Y0160530D01*
X0021703Y0160688D01*
X0021701Y0160846D01*
D12*
X0028000Y0030846D03*
X0153000Y0030846D03*
X0153000Y0160846D03*
X0028000Y0160846D03*
D13*
X0134260Y0039677D03*
X0138000Y0039677D03*
X0141740Y0039677D03*
X0141740Y0031016D03*
X0134260Y0031016D03*
D14*
X0121000Y0032787D03*
X0121000Y0037906D03*
X0138500Y0054287D03*
X0138500Y0059406D03*
X0071000Y0061406D03*
X0071000Y0056287D03*
X0049200Y0110187D03*
X0049200Y0115306D03*
D15*
X0050059Y0040846D03*
X0044941Y0040846D03*
X0044941Y0023846D03*
X0050059Y0023846D03*
X0124541Y0020246D03*
X0129659Y0020246D03*
X0138941Y0020346D03*
X0144059Y0020346D03*
D16*
X0113100Y0029835D03*
X0113100Y0040858D03*
D17*
X0094618Y0031976D03*
X0092059Y0031976D03*
X0089500Y0031976D03*
X0086941Y0031976D03*
X0084382Y0031976D03*
D18*
X0082020Y0030008D03*
X0096980Y0030008D03*
D19*
X0104004Y0021346D03*
X0074996Y0021346D03*
D20*
X0089500Y0021346D03*
D21*
X0061000Y0023846D03*
X0061000Y0040846D03*
D22*
X0022500Y0077846D03*
X0023500Y0087846D03*
X0022500Y0097846D03*
X0023500Y0107846D03*
X0022500Y0117846D03*
X0023500Y0127846D03*
X0086000Y0152346D03*
X0096000Y0153346D03*
X0106000Y0152346D03*
X0158500Y0127846D03*
X0157500Y0117846D03*
X0158500Y0107846D03*
X0157500Y0097846D03*
X0158500Y0087846D03*
X0157500Y0077846D03*
D23*
X0101016Y0072618D03*
X0098457Y0072618D03*
X0095898Y0072618D03*
X0093339Y0072618D03*
X0090780Y0072618D03*
X0088220Y0072618D03*
X0085661Y0072618D03*
X0083102Y0072618D03*
X0080543Y0072618D03*
X0077984Y0072618D03*
X0077984Y0044075D03*
X0080543Y0044075D03*
X0083102Y0044075D03*
X0085661Y0044075D03*
X0088220Y0044075D03*
X0090780Y0044075D03*
X0093339Y0044075D03*
X0095898Y0044075D03*
X0098457Y0044075D03*
X0101016Y0044075D03*
D24*
X0076000Y0153346D03*
D25*
X0062740Y0115283D03*
X0055260Y0115283D03*
X0059000Y0107016D03*
D26*
X0091000Y0101098D03*
X0091000Y0132594D03*
D27*
X0106354Y0125705D03*
X0082142Y0101492D03*
M02*
