G75*
%MOIN*%
%OFA0B0*%
%FSLAX25Y25*%
%IPPOS*%
%LPD*%
%AMOC8*
5,1,8,0,0,1.08239X$1,22.5*
%
%ADD10C,0.00100*%
%ADD11C,0.00000*%
%ADD12R,0.03937X0.04331*%
%ADD13R,0.04000X0.04000*%
%ADD14R,0.02756X0.03543*%
%ADD15R,0.03543X0.03937*%
%ADD16R,0.04724X0.07874*%
%ADD17C,0.07400*%
%ADD18R,0.07400X0.07400*%
%ADD19R,0.03150X0.03543*%
%ADD20R,0.03543X0.02756*%
%ADD21C,0.01200*%
%ADD22C,0.01600*%
%ADD23OC8,0.02400*%
%ADD24C,0.02400*%
%ADD25C,0.01400*%
%ADD26OC8,0.02800*%
%ADD27C,0.02800*%
%ADD28C,0.01000*%
D10*
X0033000Y0015846D02*
X0148000Y0015846D01*
X0148483Y0015852D01*
X0148966Y0015869D01*
X0149449Y0015899D01*
X0149930Y0015939D01*
X0150411Y0015992D01*
X0150890Y0016056D01*
X0151367Y0016131D01*
X0151843Y0016219D01*
X0152316Y0016317D01*
X0152786Y0016427D01*
X0153254Y0016548D01*
X0153719Y0016681D01*
X0154180Y0016825D01*
X0154638Y0016980D01*
X0155092Y0017146D01*
X0155542Y0017323D01*
X0155987Y0017510D01*
X0156428Y0017709D01*
X0156864Y0017917D01*
X0157294Y0018137D01*
X0157720Y0018367D01*
X0158139Y0018607D01*
X0158553Y0018857D01*
X0158960Y0019117D01*
X0159361Y0019386D01*
X0159756Y0019666D01*
X0160143Y0019954D01*
X0160524Y0020253D01*
X0160897Y0020560D01*
X0161262Y0020876D01*
X0161620Y0021201D01*
X0161970Y0021534D01*
X0162312Y0021876D01*
X0162645Y0022226D01*
X0162970Y0022584D01*
X0163286Y0022949D01*
X0163593Y0023322D01*
X0163892Y0023703D01*
X0164180Y0024090D01*
X0164460Y0024485D01*
X0164729Y0024886D01*
X0164989Y0025293D01*
X0165239Y0025707D01*
X0165479Y0026126D01*
X0165709Y0026552D01*
X0165929Y0026982D01*
X0166137Y0027418D01*
X0166336Y0027859D01*
X0166523Y0028304D01*
X0166700Y0028754D01*
X0166866Y0029208D01*
X0167021Y0029666D01*
X0167165Y0030127D01*
X0167298Y0030592D01*
X0167419Y0031060D01*
X0167529Y0031530D01*
X0167627Y0032003D01*
X0167715Y0032479D01*
X0167790Y0032956D01*
X0167854Y0033435D01*
X0167907Y0033916D01*
X0167947Y0034397D01*
X0167977Y0034880D01*
X0167994Y0035363D01*
X0168000Y0035846D01*
X0168000Y0155846D01*
X0167994Y0156329D01*
X0167977Y0156812D01*
X0167947Y0157295D01*
X0167907Y0157776D01*
X0167854Y0158257D01*
X0167790Y0158736D01*
X0167715Y0159213D01*
X0167627Y0159689D01*
X0167529Y0160162D01*
X0167419Y0160632D01*
X0167298Y0161100D01*
X0167165Y0161565D01*
X0167021Y0162026D01*
X0166866Y0162484D01*
X0166700Y0162938D01*
X0166523Y0163388D01*
X0166336Y0163833D01*
X0166137Y0164274D01*
X0165929Y0164710D01*
X0165709Y0165140D01*
X0165479Y0165566D01*
X0165239Y0165985D01*
X0164989Y0166399D01*
X0164729Y0166806D01*
X0164460Y0167207D01*
X0164180Y0167602D01*
X0163892Y0167989D01*
X0163593Y0168370D01*
X0163286Y0168743D01*
X0162970Y0169108D01*
X0162645Y0169466D01*
X0162312Y0169816D01*
X0161970Y0170158D01*
X0161620Y0170491D01*
X0161262Y0170816D01*
X0160897Y0171132D01*
X0160524Y0171439D01*
X0160143Y0171738D01*
X0159756Y0172026D01*
X0159361Y0172306D01*
X0158960Y0172575D01*
X0158553Y0172835D01*
X0158139Y0173085D01*
X0157720Y0173325D01*
X0157294Y0173555D01*
X0156864Y0173775D01*
X0156428Y0173983D01*
X0155987Y0174182D01*
X0155542Y0174369D01*
X0155092Y0174546D01*
X0154638Y0174712D01*
X0154180Y0174867D01*
X0153719Y0175011D01*
X0153254Y0175144D01*
X0152786Y0175265D01*
X0152316Y0175375D01*
X0151843Y0175473D01*
X0151367Y0175561D01*
X0150890Y0175636D01*
X0150411Y0175700D01*
X0149930Y0175753D01*
X0149449Y0175793D01*
X0148966Y0175823D01*
X0148483Y0175840D01*
X0148000Y0175846D01*
X0033000Y0175846D01*
X0032517Y0175840D01*
X0032034Y0175823D01*
X0031551Y0175793D01*
X0031070Y0175753D01*
X0030589Y0175700D01*
X0030110Y0175636D01*
X0029633Y0175561D01*
X0029157Y0175473D01*
X0028684Y0175375D01*
X0028214Y0175265D01*
X0027746Y0175144D01*
X0027281Y0175011D01*
X0026820Y0174867D01*
X0026362Y0174712D01*
X0025908Y0174546D01*
X0025458Y0174369D01*
X0025013Y0174182D01*
X0024572Y0173983D01*
X0024136Y0173775D01*
X0023706Y0173555D01*
X0023280Y0173325D01*
X0022861Y0173085D01*
X0022447Y0172835D01*
X0022040Y0172575D01*
X0021639Y0172306D01*
X0021244Y0172026D01*
X0020857Y0171738D01*
X0020476Y0171439D01*
X0020103Y0171132D01*
X0019738Y0170816D01*
X0019380Y0170491D01*
X0019030Y0170158D01*
X0018688Y0169816D01*
X0018355Y0169466D01*
X0018030Y0169108D01*
X0017714Y0168743D01*
X0017407Y0168370D01*
X0017108Y0167989D01*
X0016820Y0167602D01*
X0016540Y0167207D01*
X0016271Y0166806D01*
X0016011Y0166399D01*
X0015761Y0165985D01*
X0015521Y0165566D01*
X0015291Y0165140D01*
X0015071Y0164710D01*
X0014863Y0164274D01*
X0014664Y0163833D01*
X0014477Y0163388D01*
X0014300Y0162938D01*
X0014134Y0162484D01*
X0013979Y0162026D01*
X0013835Y0161565D01*
X0013702Y0161100D01*
X0013581Y0160632D01*
X0013471Y0160162D01*
X0013373Y0159689D01*
X0013285Y0159213D01*
X0013210Y0158736D01*
X0013146Y0158257D01*
X0013093Y0157776D01*
X0013053Y0157295D01*
X0013023Y0156812D01*
X0013006Y0156329D01*
X0013000Y0155846D01*
X0013000Y0035846D01*
X0013006Y0035363D01*
X0013023Y0034880D01*
X0013053Y0034397D01*
X0013093Y0033916D01*
X0013146Y0033435D01*
X0013210Y0032956D01*
X0013285Y0032479D01*
X0013373Y0032003D01*
X0013471Y0031530D01*
X0013581Y0031060D01*
X0013702Y0030592D01*
X0013835Y0030127D01*
X0013979Y0029666D01*
X0014134Y0029208D01*
X0014300Y0028754D01*
X0014477Y0028304D01*
X0014664Y0027859D01*
X0014863Y0027418D01*
X0015071Y0026982D01*
X0015291Y0026552D01*
X0015521Y0026126D01*
X0015761Y0025707D01*
X0016011Y0025293D01*
X0016271Y0024886D01*
X0016540Y0024485D01*
X0016820Y0024090D01*
X0017108Y0023703D01*
X0017407Y0023322D01*
X0017714Y0022949D01*
X0018030Y0022584D01*
X0018355Y0022226D01*
X0018688Y0021876D01*
X0019030Y0021534D01*
X0019380Y0021201D01*
X0019738Y0020876D01*
X0020103Y0020560D01*
X0020476Y0020253D01*
X0020857Y0019954D01*
X0021244Y0019666D01*
X0021639Y0019386D01*
X0022040Y0019117D01*
X0022447Y0018857D01*
X0022861Y0018607D01*
X0023280Y0018367D01*
X0023706Y0018137D01*
X0024136Y0017917D01*
X0024572Y0017709D01*
X0025013Y0017510D01*
X0025458Y0017323D01*
X0025908Y0017146D01*
X0026362Y0016980D01*
X0026820Y0016825D01*
X0027281Y0016681D01*
X0027746Y0016548D01*
X0028214Y0016427D01*
X0028684Y0016317D01*
X0029157Y0016219D01*
X0029633Y0016131D01*
X0030110Y0016056D01*
X0030589Y0015992D01*
X0031070Y0015939D01*
X0031551Y0015899D01*
X0032034Y0015869D01*
X0032517Y0015852D01*
X0033000Y0015846D01*
D11*
X0021701Y0030846D02*
X0021703Y0031004D01*
X0021709Y0031162D01*
X0021719Y0031320D01*
X0021733Y0031478D01*
X0021751Y0031635D01*
X0021772Y0031792D01*
X0021798Y0031948D01*
X0021828Y0032104D01*
X0021861Y0032259D01*
X0021899Y0032412D01*
X0021940Y0032565D01*
X0021985Y0032717D01*
X0022034Y0032868D01*
X0022087Y0033017D01*
X0022143Y0033165D01*
X0022203Y0033311D01*
X0022267Y0033456D01*
X0022335Y0033599D01*
X0022406Y0033741D01*
X0022480Y0033881D01*
X0022558Y0034018D01*
X0022640Y0034154D01*
X0022724Y0034288D01*
X0022813Y0034419D01*
X0022904Y0034548D01*
X0022999Y0034675D01*
X0023096Y0034800D01*
X0023197Y0034922D01*
X0023301Y0035041D01*
X0023408Y0035158D01*
X0023518Y0035272D01*
X0023631Y0035383D01*
X0023746Y0035492D01*
X0023864Y0035597D01*
X0023985Y0035699D01*
X0024108Y0035799D01*
X0024234Y0035895D01*
X0024362Y0035988D01*
X0024492Y0036078D01*
X0024625Y0036164D01*
X0024760Y0036248D01*
X0024896Y0036327D01*
X0025035Y0036404D01*
X0025176Y0036476D01*
X0025318Y0036546D01*
X0025462Y0036611D01*
X0025608Y0036673D01*
X0025755Y0036731D01*
X0025904Y0036786D01*
X0026054Y0036837D01*
X0026205Y0036884D01*
X0026357Y0036927D01*
X0026510Y0036966D01*
X0026665Y0037002D01*
X0026820Y0037033D01*
X0026976Y0037061D01*
X0027132Y0037085D01*
X0027289Y0037105D01*
X0027447Y0037121D01*
X0027604Y0037133D01*
X0027763Y0037141D01*
X0027921Y0037145D01*
X0028079Y0037145D01*
X0028237Y0037141D01*
X0028396Y0037133D01*
X0028553Y0037121D01*
X0028711Y0037105D01*
X0028868Y0037085D01*
X0029024Y0037061D01*
X0029180Y0037033D01*
X0029335Y0037002D01*
X0029490Y0036966D01*
X0029643Y0036927D01*
X0029795Y0036884D01*
X0029946Y0036837D01*
X0030096Y0036786D01*
X0030245Y0036731D01*
X0030392Y0036673D01*
X0030538Y0036611D01*
X0030682Y0036546D01*
X0030824Y0036476D01*
X0030965Y0036404D01*
X0031104Y0036327D01*
X0031240Y0036248D01*
X0031375Y0036164D01*
X0031508Y0036078D01*
X0031638Y0035988D01*
X0031766Y0035895D01*
X0031892Y0035799D01*
X0032015Y0035699D01*
X0032136Y0035597D01*
X0032254Y0035492D01*
X0032369Y0035383D01*
X0032482Y0035272D01*
X0032592Y0035158D01*
X0032699Y0035041D01*
X0032803Y0034922D01*
X0032904Y0034800D01*
X0033001Y0034675D01*
X0033096Y0034548D01*
X0033187Y0034419D01*
X0033276Y0034288D01*
X0033360Y0034154D01*
X0033442Y0034018D01*
X0033520Y0033881D01*
X0033594Y0033741D01*
X0033665Y0033599D01*
X0033733Y0033456D01*
X0033797Y0033311D01*
X0033857Y0033165D01*
X0033913Y0033017D01*
X0033966Y0032868D01*
X0034015Y0032717D01*
X0034060Y0032565D01*
X0034101Y0032412D01*
X0034139Y0032259D01*
X0034172Y0032104D01*
X0034202Y0031948D01*
X0034228Y0031792D01*
X0034249Y0031635D01*
X0034267Y0031478D01*
X0034281Y0031320D01*
X0034291Y0031162D01*
X0034297Y0031004D01*
X0034299Y0030846D01*
X0034297Y0030688D01*
X0034291Y0030530D01*
X0034281Y0030372D01*
X0034267Y0030214D01*
X0034249Y0030057D01*
X0034228Y0029900D01*
X0034202Y0029744D01*
X0034172Y0029588D01*
X0034139Y0029433D01*
X0034101Y0029280D01*
X0034060Y0029127D01*
X0034015Y0028975D01*
X0033966Y0028824D01*
X0033913Y0028675D01*
X0033857Y0028527D01*
X0033797Y0028381D01*
X0033733Y0028236D01*
X0033665Y0028093D01*
X0033594Y0027951D01*
X0033520Y0027811D01*
X0033442Y0027674D01*
X0033360Y0027538D01*
X0033276Y0027404D01*
X0033187Y0027273D01*
X0033096Y0027144D01*
X0033001Y0027017D01*
X0032904Y0026892D01*
X0032803Y0026770D01*
X0032699Y0026651D01*
X0032592Y0026534D01*
X0032482Y0026420D01*
X0032369Y0026309D01*
X0032254Y0026200D01*
X0032136Y0026095D01*
X0032015Y0025993D01*
X0031892Y0025893D01*
X0031766Y0025797D01*
X0031638Y0025704D01*
X0031508Y0025614D01*
X0031375Y0025528D01*
X0031240Y0025444D01*
X0031104Y0025365D01*
X0030965Y0025288D01*
X0030824Y0025216D01*
X0030682Y0025146D01*
X0030538Y0025081D01*
X0030392Y0025019D01*
X0030245Y0024961D01*
X0030096Y0024906D01*
X0029946Y0024855D01*
X0029795Y0024808D01*
X0029643Y0024765D01*
X0029490Y0024726D01*
X0029335Y0024690D01*
X0029180Y0024659D01*
X0029024Y0024631D01*
X0028868Y0024607D01*
X0028711Y0024587D01*
X0028553Y0024571D01*
X0028396Y0024559D01*
X0028237Y0024551D01*
X0028079Y0024547D01*
X0027921Y0024547D01*
X0027763Y0024551D01*
X0027604Y0024559D01*
X0027447Y0024571D01*
X0027289Y0024587D01*
X0027132Y0024607D01*
X0026976Y0024631D01*
X0026820Y0024659D01*
X0026665Y0024690D01*
X0026510Y0024726D01*
X0026357Y0024765D01*
X0026205Y0024808D01*
X0026054Y0024855D01*
X0025904Y0024906D01*
X0025755Y0024961D01*
X0025608Y0025019D01*
X0025462Y0025081D01*
X0025318Y0025146D01*
X0025176Y0025216D01*
X0025035Y0025288D01*
X0024896Y0025365D01*
X0024760Y0025444D01*
X0024625Y0025528D01*
X0024492Y0025614D01*
X0024362Y0025704D01*
X0024234Y0025797D01*
X0024108Y0025893D01*
X0023985Y0025993D01*
X0023864Y0026095D01*
X0023746Y0026200D01*
X0023631Y0026309D01*
X0023518Y0026420D01*
X0023408Y0026534D01*
X0023301Y0026651D01*
X0023197Y0026770D01*
X0023096Y0026892D01*
X0022999Y0027017D01*
X0022904Y0027144D01*
X0022813Y0027273D01*
X0022724Y0027404D01*
X0022640Y0027538D01*
X0022558Y0027674D01*
X0022480Y0027811D01*
X0022406Y0027951D01*
X0022335Y0028093D01*
X0022267Y0028236D01*
X0022203Y0028381D01*
X0022143Y0028527D01*
X0022087Y0028675D01*
X0022034Y0028824D01*
X0021985Y0028975D01*
X0021940Y0029127D01*
X0021899Y0029280D01*
X0021861Y0029433D01*
X0021828Y0029588D01*
X0021798Y0029744D01*
X0021772Y0029900D01*
X0021751Y0030057D01*
X0021733Y0030214D01*
X0021719Y0030372D01*
X0021709Y0030530D01*
X0021703Y0030688D01*
X0021701Y0030846D01*
X0080347Y0030008D02*
X0080349Y0030089D01*
X0080355Y0030171D01*
X0080365Y0030252D01*
X0080379Y0030332D01*
X0080396Y0030411D01*
X0080418Y0030490D01*
X0080443Y0030567D01*
X0080472Y0030644D01*
X0080505Y0030718D01*
X0080542Y0030791D01*
X0080581Y0030862D01*
X0080625Y0030931D01*
X0080671Y0030998D01*
X0080721Y0031062D01*
X0080774Y0031124D01*
X0080830Y0031184D01*
X0080888Y0031240D01*
X0080950Y0031294D01*
X0081014Y0031345D01*
X0081080Y0031392D01*
X0081148Y0031436D01*
X0081219Y0031477D01*
X0081291Y0031514D01*
X0081366Y0031548D01*
X0081441Y0031578D01*
X0081519Y0031604D01*
X0081597Y0031627D01*
X0081676Y0031645D01*
X0081756Y0031660D01*
X0081837Y0031671D01*
X0081918Y0031678D01*
X0082000Y0031681D01*
X0082081Y0031680D01*
X0082162Y0031675D01*
X0082243Y0031666D01*
X0082324Y0031653D01*
X0082404Y0031636D01*
X0082482Y0031616D01*
X0082560Y0031591D01*
X0082637Y0031563D01*
X0082712Y0031531D01*
X0082785Y0031496D01*
X0082856Y0031457D01*
X0082926Y0031414D01*
X0082993Y0031369D01*
X0083059Y0031320D01*
X0083121Y0031268D01*
X0083181Y0031212D01*
X0083238Y0031154D01*
X0083293Y0031094D01*
X0083344Y0031030D01*
X0083392Y0030965D01*
X0083437Y0030897D01*
X0083479Y0030827D01*
X0083517Y0030755D01*
X0083552Y0030681D01*
X0083583Y0030606D01*
X0083610Y0030529D01*
X0083633Y0030451D01*
X0083653Y0030372D01*
X0083669Y0030292D01*
X0083681Y0030211D01*
X0083689Y0030130D01*
X0083693Y0030049D01*
X0083693Y0029967D01*
X0083689Y0029886D01*
X0083681Y0029805D01*
X0083669Y0029724D01*
X0083653Y0029644D01*
X0083633Y0029565D01*
X0083610Y0029487D01*
X0083583Y0029410D01*
X0083552Y0029335D01*
X0083517Y0029261D01*
X0083479Y0029189D01*
X0083437Y0029119D01*
X0083392Y0029051D01*
X0083344Y0028986D01*
X0083293Y0028922D01*
X0083238Y0028862D01*
X0083181Y0028804D01*
X0083121Y0028748D01*
X0083059Y0028696D01*
X0082993Y0028647D01*
X0082926Y0028602D01*
X0082857Y0028559D01*
X0082785Y0028520D01*
X0082712Y0028485D01*
X0082637Y0028453D01*
X0082560Y0028425D01*
X0082482Y0028400D01*
X0082404Y0028380D01*
X0082324Y0028363D01*
X0082243Y0028350D01*
X0082162Y0028341D01*
X0082081Y0028336D01*
X0082000Y0028335D01*
X0081918Y0028338D01*
X0081837Y0028345D01*
X0081756Y0028356D01*
X0081676Y0028371D01*
X0081597Y0028389D01*
X0081519Y0028412D01*
X0081441Y0028438D01*
X0081366Y0028468D01*
X0081291Y0028502D01*
X0081219Y0028539D01*
X0081148Y0028580D01*
X0081080Y0028624D01*
X0081014Y0028671D01*
X0080950Y0028722D01*
X0080888Y0028776D01*
X0080830Y0028832D01*
X0080774Y0028892D01*
X0080721Y0028954D01*
X0080671Y0029018D01*
X0080625Y0029085D01*
X0080581Y0029154D01*
X0080542Y0029225D01*
X0080505Y0029298D01*
X0080472Y0029372D01*
X0080443Y0029449D01*
X0080418Y0029526D01*
X0080396Y0029605D01*
X0080379Y0029684D01*
X0080365Y0029764D01*
X0080355Y0029845D01*
X0080349Y0029927D01*
X0080347Y0030008D01*
X0095307Y0030008D02*
X0095309Y0030089D01*
X0095315Y0030171D01*
X0095325Y0030252D01*
X0095339Y0030332D01*
X0095356Y0030411D01*
X0095378Y0030490D01*
X0095403Y0030567D01*
X0095432Y0030644D01*
X0095465Y0030718D01*
X0095502Y0030791D01*
X0095541Y0030862D01*
X0095585Y0030931D01*
X0095631Y0030998D01*
X0095681Y0031062D01*
X0095734Y0031124D01*
X0095790Y0031184D01*
X0095848Y0031240D01*
X0095910Y0031294D01*
X0095974Y0031345D01*
X0096040Y0031392D01*
X0096108Y0031436D01*
X0096179Y0031477D01*
X0096251Y0031514D01*
X0096326Y0031548D01*
X0096401Y0031578D01*
X0096479Y0031604D01*
X0096557Y0031627D01*
X0096636Y0031645D01*
X0096716Y0031660D01*
X0096797Y0031671D01*
X0096878Y0031678D01*
X0096960Y0031681D01*
X0097041Y0031680D01*
X0097122Y0031675D01*
X0097203Y0031666D01*
X0097284Y0031653D01*
X0097364Y0031636D01*
X0097442Y0031616D01*
X0097520Y0031591D01*
X0097597Y0031563D01*
X0097672Y0031531D01*
X0097745Y0031496D01*
X0097816Y0031457D01*
X0097886Y0031414D01*
X0097953Y0031369D01*
X0098019Y0031320D01*
X0098081Y0031268D01*
X0098141Y0031212D01*
X0098198Y0031154D01*
X0098253Y0031094D01*
X0098304Y0031030D01*
X0098352Y0030965D01*
X0098397Y0030897D01*
X0098439Y0030827D01*
X0098477Y0030755D01*
X0098512Y0030681D01*
X0098543Y0030606D01*
X0098570Y0030529D01*
X0098593Y0030451D01*
X0098613Y0030372D01*
X0098629Y0030292D01*
X0098641Y0030211D01*
X0098649Y0030130D01*
X0098653Y0030049D01*
X0098653Y0029967D01*
X0098649Y0029886D01*
X0098641Y0029805D01*
X0098629Y0029724D01*
X0098613Y0029644D01*
X0098593Y0029565D01*
X0098570Y0029487D01*
X0098543Y0029410D01*
X0098512Y0029335D01*
X0098477Y0029261D01*
X0098439Y0029189D01*
X0098397Y0029119D01*
X0098352Y0029051D01*
X0098304Y0028986D01*
X0098253Y0028922D01*
X0098198Y0028862D01*
X0098141Y0028804D01*
X0098081Y0028748D01*
X0098019Y0028696D01*
X0097953Y0028647D01*
X0097886Y0028602D01*
X0097817Y0028559D01*
X0097745Y0028520D01*
X0097672Y0028485D01*
X0097597Y0028453D01*
X0097520Y0028425D01*
X0097442Y0028400D01*
X0097364Y0028380D01*
X0097284Y0028363D01*
X0097203Y0028350D01*
X0097122Y0028341D01*
X0097041Y0028336D01*
X0096960Y0028335D01*
X0096878Y0028338D01*
X0096797Y0028345D01*
X0096716Y0028356D01*
X0096636Y0028371D01*
X0096557Y0028389D01*
X0096479Y0028412D01*
X0096401Y0028438D01*
X0096326Y0028468D01*
X0096251Y0028502D01*
X0096179Y0028539D01*
X0096108Y0028580D01*
X0096040Y0028624D01*
X0095974Y0028671D01*
X0095910Y0028722D01*
X0095848Y0028776D01*
X0095790Y0028832D01*
X0095734Y0028892D01*
X0095681Y0028954D01*
X0095631Y0029018D01*
X0095585Y0029085D01*
X0095541Y0029154D01*
X0095502Y0029225D01*
X0095465Y0029298D01*
X0095432Y0029372D01*
X0095403Y0029449D01*
X0095378Y0029526D01*
X0095356Y0029605D01*
X0095339Y0029684D01*
X0095325Y0029764D01*
X0095315Y0029845D01*
X0095309Y0029927D01*
X0095307Y0030008D01*
X0146701Y0030846D02*
X0146703Y0031004D01*
X0146709Y0031162D01*
X0146719Y0031320D01*
X0146733Y0031478D01*
X0146751Y0031635D01*
X0146772Y0031792D01*
X0146798Y0031948D01*
X0146828Y0032104D01*
X0146861Y0032259D01*
X0146899Y0032412D01*
X0146940Y0032565D01*
X0146985Y0032717D01*
X0147034Y0032868D01*
X0147087Y0033017D01*
X0147143Y0033165D01*
X0147203Y0033311D01*
X0147267Y0033456D01*
X0147335Y0033599D01*
X0147406Y0033741D01*
X0147480Y0033881D01*
X0147558Y0034018D01*
X0147640Y0034154D01*
X0147724Y0034288D01*
X0147813Y0034419D01*
X0147904Y0034548D01*
X0147999Y0034675D01*
X0148096Y0034800D01*
X0148197Y0034922D01*
X0148301Y0035041D01*
X0148408Y0035158D01*
X0148518Y0035272D01*
X0148631Y0035383D01*
X0148746Y0035492D01*
X0148864Y0035597D01*
X0148985Y0035699D01*
X0149108Y0035799D01*
X0149234Y0035895D01*
X0149362Y0035988D01*
X0149492Y0036078D01*
X0149625Y0036164D01*
X0149760Y0036248D01*
X0149896Y0036327D01*
X0150035Y0036404D01*
X0150176Y0036476D01*
X0150318Y0036546D01*
X0150462Y0036611D01*
X0150608Y0036673D01*
X0150755Y0036731D01*
X0150904Y0036786D01*
X0151054Y0036837D01*
X0151205Y0036884D01*
X0151357Y0036927D01*
X0151510Y0036966D01*
X0151665Y0037002D01*
X0151820Y0037033D01*
X0151976Y0037061D01*
X0152132Y0037085D01*
X0152289Y0037105D01*
X0152447Y0037121D01*
X0152604Y0037133D01*
X0152763Y0037141D01*
X0152921Y0037145D01*
X0153079Y0037145D01*
X0153237Y0037141D01*
X0153396Y0037133D01*
X0153553Y0037121D01*
X0153711Y0037105D01*
X0153868Y0037085D01*
X0154024Y0037061D01*
X0154180Y0037033D01*
X0154335Y0037002D01*
X0154490Y0036966D01*
X0154643Y0036927D01*
X0154795Y0036884D01*
X0154946Y0036837D01*
X0155096Y0036786D01*
X0155245Y0036731D01*
X0155392Y0036673D01*
X0155538Y0036611D01*
X0155682Y0036546D01*
X0155824Y0036476D01*
X0155965Y0036404D01*
X0156104Y0036327D01*
X0156240Y0036248D01*
X0156375Y0036164D01*
X0156508Y0036078D01*
X0156638Y0035988D01*
X0156766Y0035895D01*
X0156892Y0035799D01*
X0157015Y0035699D01*
X0157136Y0035597D01*
X0157254Y0035492D01*
X0157369Y0035383D01*
X0157482Y0035272D01*
X0157592Y0035158D01*
X0157699Y0035041D01*
X0157803Y0034922D01*
X0157904Y0034800D01*
X0158001Y0034675D01*
X0158096Y0034548D01*
X0158187Y0034419D01*
X0158276Y0034288D01*
X0158360Y0034154D01*
X0158442Y0034018D01*
X0158520Y0033881D01*
X0158594Y0033741D01*
X0158665Y0033599D01*
X0158733Y0033456D01*
X0158797Y0033311D01*
X0158857Y0033165D01*
X0158913Y0033017D01*
X0158966Y0032868D01*
X0159015Y0032717D01*
X0159060Y0032565D01*
X0159101Y0032412D01*
X0159139Y0032259D01*
X0159172Y0032104D01*
X0159202Y0031948D01*
X0159228Y0031792D01*
X0159249Y0031635D01*
X0159267Y0031478D01*
X0159281Y0031320D01*
X0159291Y0031162D01*
X0159297Y0031004D01*
X0159299Y0030846D01*
X0159297Y0030688D01*
X0159291Y0030530D01*
X0159281Y0030372D01*
X0159267Y0030214D01*
X0159249Y0030057D01*
X0159228Y0029900D01*
X0159202Y0029744D01*
X0159172Y0029588D01*
X0159139Y0029433D01*
X0159101Y0029280D01*
X0159060Y0029127D01*
X0159015Y0028975D01*
X0158966Y0028824D01*
X0158913Y0028675D01*
X0158857Y0028527D01*
X0158797Y0028381D01*
X0158733Y0028236D01*
X0158665Y0028093D01*
X0158594Y0027951D01*
X0158520Y0027811D01*
X0158442Y0027674D01*
X0158360Y0027538D01*
X0158276Y0027404D01*
X0158187Y0027273D01*
X0158096Y0027144D01*
X0158001Y0027017D01*
X0157904Y0026892D01*
X0157803Y0026770D01*
X0157699Y0026651D01*
X0157592Y0026534D01*
X0157482Y0026420D01*
X0157369Y0026309D01*
X0157254Y0026200D01*
X0157136Y0026095D01*
X0157015Y0025993D01*
X0156892Y0025893D01*
X0156766Y0025797D01*
X0156638Y0025704D01*
X0156508Y0025614D01*
X0156375Y0025528D01*
X0156240Y0025444D01*
X0156104Y0025365D01*
X0155965Y0025288D01*
X0155824Y0025216D01*
X0155682Y0025146D01*
X0155538Y0025081D01*
X0155392Y0025019D01*
X0155245Y0024961D01*
X0155096Y0024906D01*
X0154946Y0024855D01*
X0154795Y0024808D01*
X0154643Y0024765D01*
X0154490Y0024726D01*
X0154335Y0024690D01*
X0154180Y0024659D01*
X0154024Y0024631D01*
X0153868Y0024607D01*
X0153711Y0024587D01*
X0153553Y0024571D01*
X0153396Y0024559D01*
X0153237Y0024551D01*
X0153079Y0024547D01*
X0152921Y0024547D01*
X0152763Y0024551D01*
X0152604Y0024559D01*
X0152447Y0024571D01*
X0152289Y0024587D01*
X0152132Y0024607D01*
X0151976Y0024631D01*
X0151820Y0024659D01*
X0151665Y0024690D01*
X0151510Y0024726D01*
X0151357Y0024765D01*
X0151205Y0024808D01*
X0151054Y0024855D01*
X0150904Y0024906D01*
X0150755Y0024961D01*
X0150608Y0025019D01*
X0150462Y0025081D01*
X0150318Y0025146D01*
X0150176Y0025216D01*
X0150035Y0025288D01*
X0149896Y0025365D01*
X0149760Y0025444D01*
X0149625Y0025528D01*
X0149492Y0025614D01*
X0149362Y0025704D01*
X0149234Y0025797D01*
X0149108Y0025893D01*
X0148985Y0025993D01*
X0148864Y0026095D01*
X0148746Y0026200D01*
X0148631Y0026309D01*
X0148518Y0026420D01*
X0148408Y0026534D01*
X0148301Y0026651D01*
X0148197Y0026770D01*
X0148096Y0026892D01*
X0147999Y0027017D01*
X0147904Y0027144D01*
X0147813Y0027273D01*
X0147724Y0027404D01*
X0147640Y0027538D01*
X0147558Y0027674D01*
X0147480Y0027811D01*
X0147406Y0027951D01*
X0147335Y0028093D01*
X0147267Y0028236D01*
X0147203Y0028381D01*
X0147143Y0028527D01*
X0147087Y0028675D01*
X0147034Y0028824D01*
X0146985Y0028975D01*
X0146940Y0029127D01*
X0146899Y0029280D01*
X0146861Y0029433D01*
X0146828Y0029588D01*
X0146798Y0029744D01*
X0146772Y0029900D01*
X0146751Y0030057D01*
X0146733Y0030214D01*
X0146719Y0030372D01*
X0146709Y0030530D01*
X0146703Y0030688D01*
X0146701Y0030846D01*
X0080567Y0101492D02*
X0080569Y0101571D01*
X0080575Y0101650D01*
X0080585Y0101729D01*
X0080599Y0101807D01*
X0080616Y0101884D01*
X0080638Y0101960D01*
X0080663Y0102035D01*
X0080693Y0102108D01*
X0080725Y0102180D01*
X0080762Y0102251D01*
X0080802Y0102319D01*
X0080845Y0102385D01*
X0080891Y0102449D01*
X0080941Y0102511D01*
X0080994Y0102570D01*
X0081049Y0102626D01*
X0081108Y0102680D01*
X0081169Y0102730D01*
X0081232Y0102778D01*
X0081298Y0102822D01*
X0081366Y0102863D01*
X0081436Y0102900D01*
X0081507Y0102934D01*
X0081581Y0102964D01*
X0081655Y0102990D01*
X0081731Y0103012D01*
X0081808Y0103031D01*
X0081886Y0103046D01*
X0081964Y0103057D01*
X0082043Y0103064D01*
X0082122Y0103067D01*
X0082201Y0103066D01*
X0082280Y0103061D01*
X0082359Y0103052D01*
X0082437Y0103039D01*
X0082514Y0103022D01*
X0082591Y0103002D01*
X0082666Y0102977D01*
X0082740Y0102949D01*
X0082813Y0102917D01*
X0082883Y0102882D01*
X0082952Y0102843D01*
X0083019Y0102800D01*
X0083084Y0102754D01*
X0083146Y0102706D01*
X0083206Y0102654D01*
X0083263Y0102599D01*
X0083317Y0102541D01*
X0083368Y0102481D01*
X0083416Y0102418D01*
X0083461Y0102353D01*
X0083503Y0102285D01*
X0083541Y0102216D01*
X0083575Y0102145D01*
X0083606Y0102072D01*
X0083634Y0101997D01*
X0083657Y0101922D01*
X0083677Y0101845D01*
X0083693Y0101768D01*
X0083705Y0101689D01*
X0083713Y0101611D01*
X0083717Y0101532D01*
X0083717Y0101452D01*
X0083713Y0101373D01*
X0083705Y0101295D01*
X0083693Y0101216D01*
X0083677Y0101139D01*
X0083657Y0101062D01*
X0083634Y0100987D01*
X0083606Y0100912D01*
X0083575Y0100839D01*
X0083541Y0100768D01*
X0083503Y0100699D01*
X0083461Y0100631D01*
X0083416Y0100566D01*
X0083368Y0100503D01*
X0083317Y0100443D01*
X0083263Y0100385D01*
X0083206Y0100330D01*
X0083146Y0100278D01*
X0083084Y0100230D01*
X0083019Y0100184D01*
X0082952Y0100141D01*
X0082883Y0100102D01*
X0082813Y0100067D01*
X0082740Y0100035D01*
X0082666Y0100007D01*
X0082591Y0099982D01*
X0082514Y0099962D01*
X0082437Y0099945D01*
X0082359Y0099932D01*
X0082280Y0099923D01*
X0082201Y0099918D01*
X0082122Y0099917D01*
X0082043Y0099920D01*
X0081964Y0099927D01*
X0081886Y0099938D01*
X0081808Y0099953D01*
X0081731Y0099972D01*
X0081655Y0099994D01*
X0081581Y0100020D01*
X0081507Y0100050D01*
X0081436Y0100084D01*
X0081366Y0100121D01*
X0081298Y0100162D01*
X0081232Y0100206D01*
X0081169Y0100254D01*
X0081108Y0100304D01*
X0081049Y0100358D01*
X0080994Y0100414D01*
X0080941Y0100473D01*
X0080891Y0100535D01*
X0080845Y0100599D01*
X0080802Y0100665D01*
X0080762Y0100733D01*
X0080725Y0100804D01*
X0080693Y0100876D01*
X0080663Y0100949D01*
X0080638Y0101024D01*
X0080616Y0101100D01*
X0080599Y0101177D01*
X0080585Y0101255D01*
X0080575Y0101334D01*
X0080569Y0101413D01*
X0080567Y0101492D01*
X0104779Y0125705D02*
X0104781Y0125784D01*
X0104787Y0125863D01*
X0104797Y0125942D01*
X0104811Y0126020D01*
X0104828Y0126097D01*
X0104850Y0126173D01*
X0104875Y0126248D01*
X0104905Y0126321D01*
X0104937Y0126393D01*
X0104974Y0126464D01*
X0105014Y0126532D01*
X0105057Y0126598D01*
X0105103Y0126662D01*
X0105153Y0126724D01*
X0105206Y0126783D01*
X0105261Y0126839D01*
X0105320Y0126893D01*
X0105381Y0126943D01*
X0105444Y0126991D01*
X0105510Y0127035D01*
X0105578Y0127076D01*
X0105648Y0127113D01*
X0105719Y0127147D01*
X0105793Y0127177D01*
X0105867Y0127203D01*
X0105943Y0127225D01*
X0106020Y0127244D01*
X0106098Y0127259D01*
X0106176Y0127270D01*
X0106255Y0127277D01*
X0106334Y0127280D01*
X0106413Y0127279D01*
X0106492Y0127274D01*
X0106571Y0127265D01*
X0106649Y0127252D01*
X0106726Y0127235D01*
X0106803Y0127215D01*
X0106878Y0127190D01*
X0106952Y0127162D01*
X0107025Y0127130D01*
X0107095Y0127095D01*
X0107164Y0127056D01*
X0107231Y0127013D01*
X0107296Y0126967D01*
X0107358Y0126919D01*
X0107418Y0126867D01*
X0107475Y0126812D01*
X0107529Y0126754D01*
X0107580Y0126694D01*
X0107628Y0126631D01*
X0107673Y0126566D01*
X0107715Y0126498D01*
X0107753Y0126429D01*
X0107787Y0126358D01*
X0107818Y0126285D01*
X0107846Y0126210D01*
X0107869Y0126135D01*
X0107889Y0126058D01*
X0107905Y0125981D01*
X0107917Y0125902D01*
X0107925Y0125824D01*
X0107929Y0125745D01*
X0107929Y0125665D01*
X0107925Y0125586D01*
X0107917Y0125508D01*
X0107905Y0125429D01*
X0107889Y0125352D01*
X0107869Y0125275D01*
X0107846Y0125200D01*
X0107818Y0125125D01*
X0107787Y0125052D01*
X0107753Y0124981D01*
X0107715Y0124912D01*
X0107673Y0124844D01*
X0107628Y0124779D01*
X0107580Y0124716D01*
X0107529Y0124656D01*
X0107475Y0124598D01*
X0107418Y0124543D01*
X0107358Y0124491D01*
X0107296Y0124443D01*
X0107231Y0124397D01*
X0107164Y0124354D01*
X0107095Y0124315D01*
X0107025Y0124280D01*
X0106952Y0124248D01*
X0106878Y0124220D01*
X0106803Y0124195D01*
X0106726Y0124175D01*
X0106649Y0124158D01*
X0106571Y0124145D01*
X0106492Y0124136D01*
X0106413Y0124131D01*
X0106334Y0124130D01*
X0106255Y0124133D01*
X0106176Y0124140D01*
X0106098Y0124151D01*
X0106020Y0124166D01*
X0105943Y0124185D01*
X0105867Y0124207D01*
X0105793Y0124233D01*
X0105719Y0124263D01*
X0105648Y0124297D01*
X0105578Y0124334D01*
X0105510Y0124375D01*
X0105444Y0124419D01*
X0105381Y0124467D01*
X0105320Y0124517D01*
X0105261Y0124571D01*
X0105206Y0124627D01*
X0105153Y0124686D01*
X0105103Y0124748D01*
X0105057Y0124812D01*
X0105014Y0124878D01*
X0104974Y0124946D01*
X0104937Y0125017D01*
X0104905Y0125089D01*
X0104875Y0125162D01*
X0104850Y0125237D01*
X0104828Y0125313D01*
X0104811Y0125390D01*
X0104797Y0125468D01*
X0104787Y0125547D01*
X0104781Y0125626D01*
X0104779Y0125705D01*
X0146701Y0160846D02*
X0146703Y0161004D01*
X0146709Y0161162D01*
X0146719Y0161320D01*
X0146733Y0161478D01*
X0146751Y0161635D01*
X0146772Y0161792D01*
X0146798Y0161948D01*
X0146828Y0162104D01*
X0146861Y0162259D01*
X0146899Y0162412D01*
X0146940Y0162565D01*
X0146985Y0162717D01*
X0147034Y0162868D01*
X0147087Y0163017D01*
X0147143Y0163165D01*
X0147203Y0163311D01*
X0147267Y0163456D01*
X0147335Y0163599D01*
X0147406Y0163741D01*
X0147480Y0163881D01*
X0147558Y0164018D01*
X0147640Y0164154D01*
X0147724Y0164288D01*
X0147813Y0164419D01*
X0147904Y0164548D01*
X0147999Y0164675D01*
X0148096Y0164800D01*
X0148197Y0164922D01*
X0148301Y0165041D01*
X0148408Y0165158D01*
X0148518Y0165272D01*
X0148631Y0165383D01*
X0148746Y0165492D01*
X0148864Y0165597D01*
X0148985Y0165699D01*
X0149108Y0165799D01*
X0149234Y0165895D01*
X0149362Y0165988D01*
X0149492Y0166078D01*
X0149625Y0166164D01*
X0149760Y0166248D01*
X0149896Y0166327D01*
X0150035Y0166404D01*
X0150176Y0166476D01*
X0150318Y0166546D01*
X0150462Y0166611D01*
X0150608Y0166673D01*
X0150755Y0166731D01*
X0150904Y0166786D01*
X0151054Y0166837D01*
X0151205Y0166884D01*
X0151357Y0166927D01*
X0151510Y0166966D01*
X0151665Y0167002D01*
X0151820Y0167033D01*
X0151976Y0167061D01*
X0152132Y0167085D01*
X0152289Y0167105D01*
X0152447Y0167121D01*
X0152604Y0167133D01*
X0152763Y0167141D01*
X0152921Y0167145D01*
X0153079Y0167145D01*
X0153237Y0167141D01*
X0153396Y0167133D01*
X0153553Y0167121D01*
X0153711Y0167105D01*
X0153868Y0167085D01*
X0154024Y0167061D01*
X0154180Y0167033D01*
X0154335Y0167002D01*
X0154490Y0166966D01*
X0154643Y0166927D01*
X0154795Y0166884D01*
X0154946Y0166837D01*
X0155096Y0166786D01*
X0155245Y0166731D01*
X0155392Y0166673D01*
X0155538Y0166611D01*
X0155682Y0166546D01*
X0155824Y0166476D01*
X0155965Y0166404D01*
X0156104Y0166327D01*
X0156240Y0166248D01*
X0156375Y0166164D01*
X0156508Y0166078D01*
X0156638Y0165988D01*
X0156766Y0165895D01*
X0156892Y0165799D01*
X0157015Y0165699D01*
X0157136Y0165597D01*
X0157254Y0165492D01*
X0157369Y0165383D01*
X0157482Y0165272D01*
X0157592Y0165158D01*
X0157699Y0165041D01*
X0157803Y0164922D01*
X0157904Y0164800D01*
X0158001Y0164675D01*
X0158096Y0164548D01*
X0158187Y0164419D01*
X0158276Y0164288D01*
X0158360Y0164154D01*
X0158442Y0164018D01*
X0158520Y0163881D01*
X0158594Y0163741D01*
X0158665Y0163599D01*
X0158733Y0163456D01*
X0158797Y0163311D01*
X0158857Y0163165D01*
X0158913Y0163017D01*
X0158966Y0162868D01*
X0159015Y0162717D01*
X0159060Y0162565D01*
X0159101Y0162412D01*
X0159139Y0162259D01*
X0159172Y0162104D01*
X0159202Y0161948D01*
X0159228Y0161792D01*
X0159249Y0161635D01*
X0159267Y0161478D01*
X0159281Y0161320D01*
X0159291Y0161162D01*
X0159297Y0161004D01*
X0159299Y0160846D01*
X0159297Y0160688D01*
X0159291Y0160530D01*
X0159281Y0160372D01*
X0159267Y0160214D01*
X0159249Y0160057D01*
X0159228Y0159900D01*
X0159202Y0159744D01*
X0159172Y0159588D01*
X0159139Y0159433D01*
X0159101Y0159280D01*
X0159060Y0159127D01*
X0159015Y0158975D01*
X0158966Y0158824D01*
X0158913Y0158675D01*
X0158857Y0158527D01*
X0158797Y0158381D01*
X0158733Y0158236D01*
X0158665Y0158093D01*
X0158594Y0157951D01*
X0158520Y0157811D01*
X0158442Y0157674D01*
X0158360Y0157538D01*
X0158276Y0157404D01*
X0158187Y0157273D01*
X0158096Y0157144D01*
X0158001Y0157017D01*
X0157904Y0156892D01*
X0157803Y0156770D01*
X0157699Y0156651D01*
X0157592Y0156534D01*
X0157482Y0156420D01*
X0157369Y0156309D01*
X0157254Y0156200D01*
X0157136Y0156095D01*
X0157015Y0155993D01*
X0156892Y0155893D01*
X0156766Y0155797D01*
X0156638Y0155704D01*
X0156508Y0155614D01*
X0156375Y0155528D01*
X0156240Y0155444D01*
X0156104Y0155365D01*
X0155965Y0155288D01*
X0155824Y0155216D01*
X0155682Y0155146D01*
X0155538Y0155081D01*
X0155392Y0155019D01*
X0155245Y0154961D01*
X0155096Y0154906D01*
X0154946Y0154855D01*
X0154795Y0154808D01*
X0154643Y0154765D01*
X0154490Y0154726D01*
X0154335Y0154690D01*
X0154180Y0154659D01*
X0154024Y0154631D01*
X0153868Y0154607D01*
X0153711Y0154587D01*
X0153553Y0154571D01*
X0153396Y0154559D01*
X0153237Y0154551D01*
X0153079Y0154547D01*
X0152921Y0154547D01*
X0152763Y0154551D01*
X0152604Y0154559D01*
X0152447Y0154571D01*
X0152289Y0154587D01*
X0152132Y0154607D01*
X0151976Y0154631D01*
X0151820Y0154659D01*
X0151665Y0154690D01*
X0151510Y0154726D01*
X0151357Y0154765D01*
X0151205Y0154808D01*
X0151054Y0154855D01*
X0150904Y0154906D01*
X0150755Y0154961D01*
X0150608Y0155019D01*
X0150462Y0155081D01*
X0150318Y0155146D01*
X0150176Y0155216D01*
X0150035Y0155288D01*
X0149896Y0155365D01*
X0149760Y0155444D01*
X0149625Y0155528D01*
X0149492Y0155614D01*
X0149362Y0155704D01*
X0149234Y0155797D01*
X0149108Y0155893D01*
X0148985Y0155993D01*
X0148864Y0156095D01*
X0148746Y0156200D01*
X0148631Y0156309D01*
X0148518Y0156420D01*
X0148408Y0156534D01*
X0148301Y0156651D01*
X0148197Y0156770D01*
X0148096Y0156892D01*
X0147999Y0157017D01*
X0147904Y0157144D01*
X0147813Y0157273D01*
X0147724Y0157404D01*
X0147640Y0157538D01*
X0147558Y0157674D01*
X0147480Y0157811D01*
X0147406Y0157951D01*
X0147335Y0158093D01*
X0147267Y0158236D01*
X0147203Y0158381D01*
X0147143Y0158527D01*
X0147087Y0158675D01*
X0147034Y0158824D01*
X0146985Y0158975D01*
X0146940Y0159127D01*
X0146899Y0159280D01*
X0146861Y0159433D01*
X0146828Y0159588D01*
X0146798Y0159744D01*
X0146772Y0159900D01*
X0146751Y0160057D01*
X0146733Y0160214D01*
X0146719Y0160372D01*
X0146709Y0160530D01*
X0146703Y0160688D01*
X0146701Y0160846D01*
X0021701Y0160846D02*
X0021703Y0161004D01*
X0021709Y0161162D01*
X0021719Y0161320D01*
X0021733Y0161478D01*
X0021751Y0161635D01*
X0021772Y0161792D01*
X0021798Y0161948D01*
X0021828Y0162104D01*
X0021861Y0162259D01*
X0021899Y0162412D01*
X0021940Y0162565D01*
X0021985Y0162717D01*
X0022034Y0162868D01*
X0022087Y0163017D01*
X0022143Y0163165D01*
X0022203Y0163311D01*
X0022267Y0163456D01*
X0022335Y0163599D01*
X0022406Y0163741D01*
X0022480Y0163881D01*
X0022558Y0164018D01*
X0022640Y0164154D01*
X0022724Y0164288D01*
X0022813Y0164419D01*
X0022904Y0164548D01*
X0022999Y0164675D01*
X0023096Y0164800D01*
X0023197Y0164922D01*
X0023301Y0165041D01*
X0023408Y0165158D01*
X0023518Y0165272D01*
X0023631Y0165383D01*
X0023746Y0165492D01*
X0023864Y0165597D01*
X0023985Y0165699D01*
X0024108Y0165799D01*
X0024234Y0165895D01*
X0024362Y0165988D01*
X0024492Y0166078D01*
X0024625Y0166164D01*
X0024760Y0166248D01*
X0024896Y0166327D01*
X0025035Y0166404D01*
X0025176Y0166476D01*
X0025318Y0166546D01*
X0025462Y0166611D01*
X0025608Y0166673D01*
X0025755Y0166731D01*
X0025904Y0166786D01*
X0026054Y0166837D01*
X0026205Y0166884D01*
X0026357Y0166927D01*
X0026510Y0166966D01*
X0026665Y0167002D01*
X0026820Y0167033D01*
X0026976Y0167061D01*
X0027132Y0167085D01*
X0027289Y0167105D01*
X0027447Y0167121D01*
X0027604Y0167133D01*
X0027763Y0167141D01*
X0027921Y0167145D01*
X0028079Y0167145D01*
X0028237Y0167141D01*
X0028396Y0167133D01*
X0028553Y0167121D01*
X0028711Y0167105D01*
X0028868Y0167085D01*
X0029024Y0167061D01*
X0029180Y0167033D01*
X0029335Y0167002D01*
X0029490Y0166966D01*
X0029643Y0166927D01*
X0029795Y0166884D01*
X0029946Y0166837D01*
X0030096Y0166786D01*
X0030245Y0166731D01*
X0030392Y0166673D01*
X0030538Y0166611D01*
X0030682Y0166546D01*
X0030824Y0166476D01*
X0030965Y0166404D01*
X0031104Y0166327D01*
X0031240Y0166248D01*
X0031375Y0166164D01*
X0031508Y0166078D01*
X0031638Y0165988D01*
X0031766Y0165895D01*
X0031892Y0165799D01*
X0032015Y0165699D01*
X0032136Y0165597D01*
X0032254Y0165492D01*
X0032369Y0165383D01*
X0032482Y0165272D01*
X0032592Y0165158D01*
X0032699Y0165041D01*
X0032803Y0164922D01*
X0032904Y0164800D01*
X0033001Y0164675D01*
X0033096Y0164548D01*
X0033187Y0164419D01*
X0033276Y0164288D01*
X0033360Y0164154D01*
X0033442Y0164018D01*
X0033520Y0163881D01*
X0033594Y0163741D01*
X0033665Y0163599D01*
X0033733Y0163456D01*
X0033797Y0163311D01*
X0033857Y0163165D01*
X0033913Y0163017D01*
X0033966Y0162868D01*
X0034015Y0162717D01*
X0034060Y0162565D01*
X0034101Y0162412D01*
X0034139Y0162259D01*
X0034172Y0162104D01*
X0034202Y0161948D01*
X0034228Y0161792D01*
X0034249Y0161635D01*
X0034267Y0161478D01*
X0034281Y0161320D01*
X0034291Y0161162D01*
X0034297Y0161004D01*
X0034299Y0160846D01*
X0034297Y0160688D01*
X0034291Y0160530D01*
X0034281Y0160372D01*
X0034267Y0160214D01*
X0034249Y0160057D01*
X0034228Y0159900D01*
X0034202Y0159744D01*
X0034172Y0159588D01*
X0034139Y0159433D01*
X0034101Y0159280D01*
X0034060Y0159127D01*
X0034015Y0158975D01*
X0033966Y0158824D01*
X0033913Y0158675D01*
X0033857Y0158527D01*
X0033797Y0158381D01*
X0033733Y0158236D01*
X0033665Y0158093D01*
X0033594Y0157951D01*
X0033520Y0157811D01*
X0033442Y0157674D01*
X0033360Y0157538D01*
X0033276Y0157404D01*
X0033187Y0157273D01*
X0033096Y0157144D01*
X0033001Y0157017D01*
X0032904Y0156892D01*
X0032803Y0156770D01*
X0032699Y0156651D01*
X0032592Y0156534D01*
X0032482Y0156420D01*
X0032369Y0156309D01*
X0032254Y0156200D01*
X0032136Y0156095D01*
X0032015Y0155993D01*
X0031892Y0155893D01*
X0031766Y0155797D01*
X0031638Y0155704D01*
X0031508Y0155614D01*
X0031375Y0155528D01*
X0031240Y0155444D01*
X0031104Y0155365D01*
X0030965Y0155288D01*
X0030824Y0155216D01*
X0030682Y0155146D01*
X0030538Y0155081D01*
X0030392Y0155019D01*
X0030245Y0154961D01*
X0030096Y0154906D01*
X0029946Y0154855D01*
X0029795Y0154808D01*
X0029643Y0154765D01*
X0029490Y0154726D01*
X0029335Y0154690D01*
X0029180Y0154659D01*
X0029024Y0154631D01*
X0028868Y0154607D01*
X0028711Y0154587D01*
X0028553Y0154571D01*
X0028396Y0154559D01*
X0028237Y0154551D01*
X0028079Y0154547D01*
X0027921Y0154547D01*
X0027763Y0154551D01*
X0027604Y0154559D01*
X0027447Y0154571D01*
X0027289Y0154587D01*
X0027132Y0154607D01*
X0026976Y0154631D01*
X0026820Y0154659D01*
X0026665Y0154690D01*
X0026510Y0154726D01*
X0026357Y0154765D01*
X0026205Y0154808D01*
X0026054Y0154855D01*
X0025904Y0154906D01*
X0025755Y0154961D01*
X0025608Y0155019D01*
X0025462Y0155081D01*
X0025318Y0155146D01*
X0025176Y0155216D01*
X0025035Y0155288D01*
X0024896Y0155365D01*
X0024760Y0155444D01*
X0024625Y0155528D01*
X0024492Y0155614D01*
X0024362Y0155704D01*
X0024234Y0155797D01*
X0024108Y0155893D01*
X0023985Y0155993D01*
X0023864Y0156095D01*
X0023746Y0156200D01*
X0023631Y0156309D01*
X0023518Y0156420D01*
X0023408Y0156534D01*
X0023301Y0156651D01*
X0023197Y0156770D01*
X0023096Y0156892D01*
X0022999Y0157017D01*
X0022904Y0157144D01*
X0022813Y0157273D01*
X0022724Y0157404D01*
X0022640Y0157538D01*
X0022558Y0157674D01*
X0022480Y0157811D01*
X0022406Y0157951D01*
X0022335Y0158093D01*
X0022267Y0158236D01*
X0022203Y0158381D01*
X0022143Y0158527D01*
X0022087Y0158675D01*
X0022034Y0158824D01*
X0021985Y0158975D01*
X0021940Y0159127D01*
X0021899Y0159280D01*
X0021861Y0159433D01*
X0021828Y0159588D01*
X0021798Y0159744D01*
X0021772Y0159900D01*
X0021751Y0160057D01*
X0021733Y0160214D01*
X0021719Y0160372D01*
X0021709Y0160530D01*
X0021703Y0160688D01*
X0021701Y0160846D01*
D12*
X0046500Y0129193D03*
X0046500Y0122500D03*
D13*
X0086000Y0058346D03*
X0093000Y0058346D03*
D14*
X0133441Y0054846D03*
X0138559Y0054846D03*
X0138559Y0061846D03*
X0133441Y0061846D03*
X0049059Y0061346D03*
X0043941Y0061346D03*
X0043941Y0066846D03*
X0049059Y0066846D03*
X0049059Y0054846D03*
X0043941Y0054846D03*
D15*
X0037929Y0048496D03*
X0037929Y0042197D03*
X0054071Y0042197D03*
X0054071Y0048496D03*
X0127429Y0048496D03*
X0127429Y0042197D03*
X0143571Y0042197D03*
X0143571Y0048496D03*
D16*
X0112717Y0075319D03*
X0104843Y0075319D03*
X0096969Y0075319D03*
X0089094Y0075319D03*
X0081220Y0075319D03*
X0073346Y0075319D03*
X0065472Y0075319D03*
X0057598Y0075319D03*
X0057598Y0134374D03*
X0065472Y0134374D03*
X0073346Y0134374D03*
X0081220Y0134374D03*
X0089094Y0134374D03*
X0096969Y0134374D03*
X0104843Y0134374D03*
X0112717Y0134374D03*
D17*
X0106000Y0152346D03*
X0096000Y0153346D03*
X0086000Y0152346D03*
X0023500Y0127846D03*
X0022500Y0117846D03*
X0023500Y0107846D03*
X0022500Y0097846D03*
X0023500Y0087846D03*
X0022500Y0077846D03*
X0157500Y0077846D03*
X0158500Y0087846D03*
X0157500Y0097846D03*
X0158500Y0107846D03*
X0157500Y0117846D03*
X0158500Y0127846D03*
D18*
X0076000Y0153346D03*
D19*
X0075760Y0044783D03*
X0083240Y0044783D03*
X0079500Y0036516D03*
X0095760Y0044783D03*
X0103240Y0044783D03*
X0099500Y0036516D03*
D20*
X0109000Y0039787D03*
X0109000Y0044906D03*
X0070500Y0044906D03*
X0070500Y0039787D03*
D21*
X0071559Y0040846D01*
X0079500Y0040846D01*
X0083240Y0044587D01*
X0083240Y0044783D01*
X0085700Y0050546D02*
X0090200Y0050546D01*
X0092000Y0048746D01*
X0092000Y0038546D01*
X0095760Y0044783D02*
X0095760Y0048587D01*
X0091500Y0052846D01*
X0088500Y0052846D01*
X0087500Y0053846D01*
X0084000Y0053846D01*
X0082500Y0052346D01*
X0079000Y0052346D01*
X0078500Y0052846D01*
X0080500Y0054846D01*
X0080500Y0062346D01*
X0077500Y0059446D02*
X0075760Y0057706D01*
X0075760Y0044783D01*
X0070500Y0044906D02*
X0070500Y0049346D01*
X0079500Y0036516D02*
X0059752Y0036516D01*
X0054071Y0042197D01*
X0043941Y0054846D02*
X0033500Y0054846D01*
X0043941Y0066846D02*
X0044000Y0066906D01*
X0044000Y0080846D01*
X0051000Y0074846D02*
X0057126Y0074846D01*
X0057126Y0074847D02*
X0057167Y0074849D01*
X0057208Y0074854D01*
X0057248Y0074863D01*
X0057287Y0074875D01*
X0057325Y0074891D01*
X0057362Y0074910D01*
X0057397Y0074932D01*
X0057429Y0074957D01*
X0057460Y0074985D01*
X0057488Y0075016D01*
X0057513Y0075048D01*
X0057535Y0075083D01*
X0057554Y0075120D01*
X0057570Y0075158D01*
X0057582Y0075197D01*
X0057591Y0075237D01*
X0057596Y0075278D01*
X0057598Y0075319D01*
X0057596Y0075278D01*
X0057591Y0075237D01*
X0057582Y0075197D01*
X0057570Y0075158D01*
X0057554Y0075120D01*
X0057535Y0075083D01*
X0057513Y0075048D01*
X0057488Y0075016D01*
X0057460Y0074985D01*
X0057429Y0074957D01*
X0057397Y0074932D01*
X0057362Y0074910D01*
X0057325Y0074891D01*
X0057287Y0074875D01*
X0057248Y0074863D01*
X0057208Y0074854D01*
X0057167Y0074849D01*
X0057126Y0074847D01*
X0059500Y0066846D02*
X0049059Y0066846D01*
X0065472Y0075319D02*
X0065472Y0083319D01*
X0075500Y0093346D01*
X0102000Y0093346D01*
X0105000Y0096346D01*
X0107000Y0096346D01*
X0107000Y0092846D02*
X0105000Y0090846D01*
X0077000Y0090846D01*
X0073346Y0087193D01*
X0073346Y0075319D01*
X0069500Y0069546D02*
X0069500Y0065346D01*
X0071000Y0063846D01*
X0081220Y0075319D02*
X0081220Y0081626D01*
X0078000Y0084846D01*
X0068000Y0089846D02*
X0074000Y0095846D01*
X0094000Y0095846D01*
X0100000Y0101846D01*
X0100000Y0125346D01*
X0104843Y0130189D01*
X0104843Y0134374D01*
X0097000Y0134343D02*
X0096969Y0134374D01*
X0096969Y0128315D01*
X0094000Y0125346D01*
X0079500Y0125346D01*
X0075000Y0120846D01*
X0075000Y0099346D01*
X0075500Y0098846D01*
X0072500Y0098346D02*
X0072500Y0122346D01*
X0077500Y0127346D01*
X0086500Y0127346D01*
X0089000Y0129846D01*
X0089000Y0134280D01*
X0089094Y0134374D01*
X0081220Y0134374D02*
X0081220Y0141526D01*
X0081200Y0141546D01*
X0077500Y0144346D02*
X0106000Y0144346D01*
X0106000Y0152346D01*
X0106000Y0144346D02*
X0137000Y0144346D01*
X0153500Y0127846D01*
X0158500Y0127846D01*
X0147500Y0130846D02*
X0147500Y0123846D01*
X0147500Y0130846D02*
X0140500Y0137846D01*
X0130500Y0137846D01*
X0112717Y0134374D02*
X0112717Y0088130D01*
X0120000Y0080846D01*
X0120000Y0072846D01*
X0112717Y0075319D02*
X0112717Y0066063D01*
X0110400Y0064246D01*
X0105000Y0060846D02*
X0105000Y0075161D01*
X0104843Y0075319D01*
X0097000Y0075350D02*
X0096969Y0075319D01*
X0097000Y0075350D02*
X0097000Y0079846D01*
X0094500Y0082346D01*
X0094500Y0083346D01*
X0089094Y0075319D02*
X0089094Y0069752D01*
X0093000Y0065846D01*
X0097000Y0065846D01*
X0100000Y0062846D01*
X0100000Y0056346D01*
X0104500Y0051846D01*
X0119000Y0051846D01*
X0120000Y0048846D02*
X0115000Y0048846D01*
X0113000Y0046846D01*
X0113000Y0035846D01*
X0110500Y0033346D01*
X0102669Y0033346D01*
X0099500Y0036516D01*
X0103240Y0044783D02*
X0108878Y0044783D01*
X0109000Y0044906D01*
X0108441Y0040346D02*
X0109000Y0039787D01*
X0120000Y0048846D02*
X0122500Y0051346D01*
X0122500Y0054846D01*
X0122000Y0054846D01*
X0120000Y0056846D01*
X0120000Y0058846D01*
X0122500Y0054846D02*
X0133441Y0054846D01*
X0133441Y0061846D02*
X0125000Y0061846D01*
X0138500Y0061906D02*
X0138559Y0061846D01*
X0093000Y0058346D02*
X0089500Y0061846D01*
X0089500Y0062346D01*
X0068000Y0089846D02*
X0025500Y0089846D01*
X0023500Y0087846D01*
X0022500Y0097846D02*
X0035500Y0097846D01*
X0041000Y0103346D01*
X0041500Y0103346D01*
X0035500Y0097846D02*
X0041000Y0092346D01*
X0066500Y0092346D01*
X0072500Y0098346D01*
X0067000Y0098846D02*
X0060200Y0098846D01*
X0056500Y0095146D01*
X0058500Y0107846D02*
X0023500Y0107846D01*
X0055500Y0134346D02*
X0057571Y0134346D01*
X0057598Y0134374D01*
X0065472Y0134374D02*
X0065472Y0114819D01*
X0058500Y0107846D01*
X0073346Y0134374D02*
X0073500Y0134528D01*
X0073500Y0140346D01*
X0077500Y0144346D01*
X0091000Y0122346D02*
X0085000Y0116346D01*
D22*
X0017632Y0026190D02*
X0020166Y0023012D01*
X0023344Y0020478D01*
X0027005Y0018715D01*
X0030968Y0017811D01*
X0033000Y0017696D01*
X0148000Y0017696D01*
X0150032Y0017811D01*
X0153995Y0018715D01*
X0157656Y0020478D01*
X0160834Y0023012D01*
X0163368Y0026190D01*
X0165131Y0029852D01*
X0166036Y0033814D01*
X0166150Y0035846D01*
X0166150Y0155846D01*
X0166036Y0157879D01*
X0165131Y0161841D01*
X0163368Y0165503D01*
X0160834Y0168680D01*
X0157656Y0171214D01*
X0153995Y0172978D01*
X0150032Y0173882D01*
X0148000Y0173996D01*
X0033000Y0173996D01*
X0030968Y0173882D01*
X0027005Y0172978D01*
X0023344Y0171214D01*
X0020166Y0168680D01*
X0017632Y0165503D01*
X0015869Y0161841D01*
X0014964Y0157879D01*
X0014850Y0155846D01*
X0014850Y0035846D01*
X0014964Y0033814D01*
X0015869Y0029852D01*
X0017632Y0026190D01*
X0017225Y0027036D02*
X0020812Y0027036D01*
X0021134Y0026259D02*
X0019901Y0029235D01*
X0019901Y0032457D01*
X0021134Y0035434D01*
X0023412Y0037713D01*
X0026389Y0038946D01*
X0029600Y0038946D01*
X0029600Y0040352D01*
X0020465Y0049487D01*
X0020100Y0050369D01*
X0020100Y0073104D01*
X0019498Y0073353D01*
X0018007Y0074844D01*
X0017200Y0076792D01*
X0017200Y0078901D01*
X0018007Y0080849D01*
X0019498Y0082340D01*
X0021222Y0083054D01*
X0020498Y0083353D01*
X0019007Y0084844D01*
X0018200Y0086792D01*
X0018200Y0088901D01*
X0019007Y0090849D01*
X0020498Y0092340D01*
X0021222Y0092639D01*
X0019498Y0093353D01*
X0018007Y0094844D01*
X0017200Y0096792D01*
X0017200Y0098901D01*
X0018007Y0100849D01*
X0019498Y0102340D01*
X0021222Y0103054D01*
X0020498Y0103353D01*
X0019007Y0104844D01*
X0018200Y0106792D01*
X0018200Y0108901D01*
X0019007Y0110849D01*
X0020498Y0112340D01*
X0021222Y0112639D01*
X0019498Y0113353D01*
X0018007Y0114844D01*
X0017200Y0116792D01*
X0017200Y0118901D01*
X0018007Y0120849D01*
X0019498Y0122340D01*
X0020984Y0122955D01*
X0020617Y0123142D01*
X0019917Y0123651D01*
X0019305Y0124263D01*
X0018796Y0124964D01*
X0018403Y0125735D01*
X0018135Y0126559D01*
X0018000Y0127414D01*
X0018000Y0127646D01*
X0023300Y0127646D01*
X0023300Y0128046D01*
X0018000Y0128046D01*
X0018000Y0128279D01*
X0018135Y0129134D01*
X0018403Y0129958D01*
X0018796Y0130729D01*
X0019305Y0131429D01*
X0019917Y0132042D01*
X0020617Y0132550D01*
X0021389Y0132943D01*
X0022212Y0133211D01*
X0023067Y0133346D01*
X0023300Y0133346D01*
X0023300Y0128047D01*
X0023700Y0128047D01*
X0023700Y0133346D01*
X0023933Y0133346D01*
X0024788Y0133211D01*
X0025611Y0132943D01*
X0026383Y0132550D01*
X0027083Y0132042D01*
X0027695Y0131429D01*
X0028204Y0130729D01*
X0028597Y0129958D01*
X0028865Y0129134D01*
X0029000Y0128279D01*
X0029000Y0128046D01*
X0023700Y0128046D01*
X0023700Y0127646D01*
X0029000Y0127646D01*
X0029000Y0127414D01*
X0028865Y0126559D01*
X0028597Y0125735D01*
X0028204Y0124964D01*
X0027695Y0124263D01*
X0027083Y0123651D01*
X0026383Y0123142D01*
X0025611Y0122749D01*
X0024996Y0122549D01*
X0025502Y0122340D01*
X0026993Y0120849D01*
X0027800Y0118901D01*
X0027800Y0116792D01*
X0026993Y0114844D01*
X0025502Y0113353D01*
X0024778Y0113054D01*
X0026502Y0112340D01*
X0027993Y0110849D01*
X0028325Y0110046D01*
X0057589Y0110046D01*
X0063272Y0115730D01*
X0063272Y0128837D01*
X0062447Y0128837D01*
X0061535Y0129749D01*
X0060623Y0128837D01*
X0056233Y0128837D01*
X0055699Y0128303D01*
X0054597Y0127846D01*
X0053403Y0127846D01*
X0052301Y0128303D01*
X0051457Y0129147D01*
X0051000Y0130250D01*
X0051000Y0131443D01*
X0051208Y0131946D01*
X0050068Y0131946D01*
X0050068Y0126365D01*
X0049692Y0125988D01*
X0049909Y0125771D01*
X0050146Y0125360D01*
X0050268Y0124902D01*
X0050268Y0122684D01*
X0046684Y0122684D01*
X0046684Y0122316D01*
X0046684Y0118535D01*
X0048705Y0118535D01*
X0049163Y0118657D01*
X0049574Y0118894D01*
X0049909Y0119229D01*
X0050146Y0119640D01*
X0050268Y0120098D01*
X0050268Y0122316D01*
X0046684Y0122316D01*
X0046316Y0122316D01*
X0046316Y0118535D01*
X0044295Y0118535D01*
X0043837Y0118657D01*
X0043426Y0118894D01*
X0043091Y0119229D01*
X0042854Y0119640D01*
X0042731Y0120098D01*
X0042731Y0122316D01*
X0046316Y0122316D01*
X0046316Y0122684D01*
X0042731Y0122684D01*
X0042731Y0124902D01*
X0042854Y0125360D01*
X0043091Y0125771D01*
X0043308Y0125988D01*
X0042931Y0126365D01*
X0042931Y0132021D01*
X0043869Y0132958D01*
X0044100Y0132958D01*
X0044100Y0133324D01*
X0044465Y0134206D01*
X0045141Y0134881D01*
X0046641Y0136381D01*
X0047523Y0136746D01*
X0053636Y0136746D01*
X0053636Y0138974D01*
X0054573Y0139911D01*
X0055100Y0139911D01*
X0055100Y0148824D01*
X0055465Y0149706D01*
X0056141Y0150381D01*
X0061141Y0155381D01*
X0062023Y0155746D01*
X0070700Y0155746D01*
X0070700Y0157709D01*
X0071637Y0158646D01*
X0080363Y0158646D01*
X0081300Y0157709D01*
X0081300Y0155235D01*
X0081805Y0155929D01*
X0082417Y0156542D01*
X0083117Y0157050D01*
X0083889Y0157443D01*
X0084712Y0157711D01*
X0085567Y0157846D01*
X0085800Y0157846D01*
X0085800Y0152547D01*
X0086200Y0152547D01*
X0086200Y0157846D01*
X0086433Y0157846D01*
X0087288Y0157711D01*
X0088111Y0157443D01*
X0088883Y0157050D01*
X0089583Y0156542D01*
X0090195Y0155929D01*
X0090704Y0155229D01*
X0090891Y0154862D01*
X0091507Y0156349D01*
X0092998Y0157840D01*
X0094946Y0158646D01*
X0097054Y0158646D01*
X0099002Y0157840D01*
X0100493Y0156349D01*
X0101207Y0154625D01*
X0101507Y0155349D01*
X0102998Y0156840D01*
X0104946Y0157646D01*
X0107054Y0157646D01*
X0109002Y0156840D01*
X0110493Y0155349D01*
X0111300Y0153401D01*
X0111300Y0151292D01*
X0110493Y0149344D01*
X0109002Y0147853D01*
X0108200Y0147521D01*
X0108200Y0146546D01*
X0137911Y0146546D01*
X0153890Y0130567D01*
X0154007Y0130849D01*
X0155498Y0132340D01*
X0157446Y0133146D01*
X0159554Y0133146D01*
X0161502Y0132340D01*
X0162993Y0130849D01*
X0163800Y0128901D01*
X0163800Y0126792D01*
X0162993Y0124844D01*
X0161502Y0123353D01*
X0159778Y0122639D01*
X0160502Y0122340D01*
X0161993Y0120849D01*
X0162800Y0118901D01*
X0162800Y0116792D01*
X0161993Y0114844D01*
X0160502Y0113353D01*
X0159778Y0113054D01*
X0161502Y0112340D01*
X0162993Y0110849D01*
X0163800Y0108901D01*
X0163800Y0106792D01*
X0162993Y0104844D01*
X0161502Y0103353D01*
X0159778Y0102639D01*
X0160502Y0102340D01*
X0161993Y0100849D01*
X0162800Y0098901D01*
X0162800Y0096792D01*
X0161993Y0094844D01*
X0160502Y0093353D01*
X0159778Y0093054D01*
X0161502Y0092340D01*
X0162993Y0090849D01*
X0163800Y0088901D01*
X0163800Y0086792D01*
X0162993Y0084844D01*
X0161502Y0083353D01*
X0159778Y0082639D01*
X0160502Y0082340D01*
X0161993Y0080849D01*
X0162800Y0078901D01*
X0162800Y0076792D01*
X0161993Y0074844D01*
X0160502Y0073353D01*
X0159900Y0073104D01*
X0159900Y0072869D01*
X0159535Y0071987D01*
X0158859Y0071312D01*
X0158859Y0071312D01*
X0154535Y0066987D01*
X0154535Y0066987D01*
X0153859Y0066312D01*
X0152977Y0065946D01*
X0142112Y0065946D01*
X0140992Y0064826D01*
X0141537Y0064281D01*
X0141537Y0059412D01*
X0140959Y0058834D01*
X0140959Y0057859D01*
X0141537Y0057281D01*
X0141537Y0057246D01*
X0154477Y0057246D01*
X0155359Y0056881D01*
X0156035Y0056206D01*
X0157859Y0054381D01*
X0157859Y0054381D01*
X0158535Y0053706D01*
X0158900Y0052824D01*
X0158900Y0045369D01*
X0158535Y0044487D01*
X0157859Y0043812D01*
X0152993Y0038946D01*
X0154611Y0038946D01*
X0157588Y0037713D01*
X0159866Y0035434D01*
X0161099Y0032457D01*
X0161099Y0029235D01*
X0159866Y0026259D01*
X0157588Y0023980D01*
X0154611Y0022747D01*
X0151389Y0022747D01*
X0148412Y0023980D01*
X0146134Y0026259D01*
X0144901Y0029235D01*
X0144901Y0032457D01*
X0145103Y0032946D01*
X0141994Y0032946D01*
X0139900Y0030852D01*
X0139900Y0028189D01*
X0140500Y0027589D01*
X0140500Y0025104D01*
X0138743Y0023346D01*
X0136257Y0023346D01*
X0134500Y0025104D01*
X0134500Y0027589D01*
X0135100Y0028189D01*
X0135100Y0032324D01*
X0135465Y0033206D01*
X0138965Y0036706D01*
X0139641Y0037381D01*
X0140523Y0037746D01*
X0145006Y0037746D01*
X0145888Y0038628D01*
X0141136Y0038628D01*
X0140199Y0039566D01*
X0140199Y0039797D01*
X0130801Y0039797D01*
X0130801Y0039566D01*
X0129864Y0038628D01*
X0124995Y0038628D01*
X0124057Y0039566D01*
X0124057Y0044828D01*
X0124434Y0045205D01*
X0124217Y0045422D01*
X0123980Y0045833D01*
X0123857Y0046291D01*
X0123857Y0048410D01*
X0127343Y0048410D01*
X0127343Y0048582D01*
X0123857Y0048582D01*
X0123857Y0049593D01*
X0123411Y0049146D01*
X0120911Y0046646D01*
X0119443Y0046646D01*
X0119500Y0046589D01*
X0119500Y0044104D01*
X0118900Y0043504D01*
X0118900Y0033369D01*
X0118535Y0032487D01*
X0107535Y0021487D01*
X0106859Y0020812D01*
X0105977Y0020446D01*
X0041523Y0020446D01*
X0040641Y0020812D01*
X0036965Y0024487D01*
X0036600Y0025369D01*
X0036600Y0030352D01*
X0036099Y0030853D01*
X0036099Y0029235D01*
X0034866Y0026259D01*
X0032588Y0023980D01*
X0029611Y0022747D01*
X0026389Y0022747D01*
X0023412Y0023980D01*
X0021134Y0026259D01*
X0021955Y0025438D02*
X0018232Y0025438D01*
X0019507Y0023839D02*
X0023753Y0023839D01*
X0021134Y0022241D02*
X0039212Y0022241D01*
X0037613Y0023839D02*
X0032247Y0023839D01*
X0034045Y0025438D02*
X0036600Y0025438D01*
X0036600Y0027036D02*
X0035188Y0027036D01*
X0035850Y0028635D02*
X0036600Y0028635D01*
X0036600Y0030233D02*
X0036099Y0030233D01*
X0039000Y0031346D02*
X0039000Y0025846D01*
X0042000Y0022846D01*
X0105500Y0022846D01*
X0116500Y0033846D01*
X0116500Y0045346D01*
X0118900Y0043021D02*
X0124057Y0043021D01*
X0124057Y0041423D02*
X0118900Y0041423D01*
X0118900Y0039824D02*
X0124057Y0039824D01*
X0127429Y0042197D02*
X0133441Y0048209D01*
X0133441Y0054846D01*
X0136000Y0051993D02*
X0135841Y0051834D01*
X0135841Y0047731D01*
X0135476Y0046849D01*
X0134800Y0046174D01*
X0133223Y0044597D01*
X0140199Y0044597D01*
X0140199Y0044828D01*
X0140576Y0045205D01*
X0140359Y0045422D01*
X0140122Y0045833D01*
X0139999Y0046291D01*
X0139999Y0048410D01*
X0143485Y0048410D01*
X0143485Y0048582D01*
X0143485Y0052265D01*
X0141562Y0052265D01*
X0141326Y0052201D01*
X0141537Y0052412D01*
X0141537Y0052446D01*
X0153006Y0052446D01*
X0154100Y0051352D01*
X0154100Y0046841D01*
X0146943Y0039683D01*
X0146943Y0044828D01*
X0146566Y0045205D01*
X0146783Y0045422D01*
X0147020Y0045833D01*
X0147143Y0046291D01*
X0147143Y0048410D01*
X0143657Y0048410D01*
X0143657Y0048582D01*
X0147143Y0048582D01*
X0147143Y0050702D01*
X0147020Y0051159D01*
X0146783Y0051570D01*
X0146448Y0051905D01*
X0146037Y0052142D01*
X0145579Y0052265D01*
X0143657Y0052265D01*
X0143657Y0048582D01*
X0143485Y0048582D01*
X0139999Y0048582D01*
X0139999Y0050702D01*
X0140122Y0051159D01*
X0140304Y0051475D01*
X0136518Y0051475D01*
X0136000Y0051993D01*
X0135841Y0051014D02*
X0140083Y0051014D01*
X0139999Y0049415D02*
X0135841Y0049415D01*
X0135841Y0047817D02*
X0139999Y0047817D01*
X0140019Y0046218D02*
X0134845Y0046218D01*
X0133246Y0044620D02*
X0140199Y0044620D01*
X0143571Y0042197D02*
X0127429Y0042197D01*
X0124057Y0044620D02*
X0119500Y0044620D01*
X0119500Y0046218D02*
X0123877Y0046218D01*
X0123857Y0047817D02*
X0122081Y0047817D01*
X0123680Y0049415D02*
X0123857Y0049415D01*
X0124700Y0051990D02*
X0124700Y0052646D01*
X0130463Y0052646D01*
X0130463Y0052412D01*
X0131041Y0051834D01*
X0131041Y0049203D01*
X0131001Y0049163D01*
X0131001Y0050702D01*
X0130878Y0051159D01*
X0130641Y0051570D01*
X0130306Y0051905D01*
X0129896Y0052142D01*
X0129438Y0052265D01*
X0127515Y0052265D01*
X0127515Y0048582D01*
X0127343Y0048582D01*
X0127343Y0052265D01*
X0125420Y0052265D01*
X0124963Y0052142D01*
X0124700Y0051990D01*
X0124700Y0052612D02*
X0130463Y0052612D01*
X0130917Y0051014D02*
X0131041Y0051014D01*
X0131001Y0049415D02*
X0131041Y0049415D01*
X0127515Y0049415D02*
X0127343Y0049415D01*
X0127343Y0051014D02*
X0127515Y0051014D01*
X0130463Y0057046D02*
X0122911Y0057046D01*
X0122536Y0057422D01*
X0122800Y0057687D01*
X0122800Y0060006D01*
X0121160Y0061646D01*
X0118840Y0061646D01*
X0117200Y0060006D01*
X0117200Y0057687D01*
X0117800Y0057087D01*
X0117800Y0055935D01*
X0119089Y0054646D01*
X0117840Y0054646D01*
X0117240Y0054046D01*
X0105411Y0054046D01*
X0102200Y0057258D01*
X0102200Y0063758D01*
X0100911Y0065046D01*
X0097911Y0068046D01*
X0093911Y0068046D01*
X0092148Y0069810D01*
X0093031Y0070694D01*
X0093944Y0069782D01*
X0099993Y0069782D01*
X0100905Y0070694D01*
X0101818Y0069782D01*
X0102800Y0069782D01*
X0102800Y0062606D01*
X0102200Y0062006D01*
X0102200Y0059687D01*
X0103840Y0058046D01*
X0106160Y0058046D01*
X0107800Y0059687D01*
X0107800Y0062006D01*
X0107200Y0062606D01*
X0107200Y0069782D01*
X0107867Y0069782D01*
X0108780Y0070694D01*
X0109692Y0069782D01*
X0110517Y0069782D01*
X0110517Y0067134D01*
X0110405Y0067046D01*
X0109240Y0067046D01*
X0107600Y0065406D01*
X0107600Y0063087D01*
X0109240Y0061446D01*
X0111560Y0061446D01*
X0113200Y0063087D01*
X0113200Y0063646D01*
X0113476Y0063863D01*
X0113628Y0063863D01*
X0114178Y0064414D01*
X0114791Y0064894D01*
X0114809Y0065045D01*
X0114917Y0065152D01*
X0114917Y0065346D01*
X0117243Y0065346D01*
X0117843Y0065946D01*
X0135006Y0065946D01*
X0136126Y0064826D01*
X0136000Y0064700D01*
X0135482Y0065218D01*
X0131400Y0065218D01*
X0130463Y0064281D01*
X0130463Y0064046D01*
X0126760Y0064046D01*
X0126160Y0064646D01*
X0123840Y0064646D01*
X0122200Y0063006D01*
X0122200Y0060687D01*
X0123840Y0059046D01*
X0126160Y0059046D01*
X0126760Y0059646D01*
X0130463Y0059646D01*
X0130463Y0059412D01*
X0131400Y0058475D01*
X0135482Y0058475D01*
X0136000Y0058993D01*
X0136159Y0058834D01*
X0136159Y0057859D01*
X0136000Y0057700D01*
X0135482Y0058218D01*
X0131400Y0058218D01*
X0130463Y0057281D01*
X0130463Y0057046D01*
X0130590Y0057408D02*
X0122550Y0057408D01*
X0122800Y0059006D02*
X0130869Y0059006D01*
X0135552Y0065400D02*
X0117296Y0065400D01*
X0116000Y0068346D02*
X0136000Y0068346D01*
X0138559Y0065787D01*
X0141118Y0068346D01*
X0152500Y0068346D01*
X0157500Y0073346D01*
X0157500Y0077846D01*
X0161456Y0081385D02*
X0166150Y0081385D01*
X0166150Y0079787D02*
X0162433Y0079787D01*
X0162800Y0078188D02*
X0166150Y0078188D01*
X0166150Y0076590D02*
X0162716Y0076590D01*
X0162054Y0074991D02*
X0166150Y0074991D01*
X0166150Y0073393D02*
X0160542Y0073393D01*
X0159342Y0071794D02*
X0166150Y0071794D01*
X0166150Y0070196D02*
X0157743Y0070196D01*
X0156145Y0068597D02*
X0166150Y0068597D01*
X0166150Y0066999D02*
X0154546Y0066999D01*
X0151506Y0070746D02*
X0140641Y0070746D01*
X0139759Y0070381D01*
X0139083Y0069706D01*
X0138559Y0069181D01*
X0137359Y0070381D01*
X0136477Y0070746D01*
X0121860Y0070746D01*
X0122800Y0071687D01*
X0122800Y0072550D01*
X0146512Y0072550D01*
X0146981Y0073019D01*
X0146981Y0131254D01*
X0151300Y0126935D01*
X0152589Y0125646D01*
X0153675Y0125646D01*
X0154007Y0124844D01*
X0155498Y0123353D01*
X0156222Y0123054D01*
X0154498Y0122340D01*
X0153007Y0120849D01*
X0152200Y0118901D01*
X0152200Y0116792D01*
X0153007Y0114844D01*
X0154498Y0113353D01*
X0156222Y0112639D01*
X0155498Y0112340D01*
X0154007Y0110849D01*
X0153200Y0108901D01*
X0153200Y0106792D01*
X0154007Y0104844D01*
X0155498Y0103353D01*
X0156222Y0103054D01*
X0154498Y0102340D01*
X0153007Y0100849D01*
X0152200Y0098901D01*
X0152200Y0096792D01*
X0153007Y0094844D01*
X0154498Y0093353D01*
X0156222Y0092639D01*
X0155498Y0092340D01*
X0154007Y0090849D01*
X0153200Y0088901D01*
X0153200Y0086792D01*
X0154007Y0084844D01*
X0155498Y0083353D01*
X0156222Y0083054D01*
X0154498Y0082340D01*
X0153007Y0080849D01*
X0152200Y0078901D01*
X0152200Y0076792D01*
X0153007Y0074844D01*
X0154305Y0073546D01*
X0151506Y0070746D01*
X0152554Y0071794D02*
X0122800Y0071794D01*
X0118140Y0070746D02*
X0117843Y0070746D01*
X0117243Y0071346D01*
X0116679Y0071346D01*
X0116679Y0079919D01*
X0115741Y0080856D01*
X0109692Y0080856D01*
X0108780Y0079944D01*
X0107867Y0080856D01*
X0101818Y0080856D01*
X0100905Y0079944D01*
X0099993Y0080856D01*
X0099102Y0080856D01*
X0097911Y0082046D01*
X0097300Y0082658D01*
X0097300Y0084506D01*
X0095660Y0086146D01*
X0093340Y0086146D01*
X0091700Y0084506D01*
X0091700Y0082187D01*
X0092300Y0081587D01*
X0092300Y0081435D01*
X0093411Y0080324D01*
X0093031Y0079944D01*
X0092119Y0080856D01*
X0086070Y0080856D01*
X0085157Y0079944D01*
X0084245Y0080856D01*
X0083420Y0080856D01*
X0083420Y0082537D01*
X0082132Y0083826D01*
X0080800Y0085158D01*
X0080800Y0086006D01*
X0079160Y0087646D01*
X0076911Y0087646D01*
X0077911Y0088646D01*
X0105911Y0088646D01*
X0107311Y0090046D01*
X0108160Y0090046D01*
X0109800Y0091687D01*
X0109800Y0094006D01*
X0109210Y0094596D01*
X0109800Y0095187D01*
X0109800Y0097506D01*
X0108160Y0099146D01*
X0105840Y0099146D01*
X0105240Y0098546D01*
X0104089Y0098546D01*
X0102800Y0097258D01*
X0101089Y0095546D01*
X0096811Y0095546D01*
X0102200Y0100935D01*
X0102200Y0124435D01*
X0102980Y0125215D01*
X0102980Y0125033D01*
X0103493Y0123793D01*
X0104443Y0122844D01*
X0105683Y0122330D01*
X0107026Y0122330D01*
X0108266Y0122844D01*
X0109215Y0123793D01*
X0109729Y0125033D01*
X0109729Y0126376D01*
X0109215Y0127616D01*
X0108266Y0128566D01*
X0107611Y0128837D01*
X0107867Y0128837D01*
X0108780Y0129749D01*
X0109692Y0128837D01*
X0110517Y0128837D01*
X0110517Y0087219D01*
X0117800Y0079935D01*
X0117800Y0074606D01*
X0117200Y0074006D01*
X0117200Y0071687D01*
X0118140Y0070746D01*
X0117200Y0071794D02*
X0116679Y0071794D01*
X0116679Y0073393D02*
X0117200Y0073393D01*
X0116679Y0074991D02*
X0117800Y0074991D01*
X0117800Y0076590D02*
X0116679Y0076590D01*
X0116679Y0078188D02*
X0117800Y0078188D01*
X0117800Y0079787D02*
X0116679Y0079787D01*
X0116350Y0081385D02*
X0098572Y0081385D01*
X0097300Y0082984D02*
X0114751Y0082984D01*
X0113153Y0084582D02*
X0097224Y0084582D01*
X0091776Y0084582D02*
X0081375Y0084582D01*
X0080625Y0086181D02*
X0111554Y0086181D01*
X0110517Y0087779D02*
X0077044Y0087779D01*
X0071146Y0085882D02*
X0071146Y0080856D01*
X0070322Y0080856D01*
X0069409Y0079944D01*
X0068497Y0080856D01*
X0067672Y0080856D01*
X0067672Y0082408D01*
X0071146Y0085882D01*
X0071146Y0084582D02*
X0069847Y0084582D01*
X0071146Y0082984D02*
X0068249Y0082984D01*
X0067672Y0081385D02*
X0071146Y0081385D01*
X0065223Y0086181D02*
X0028547Y0086181D01*
X0028800Y0086792D02*
X0028800Y0087646D01*
X0066689Y0087646D01*
X0063272Y0084230D01*
X0063272Y0080856D01*
X0062447Y0080856D01*
X0061603Y0080011D01*
X0061401Y0080361D01*
X0061066Y0080696D01*
X0060655Y0080933D01*
X0060198Y0081056D01*
X0057980Y0081056D01*
X0057980Y0075700D01*
X0057217Y0075700D01*
X0057217Y0074938D01*
X0053436Y0074938D01*
X0053436Y0071145D01*
X0053559Y0070687D01*
X0053796Y0070277D01*
X0054131Y0069942D01*
X0054541Y0069705D01*
X0054999Y0069582D01*
X0057217Y0069582D01*
X0057217Y0074938D01*
X0057980Y0074938D01*
X0057980Y0069582D01*
X0058787Y0069582D01*
X0057914Y0069220D01*
X0057740Y0069046D01*
X0052037Y0069046D01*
X0052037Y0069281D01*
X0051100Y0070218D01*
X0047018Y0070218D01*
X0046500Y0069700D01*
X0046200Y0070000D01*
X0046200Y0079087D01*
X0046374Y0079260D01*
X0046800Y0080289D01*
X0046800Y0081403D01*
X0046374Y0082433D01*
X0045586Y0083220D01*
X0044557Y0083646D01*
X0043443Y0083646D01*
X0042414Y0083220D01*
X0041626Y0082433D01*
X0041200Y0081403D01*
X0041200Y0080289D01*
X0041626Y0079260D01*
X0041800Y0079087D01*
X0041800Y0070118D01*
X0040963Y0069281D01*
X0040963Y0064412D01*
X0041137Y0064238D01*
X0041123Y0064223D01*
X0040886Y0063813D01*
X0040763Y0063355D01*
X0040763Y0061347D01*
X0043941Y0061347D01*
X0043941Y0061346D01*
X0040763Y0061346D01*
X0040763Y0059338D01*
X0040886Y0058880D01*
X0041123Y0058470D01*
X0041458Y0058134D01*
X0041685Y0058003D01*
X0040963Y0057281D01*
X0040963Y0057046D01*
X0035260Y0057046D01*
X0034660Y0057646D01*
X0032340Y0057646D01*
X0030700Y0056006D01*
X0030700Y0053687D01*
X0032340Y0052046D01*
X0034660Y0052046D01*
X0035260Y0052646D01*
X0040963Y0052646D01*
X0040963Y0052412D01*
X0041541Y0051834D01*
X0041541Y0049203D01*
X0041501Y0049163D01*
X0041501Y0050702D01*
X0041378Y0051159D01*
X0041141Y0051570D01*
X0040806Y0051905D01*
X0040396Y0052142D01*
X0039938Y0052265D01*
X0038015Y0052265D01*
X0038015Y0048582D01*
X0037843Y0048582D01*
X0037843Y0048410D01*
X0034357Y0048410D01*
X0034357Y0046291D01*
X0034480Y0045833D01*
X0034717Y0045422D01*
X0034934Y0045205D01*
X0034557Y0044828D01*
X0034557Y0039566D01*
X0035495Y0038628D01*
X0040364Y0038628D01*
X0041301Y0039566D01*
X0041301Y0039797D01*
X0050699Y0039797D01*
X0050699Y0039566D01*
X0051636Y0038628D01*
X0054528Y0038628D01*
X0058841Y0034316D01*
X0076325Y0034316D01*
X0076325Y0034081D01*
X0077262Y0033144D01*
X0080515Y0033144D01*
X0080052Y0032952D01*
X0079075Y0031975D01*
X0078546Y0030699D01*
X0078546Y0029317D01*
X0079075Y0028040D01*
X0080052Y0027063D01*
X0081329Y0026535D01*
X0082711Y0026535D01*
X0083987Y0027063D01*
X0084964Y0028040D01*
X0085493Y0029317D01*
X0085493Y0030699D01*
X0084964Y0031975D01*
X0083987Y0032952D01*
X0082711Y0033481D01*
X0082075Y0033481D01*
X0082675Y0034081D01*
X0082675Y0038950D01*
X0081738Y0039887D01*
X0081652Y0039887D01*
X0081700Y0039935D01*
X0081700Y0039935D01*
X0083177Y0041412D01*
X0085478Y0041412D01*
X0086415Y0042349D01*
X0086415Y0043962D01*
X0086900Y0043477D01*
X0086900Y0035477D01*
X0088130Y0034246D01*
X0089630Y0032746D01*
X0094370Y0032746D01*
X0095600Y0033977D01*
X0096325Y0034702D01*
X0096325Y0034081D01*
X0096925Y0033481D01*
X0096289Y0033481D01*
X0095013Y0032952D01*
X0094036Y0031975D01*
X0093507Y0030699D01*
X0093507Y0029317D01*
X0094036Y0028040D01*
X0095013Y0027063D01*
X0096289Y0026535D01*
X0097671Y0026535D01*
X0098948Y0027063D01*
X0099925Y0028040D01*
X0100454Y0029317D01*
X0100454Y0030699D01*
X0099925Y0031975D01*
X0098948Y0032952D01*
X0098485Y0033144D01*
X0099760Y0033144D01*
X0100469Y0032435D01*
X0101758Y0031146D01*
X0110406Y0031146D01*
X0104506Y0025246D01*
X0042994Y0025246D01*
X0041400Y0026841D01*
X0041400Y0031824D01*
X0041035Y0032706D01*
X0040359Y0033381D01*
X0034400Y0039341D01*
X0034400Y0041824D01*
X0034035Y0042706D01*
X0033359Y0043381D01*
X0024900Y0051841D01*
X0024900Y0073104D01*
X0025502Y0073353D01*
X0026993Y0074844D01*
X0027800Y0076792D01*
X0027800Y0078901D01*
X0026993Y0080849D01*
X0025502Y0082340D01*
X0024778Y0082639D01*
X0026502Y0083353D01*
X0027993Y0084844D01*
X0028800Y0086792D01*
X0027731Y0084582D02*
X0063625Y0084582D01*
X0063272Y0082984D02*
X0045822Y0082984D01*
X0046800Y0081385D02*
X0063272Y0081385D01*
X0057980Y0079787D02*
X0057217Y0079787D01*
X0057217Y0081056D02*
X0054999Y0081056D01*
X0054541Y0080933D01*
X0054131Y0080696D01*
X0053796Y0080361D01*
X0053559Y0079951D01*
X0053436Y0079493D01*
X0053436Y0075700D01*
X0057217Y0075700D01*
X0057217Y0081056D01*
X0057217Y0078188D02*
X0057980Y0078188D01*
X0057980Y0076590D02*
X0057217Y0076590D01*
X0057217Y0074991D02*
X0046200Y0074991D01*
X0046200Y0073393D02*
X0053436Y0073393D01*
X0053436Y0071794D02*
X0046200Y0071794D01*
X0046200Y0070196D02*
X0046996Y0070196D01*
X0051122Y0070196D02*
X0053877Y0070196D01*
X0057217Y0070196D02*
X0057980Y0070196D01*
X0057980Y0071794D02*
X0057217Y0071794D01*
X0057217Y0073393D02*
X0057980Y0073393D01*
X0060207Y0069584D02*
X0060655Y0069705D01*
X0061066Y0069942D01*
X0061401Y0070277D01*
X0061603Y0070626D01*
X0062447Y0069782D01*
X0063072Y0069782D01*
X0063072Y0064813D01*
X0062006Y0063746D01*
X0052037Y0063746D01*
X0052037Y0063781D01*
X0051721Y0064096D01*
X0052037Y0064412D01*
X0052037Y0064646D01*
X0057740Y0064646D01*
X0057914Y0064473D01*
X0058943Y0064046D01*
X0060057Y0064046D01*
X0061086Y0064473D01*
X0061874Y0065260D01*
X0062300Y0066289D01*
X0062300Y0067403D01*
X0061874Y0068433D01*
X0061086Y0069220D01*
X0060207Y0069584D01*
X0061320Y0070196D02*
X0062034Y0070196D01*
X0061709Y0068597D02*
X0063072Y0068597D01*
X0063072Y0066999D02*
X0062300Y0066999D01*
X0061932Y0065400D02*
X0063072Y0065400D01*
X0062061Y0063802D02*
X0052016Y0063802D01*
X0049059Y0061346D02*
X0063000Y0061346D01*
X0065472Y0063819D01*
X0065472Y0075319D01*
X0067872Y0069782D02*
X0068497Y0069782D01*
X0069409Y0070694D01*
X0070322Y0069782D01*
X0076371Y0069782D01*
X0077283Y0070694D01*
X0078196Y0069782D01*
X0084245Y0069782D01*
X0085157Y0070694D01*
X0086070Y0069782D01*
X0086894Y0069782D01*
X0086894Y0068841D01*
X0090589Y0065146D01*
X0088340Y0065146D01*
X0087255Y0064061D01*
X0085100Y0066216D01*
X0083870Y0067446D01*
X0077130Y0067446D01*
X0066630Y0056946D01*
X0052037Y0056946D01*
X0052037Y0057281D01*
X0051221Y0058096D01*
X0052037Y0058912D01*
X0052037Y0058946D01*
X0063477Y0058946D01*
X0064359Y0059312D01*
X0065035Y0059987D01*
X0067507Y0062459D01*
X0067872Y0063341D01*
X0067872Y0069782D01*
X0068911Y0070196D02*
X0069908Y0070196D01*
X0067872Y0068597D02*
X0087138Y0068597D01*
X0085656Y0070196D02*
X0084659Y0070196D01*
X0084317Y0066999D02*
X0088736Y0066999D01*
X0090335Y0065400D02*
X0085916Y0065400D01*
X0092160Y0063646D02*
X0096089Y0063646D01*
X0097800Y0061935D01*
X0097800Y0055435D01*
X0102300Y0050935D01*
X0103589Y0049646D01*
X0112689Y0049646D01*
X0110926Y0047883D01*
X0106566Y0047883D01*
X0106157Y0047475D01*
X0105478Y0048155D01*
X0101003Y0048155D01*
X0100065Y0047218D01*
X0100065Y0042446D01*
X0098935Y0042446D01*
X0098935Y0047218D01*
X0097997Y0048155D01*
X0097960Y0048155D01*
X0097960Y0049498D01*
X0093700Y0053758D01*
X0092711Y0054746D01*
X0095663Y0054746D01*
X0096600Y0055684D01*
X0096600Y0061009D01*
X0095663Y0061946D01*
X0092511Y0061946D01*
X0092300Y0062158D01*
X0092300Y0063506D01*
X0092160Y0063646D01*
X0092300Y0062203D02*
X0097532Y0062203D01*
X0097800Y0060605D02*
X0096600Y0060605D01*
X0096600Y0059006D02*
X0097800Y0059006D01*
X0097800Y0057408D02*
X0096600Y0057408D01*
X0096600Y0055809D02*
X0097800Y0055809D01*
X0099024Y0054211D02*
X0093247Y0054211D01*
X0094845Y0052612D02*
X0100623Y0052612D01*
X0102221Y0051014D02*
X0096444Y0051014D01*
X0097960Y0049415D02*
X0112457Y0049415D01*
X0117404Y0054211D02*
X0105247Y0054211D01*
X0103648Y0055809D02*
X0117926Y0055809D01*
X0119089Y0054646D02*
X0119089Y0054646D01*
X0117479Y0057408D02*
X0102200Y0057408D01*
X0102200Y0059006D02*
X0102880Y0059006D01*
X0102200Y0060605D02*
X0102200Y0060605D01*
X0102200Y0062203D02*
X0102397Y0062203D01*
X0102156Y0063802D02*
X0102800Y0063802D01*
X0102800Y0065400D02*
X0100557Y0065400D01*
X0098959Y0066999D02*
X0102800Y0066999D01*
X0102800Y0068597D02*
X0093360Y0068597D01*
X0093530Y0070196D02*
X0092533Y0070196D01*
X0100407Y0070196D02*
X0101404Y0070196D01*
X0107200Y0068597D02*
X0110517Y0068597D01*
X0109278Y0070196D02*
X0108281Y0070196D01*
X0109193Y0066999D02*
X0107200Y0066999D01*
X0107200Y0065400D02*
X0107600Y0065400D01*
X0107600Y0063802D02*
X0107200Y0063802D01*
X0107603Y0062203D02*
X0108483Y0062203D01*
X0107800Y0060605D02*
X0117799Y0060605D01*
X0117200Y0059006D02*
X0107120Y0059006D01*
X0112317Y0062203D02*
X0122200Y0062203D01*
X0122201Y0060605D02*
X0122282Y0060605D01*
X0122996Y0063802D02*
X0113398Y0063802D01*
X0106499Y0047817D02*
X0105816Y0047817D01*
X0100664Y0047817D02*
X0098336Y0047817D01*
X0098935Y0046218D02*
X0100065Y0046218D01*
X0100065Y0044620D02*
X0098935Y0044620D01*
X0098935Y0043021D02*
X0100065Y0043021D01*
X0096166Y0033430D02*
X0095053Y0033430D01*
X0093976Y0031832D02*
X0085024Y0031832D01*
X0085493Y0030233D02*
X0093507Y0030233D01*
X0093790Y0028635D02*
X0085210Y0028635D01*
X0083921Y0027036D02*
X0095079Y0027036D01*
X0098882Y0027036D02*
X0106295Y0027036D01*
X0104697Y0025438D02*
X0042803Y0025438D01*
X0041400Y0027036D02*
X0080118Y0027036D01*
X0078829Y0028635D02*
X0041400Y0028635D01*
X0041400Y0030233D02*
X0078546Y0030233D01*
X0079016Y0031832D02*
X0041397Y0031832D01*
X0040310Y0033430D02*
X0076976Y0033430D01*
X0082834Y0033430D02*
X0088947Y0033430D01*
X0087348Y0035029D02*
X0082675Y0035029D01*
X0082675Y0036627D02*
X0086900Y0036627D01*
X0086900Y0038226D02*
X0082675Y0038226D01*
X0081801Y0039824D02*
X0086900Y0039824D01*
X0086900Y0041423D02*
X0085489Y0041423D01*
X0086415Y0043021D02*
X0086900Y0043021D01*
X0099984Y0031832D02*
X0101073Y0031832D01*
X0100454Y0030233D02*
X0109493Y0030233D01*
X0107894Y0028635D02*
X0100171Y0028635D01*
X0106449Y0020642D02*
X0157862Y0020642D01*
X0159866Y0022241D02*
X0108288Y0022241D01*
X0109887Y0023839D02*
X0135765Y0023839D01*
X0134500Y0025438D02*
X0111485Y0025438D01*
X0113084Y0027036D02*
X0134500Y0027036D01*
X0135100Y0028635D02*
X0114682Y0028635D01*
X0116281Y0030233D02*
X0135100Y0030233D01*
X0135100Y0031832D02*
X0117879Y0031832D01*
X0118900Y0033430D02*
X0135690Y0033430D01*
X0137288Y0035029D02*
X0118900Y0035029D01*
X0118900Y0036627D02*
X0138887Y0036627D01*
X0141000Y0035346D02*
X0146000Y0035346D01*
X0156500Y0045846D01*
X0156500Y0052346D01*
X0154000Y0054846D01*
X0138559Y0054846D01*
X0138559Y0061846D01*
X0138559Y0065787D01*
X0141566Y0065400D02*
X0166150Y0065400D01*
X0166150Y0063802D02*
X0141537Y0063802D01*
X0141537Y0062203D02*
X0166150Y0062203D01*
X0166150Y0060605D02*
X0141537Y0060605D01*
X0141131Y0059006D02*
X0166150Y0059006D01*
X0166150Y0057408D02*
X0141410Y0057408D01*
X0143485Y0051014D02*
X0143657Y0051014D01*
X0143657Y0049415D02*
X0143485Y0049415D01*
X0147143Y0049415D02*
X0154100Y0049415D01*
X0154100Y0047817D02*
X0147143Y0047817D01*
X0147123Y0046218D02*
X0153478Y0046218D01*
X0151879Y0044620D02*
X0146943Y0044620D01*
X0146943Y0043021D02*
X0150281Y0043021D01*
X0148682Y0041423D02*
X0146943Y0041423D01*
X0146943Y0039824D02*
X0147084Y0039824D01*
X0145485Y0038226D02*
X0118900Y0038226D01*
X0137500Y0031846D02*
X0137500Y0026346D01*
X0139235Y0023839D02*
X0148753Y0023839D01*
X0146955Y0025438D02*
X0140500Y0025438D01*
X0140500Y0027036D02*
X0145812Y0027036D01*
X0145150Y0028635D02*
X0139900Y0028635D01*
X0139900Y0030233D02*
X0144901Y0030233D01*
X0144901Y0031832D02*
X0140879Y0031832D01*
X0137500Y0031846D02*
X0141000Y0035346D01*
X0153872Y0039824D02*
X0166150Y0039824D01*
X0166150Y0038226D02*
X0156349Y0038226D01*
X0158673Y0036627D02*
X0166150Y0036627D01*
X0166104Y0035029D02*
X0160034Y0035029D01*
X0160696Y0033430D02*
X0165948Y0033430D01*
X0165583Y0031832D02*
X0161099Y0031832D01*
X0161099Y0030233D02*
X0165218Y0030233D01*
X0164545Y0028635D02*
X0160850Y0028635D01*
X0160188Y0027036D02*
X0163775Y0027036D01*
X0162768Y0025438D02*
X0159045Y0025438D01*
X0157247Y0023839D02*
X0161493Y0023839D01*
X0154677Y0019043D02*
X0026323Y0019043D01*
X0023138Y0020642D02*
X0041051Y0020642D01*
X0039000Y0031346D02*
X0032000Y0038346D01*
X0032000Y0041346D01*
X0022500Y0050846D01*
X0022500Y0077846D01*
X0027433Y0079787D02*
X0041408Y0079787D01*
X0041200Y0081385D02*
X0026456Y0081385D01*
X0025610Y0082984D02*
X0042178Y0082984D01*
X0046592Y0079787D02*
X0053515Y0079787D01*
X0053436Y0078188D02*
X0046200Y0078188D01*
X0046200Y0076590D02*
X0053436Y0076590D01*
X0041800Y0076590D02*
X0027716Y0076590D01*
X0027800Y0078188D02*
X0041800Y0078188D01*
X0041800Y0074991D02*
X0027054Y0074991D01*
X0025542Y0073393D02*
X0041800Y0073393D01*
X0041800Y0071794D02*
X0024900Y0071794D01*
X0024900Y0070196D02*
X0041800Y0070196D01*
X0040963Y0068597D02*
X0024900Y0068597D01*
X0024900Y0066999D02*
X0040963Y0066999D01*
X0040963Y0065400D02*
X0024900Y0065400D01*
X0024900Y0063802D02*
X0040883Y0063802D01*
X0040763Y0062203D02*
X0024900Y0062203D01*
X0024900Y0060605D02*
X0040763Y0060605D01*
X0040852Y0059006D02*
X0024900Y0059006D01*
X0024900Y0057408D02*
X0032102Y0057408D01*
X0030700Y0055809D02*
X0024900Y0055809D01*
X0024900Y0054211D02*
X0030700Y0054211D01*
X0031774Y0052612D02*
X0024900Y0052612D01*
X0025727Y0051014D02*
X0034441Y0051014D01*
X0034480Y0051159D02*
X0034357Y0050702D01*
X0034357Y0048582D01*
X0037843Y0048582D01*
X0037843Y0052265D01*
X0035920Y0052265D01*
X0035463Y0052142D01*
X0035052Y0051905D01*
X0034717Y0051570D01*
X0034480Y0051159D01*
X0035226Y0052612D02*
X0040963Y0052612D01*
X0041417Y0051014D02*
X0041541Y0051014D01*
X0041501Y0049415D02*
X0041541Y0049415D01*
X0043941Y0048209D02*
X0043941Y0054846D01*
X0046500Y0051993D02*
X0046341Y0051834D01*
X0046341Y0047731D01*
X0045976Y0046849D01*
X0045300Y0046174D01*
X0043723Y0044597D01*
X0050699Y0044597D01*
X0050699Y0044828D01*
X0051076Y0045205D01*
X0050859Y0045422D01*
X0050622Y0045833D01*
X0050499Y0046291D01*
X0050499Y0048410D01*
X0053985Y0048410D01*
X0053985Y0048582D01*
X0053985Y0052265D01*
X0052062Y0052265D01*
X0051826Y0052201D01*
X0052037Y0052412D01*
X0052037Y0052746D01*
X0068370Y0052746D01*
X0069600Y0053977D01*
X0073560Y0057936D01*
X0073560Y0048155D01*
X0073522Y0048155D01*
X0073093Y0047725D01*
X0072934Y0047883D01*
X0072925Y0047883D01*
X0073300Y0048789D01*
X0073300Y0049903D01*
X0072874Y0050933D01*
X0072086Y0051720D01*
X0071057Y0052146D01*
X0069943Y0052146D01*
X0068914Y0051720D01*
X0068126Y0050933D01*
X0067700Y0049903D01*
X0067700Y0048789D01*
X0068075Y0047883D01*
X0068066Y0047883D01*
X0067128Y0046946D01*
X0067128Y0042865D01*
X0067647Y0042346D01*
X0067128Y0041828D01*
X0067128Y0038716D01*
X0060663Y0038716D01*
X0057443Y0041936D01*
X0057443Y0044828D01*
X0057066Y0045205D01*
X0057283Y0045422D01*
X0057520Y0045833D01*
X0057643Y0046291D01*
X0057643Y0048410D01*
X0054157Y0048410D01*
X0054157Y0048582D01*
X0057643Y0048582D01*
X0057643Y0050702D01*
X0057520Y0051159D01*
X0057283Y0051570D01*
X0056948Y0051905D01*
X0056537Y0052142D01*
X0056079Y0052265D01*
X0054157Y0052265D01*
X0054157Y0048582D01*
X0053985Y0048582D01*
X0050499Y0048582D01*
X0050499Y0050702D01*
X0050622Y0051159D01*
X0050804Y0051475D01*
X0047018Y0051475D01*
X0046500Y0051993D01*
X0046341Y0051014D02*
X0050583Y0051014D01*
X0050499Y0049415D02*
X0046341Y0049415D01*
X0046341Y0047817D02*
X0050499Y0047817D01*
X0050519Y0046218D02*
X0045345Y0046218D01*
X0043746Y0044620D02*
X0050699Y0044620D01*
X0054071Y0042197D02*
X0037929Y0042197D01*
X0043941Y0048209D01*
X0038015Y0049415D02*
X0037843Y0049415D01*
X0037843Y0051014D02*
X0038015Y0051014D01*
X0034357Y0049415D02*
X0027325Y0049415D01*
X0028924Y0047817D02*
X0034357Y0047817D01*
X0034377Y0046218D02*
X0030522Y0046218D01*
X0032121Y0044620D02*
X0034557Y0044620D01*
X0034557Y0043021D02*
X0033719Y0043021D01*
X0034400Y0041423D02*
X0034557Y0041423D01*
X0034557Y0039824D02*
X0034400Y0039824D01*
X0035515Y0038226D02*
X0054931Y0038226D01*
X0056529Y0036627D02*
X0037113Y0036627D01*
X0038712Y0035029D02*
X0058128Y0035029D01*
X0059555Y0039824D02*
X0067128Y0039824D01*
X0067128Y0041423D02*
X0057956Y0041423D01*
X0057443Y0043021D02*
X0067128Y0043021D01*
X0067128Y0044620D02*
X0057443Y0044620D01*
X0057623Y0046218D02*
X0067128Y0046218D01*
X0067999Y0047817D02*
X0057643Y0047817D01*
X0057643Y0049415D02*
X0067700Y0049415D01*
X0068207Y0051014D02*
X0057559Y0051014D01*
X0054157Y0051014D02*
X0053985Y0051014D01*
X0053985Y0049415D02*
X0054157Y0049415D01*
X0052037Y0052612D02*
X0073560Y0052612D01*
X0073560Y0051014D02*
X0072793Y0051014D01*
X0073300Y0049415D02*
X0073560Y0049415D01*
X0073184Y0047817D02*
X0073001Y0047817D01*
X0073560Y0054211D02*
X0069834Y0054211D01*
X0071433Y0055809D02*
X0073560Y0055809D01*
X0073560Y0057408D02*
X0073031Y0057408D01*
X0070288Y0060605D02*
X0065652Y0060605D01*
X0067251Y0062203D02*
X0071887Y0062203D01*
X0073485Y0063802D02*
X0067872Y0063802D01*
X0067872Y0065400D02*
X0075084Y0065400D01*
X0076683Y0066999D02*
X0067872Y0066999D01*
X0068690Y0059006D02*
X0063622Y0059006D01*
X0067091Y0057408D02*
X0051910Y0057408D01*
X0041090Y0057408D02*
X0034898Y0057408D01*
X0023734Y0046218D02*
X0014850Y0046218D01*
X0014850Y0044620D02*
X0025333Y0044620D01*
X0026931Y0043021D02*
X0014850Y0043021D01*
X0014850Y0041423D02*
X0028530Y0041423D01*
X0029600Y0039824D02*
X0014850Y0039824D01*
X0014850Y0038226D02*
X0024651Y0038226D01*
X0022327Y0036627D02*
X0014850Y0036627D01*
X0014896Y0035029D02*
X0020966Y0035029D01*
X0020304Y0033430D02*
X0015052Y0033430D01*
X0015417Y0031832D02*
X0019901Y0031832D01*
X0019901Y0030233D02*
X0015782Y0030233D01*
X0016455Y0028635D02*
X0020150Y0028635D01*
X0022136Y0047817D02*
X0014850Y0047817D01*
X0014850Y0049415D02*
X0020537Y0049415D01*
X0020100Y0051014D02*
X0014850Y0051014D01*
X0014850Y0052612D02*
X0020100Y0052612D01*
X0020100Y0054211D02*
X0014850Y0054211D01*
X0014850Y0055809D02*
X0020100Y0055809D01*
X0020100Y0057408D02*
X0014850Y0057408D01*
X0014850Y0059006D02*
X0020100Y0059006D01*
X0020100Y0060605D02*
X0014850Y0060605D01*
X0014850Y0062203D02*
X0020100Y0062203D01*
X0020100Y0063802D02*
X0014850Y0063802D01*
X0014850Y0065400D02*
X0020100Y0065400D01*
X0020100Y0066999D02*
X0014850Y0066999D01*
X0014850Y0068597D02*
X0020100Y0068597D01*
X0020100Y0070196D02*
X0014850Y0070196D01*
X0014850Y0071794D02*
X0020100Y0071794D01*
X0019458Y0073393D02*
X0014850Y0073393D01*
X0014850Y0074991D02*
X0017946Y0074991D01*
X0017284Y0076590D02*
X0014850Y0076590D01*
X0014850Y0078188D02*
X0017200Y0078188D01*
X0017567Y0079787D02*
X0014850Y0079787D01*
X0014850Y0081385D02*
X0018544Y0081385D01*
X0021053Y0082984D02*
X0014850Y0082984D01*
X0014850Y0084582D02*
X0019269Y0084582D01*
X0018453Y0086181D02*
X0014850Y0086181D01*
X0014850Y0087779D02*
X0018200Y0087779D01*
X0018398Y0089378D02*
X0014850Y0089378D01*
X0014850Y0090976D02*
X0019135Y0090976D01*
X0021066Y0092575D02*
X0014850Y0092575D01*
X0014850Y0094174D02*
X0018678Y0094174D01*
X0017623Y0095772D02*
X0014850Y0095772D01*
X0014850Y0097371D02*
X0017200Y0097371D01*
X0017228Y0098969D02*
X0014850Y0098969D01*
X0014850Y0100568D02*
X0017890Y0100568D01*
X0019324Y0102166D02*
X0014850Y0102166D01*
X0014850Y0103765D02*
X0020087Y0103765D01*
X0018792Y0105363D02*
X0014850Y0105363D01*
X0014850Y0106962D02*
X0018200Y0106962D01*
X0018200Y0108560D02*
X0014850Y0108560D01*
X0014850Y0110159D02*
X0018721Y0110159D01*
X0019915Y0111757D02*
X0014850Y0111757D01*
X0014850Y0113356D02*
X0019495Y0113356D01*
X0017961Y0114954D02*
X0014850Y0114954D01*
X0014850Y0116553D02*
X0017299Y0116553D01*
X0017200Y0118151D02*
X0014850Y0118151D01*
X0014850Y0119750D02*
X0017552Y0119750D01*
X0018506Y0121348D02*
X0014850Y0121348D01*
X0014850Y0122947D02*
X0020964Y0122947D01*
X0019100Y0124545D02*
X0014850Y0124545D01*
X0014850Y0126144D02*
X0018270Y0126144D01*
X0018202Y0129341D02*
X0014850Y0129341D01*
X0014850Y0130939D02*
X0018949Y0130939D01*
X0020600Y0132538D02*
X0014850Y0132538D01*
X0014850Y0134136D02*
X0044437Y0134136D01*
X0043448Y0132538D02*
X0026400Y0132538D01*
X0028051Y0130939D02*
X0042931Y0130939D01*
X0042931Y0129341D02*
X0028798Y0129341D01*
X0028730Y0126144D02*
X0043153Y0126144D01*
X0042931Y0127742D02*
X0023700Y0127742D01*
X0023300Y0127742D02*
X0014850Y0127742D01*
X0014850Y0135735D02*
X0045994Y0135735D01*
X0048000Y0134346D02*
X0046500Y0132846D01*
X0046500Y0129193D01*
X0050068Y0129341D02*
X0051376Y0129341D01*
X0051000Y0130939D02*
X0050068Y0130939D01*
X0050068Y0127742D02*
X0063272Y0127742D01*
X0063272Y0126144D02*
X0049847Y0126144D01*
X0050268Y0124545D02*
X0063272Y0124545D01*
X0063272Y0122947D02*
X0050268Y0122947D01*
X0050268Y0121348D02*
X0063272Y0121348D01*
X0063272Y0119750D02*
X0050175Y0119750D01*
X0046684Y0119750D02*
X0046316Y0119750D01*
X0046316Y0121348D02*
X0046684Y0121348D01*
X0042731Y0121348D02*
X0026494Y0121348D01*
X0025998Y0122947D02*
X0042731Y0122947D01*
X0042731Y0124545D02*
X0027900Y0124545D01*
X0027448Y0119750D02*
X0042825Y0119750D01*
X0054000Y0130846D02*
X0054000Y0132846D01*
X0055500Y0134346D01*
X0048000Y0134346D01*
X0053636Y0137333D02*
X0014850Y0137333D01*
X0014850Y0138932D02*
X0053636Y0138932D01*
X0055100Y0140530D02*
X0014850Y0140530D01*
X0014850Y0142129D02*
X0055100Y0142129D01*
X0055100Y0143727D02*
X0014850Y0143727D01*
X0014850Y0145326D02*
X0055100Y0145326D01*
X0055100Y0146924D02*
X0014850Y0146924D01*
X0014850Y0148523D02*
X0055100Y0148523D01*
X0055881Y0150121D02*
X0014850Y0150121D01*
X0014850Y0151720D02*
X0057479Y0151720D01*
X0059078Y0153318D02*
X0030990Y0153318D01*
X0029611Y0152747D02*
X0032588Y0153980D01*
X0034866Y0156259D01*
X0036099Y0159235D01*
X0036099Y0162457D01*
X0034866Y0165434D01*
X0032588Y0167713D01*
X0029611Y0168946D01*
X0026389Y0168946D01*
X0023412Y0167713D01*
X0021134Y0165434D01*
X0019901Y0162457D01*
X0019901Y0159235D01*
X0021134Y0156259D01*
X0023412Y0153980D01*
X0026389Y0152747D01*
X0029611Y0152747D01*
X0033524Y0154917D02*
X0060676Y0154917D01*
X0062500Y0153346D02*
X0057500Y0148346D01*
X0057500Y0134472D01*
X0057598Y0134374D01*
X0061535Y0138999D02*
X0060623Y0139911D01*
X0059900Y0139911D01*
X0059900Y0147352D01*
X0063494Y0150946D01*
X0070700Y0150946D01*
X0070700Y0148984D01*
X0071637Y0148046D01*
X0080363Y0148046D01*
X0081300Y0148984D01*
X0081300Y0149458D01*
X0081805Y0148763D01*
X0082417Y0148151D01*
X0083117Y0147642D01*
X0083889Y0147249D01*
X0084712Y0146982D01*
X0085567Y0146846D01*
X0085800Y0146846D01*
X0085800Y0152146D01*
X0086200Y0152146D01*
X0086200Y0146846D01*
X0086433Y0146846D01*
X0087288Y0146982D01*
X0088111Y0147249D01*
X0088883Y0147642D01*
X0089583Y0148151D01*
X0090195Y0148763D01*
X0090704Y0149464D01*
X0091097Y0150235D01*
X0091297Y0150851D01*
X0091507Y0150344D01*
X0092998Y0148853D01*
X0094946Y0148046D01*
X0097054Y0148046D01*
X0099002Y0148853D01*
X0100493Y0150344D01*
X0100793Y0151068D01*
X0101507Y0149344D01*
X0102998Y0147853D01*
X0103800Y0147521D01*
X0103800Y0146546D01*
X0076589Y0146546D01*
X0075300Y0145258D01*
X0071300Y0141258D01*
X0071300Y0139911D01*
X0070322Y0139911D01*
X0069409Y0138999D01*
X0068497Y0139911D01*
X0062447Y0139911D01*
X0061535Y0138999D01*
X0059900Y0140530D02*
X0071300Y0140530D01*
X0072171Y0142129D02*
X0059900Y0142129D01*
X0059900Y0143727D02*
X0073770Y0143727D01*
X0075368Y0145326D02*
X0059900Y0145326D01*
X0059900Y0146924D02*
X0085075Y0146924D01*
X0085800Y0146924D02*
X0086200Y0146924D01*
X0086925Y0146924D02*
X0103800Y0146924D01*
X0102328Y0148523D02*
X0098204Y0148523D01*
X0100270Y0150121D02*
X0101185Y0150121D01*
X0101086Y0154917D02*
X0101328Y0154917D01*
X0100326Y0156515D02*
X0102674Y0156515D01*
X0098340Y0158114D02*
X0145365Y0158114D01*
X0144901Y0159235D02*
X0146134Y0156259D01*
X0148412Y0153980D01*
X0151389Y0152747D01*
X0154611Y0152747D01*
X0157588Y0153980D01*
X0159866Y0156259D01*
X0161099Y0159235D01*
X0161099Y0162457D01*
X0159866Y0165434D01*
X0157588Y0167713D01*
X0154611Y0168946D01*
X0151389Y0168946D01*
X0148412Y0167713D01*
X0146134Y0165434D01*
X0144901Y0162457D01*
X0144901Y0159235D01*
X0144901Y0159712D02*
X0036099Y0159712D01*
X0036099Y0161311D02*
X0144901Y0161311D01*
X0145088Y0162909D02*
X0035912Y0162909D01*
X0035250Y0164508D02*
X0145750Y0164508D01*
X0146806Y0166107D02*
X0034194Y0166107D01*
X0032595Y0167705D02*
X0148405Y0167705D01*
X0154986Y0172501D02*
X0026014Y0172501D01*
X0022952Y0170902D02*
X0158048Y0170902D01*
X0160053Y0169304D02*
X0020947Y0169304D01*
X0019388Y0167705D02*
X0023405Y0167705D01*
X0021806Y0166107D02*
X0018113Y0166107D01*
X0017153Y0164508D02*
X0020750Y0164508D01*
X0020088Y0162909D02*
X0016383Y0162909D01*
X0015748Y0161311D02*
X0019901Y0161311D01*
X0019901Y0159712D02*
X0015383Y0159712D01*
X0015018Y0158114D02*
X0020365Y0158114D01*
X0021027Y0156515D02*
X0014888Y0156515D01*
X0014850Y0154917D02*
X0022475Y0154917D01*
X0025010Y0153318D02*
X0014850Y0153318D01*
X0023300Y0132538D02*
X0023700Y0132538D01*
X0023700Y0130939D02*
X0023300Y0130939D01*
X0023300Y0129341D02*
X0023700Y0129341D01*
X0027800Y0118151D02*
X0063272Y0118151D01*
X0063272Y0116553D02*
X0027701Y0116553D01*
X0027039Y0114954D02*
X0062496Y0114954D01*
X0060898Y0113356D02*
X0025505Y0113356D01*
X0027085Y0111757D02*
X0059299Y0111757D01*
X0057701Y0110159D02*
X0028279Y0110159D01*
X0028325Y0105646D02*
X0039840Y0105646D01*
X0039126Y0104933D01*
X0038880Y0104338D01*
X0034589Y0100046D01*
X0027325Y0100046D01*
X0026993Y0100849D01*
X0025502Y0102340D01*
X0024778Y0102639D01*
X0026502Y0103353D01*
X0027993Y0104844D01*
X0028325Y0105646D01*
X0028208Y0105363D02*
X0039557Y0105363D01*
X0038307Y0103765D02*
X0026913Y0103765D01*
X0025676Y0102166D02*
X0036708Y0102166D01*
X0035110Y0100568D02*
X0027110Y0100568D01*
X0027325Y0095646D02*
X0034589Y0095646D01*
X0038189Y0092046D01*
X0026795Y0092046D01*
X0026502Y0092340D01*
X0024778Y0093054D01*
X0025502Y0093353D01*
X0026993Y0094844D01*
X0027325Y0095646D01*
X0026322Y0094174D02*
X0036062Y0094174D01*
X0037660Y0092575D02*
X0025934Y0092575D01*
X0038611Y0097846D02*
X0041311Y0100546D01*
X0042057Y0100546D01*
X0043086Y0100973D01*
X0043874Y0101760D01*
X0044300Y0102789D01*
X0044300Y0103903D01*
X0043874Y0104933D01*
X0043160Y0105646D01*
X0059411Y0105646D01*
X0060700Y0106935D01*
X0067672Y0113908D01*
X0067672Y0128837D01*
X0068497Y0128837D01*
X0069409Y0129749D01*
X0070322Y0128837D01*
X0075879Y0128837D01*
X0075300Y0128258D01*
X0070300Y0123258D01*
X0070300Y0099258D01*
X0069800Y0098758D01*
X0069800Y0099403D01*
X0069374Y0100433D01*
X0068586Y0101220D01*
X0067557Y0101646D01*
X0066443Y0101646D01*
X0065414Y0101220D01*
X0065240Y0101046D01*
X0059289Y0101046D01*
X0058000Y0099758D01*
X0056189Y0097946D01*
X0055943Y0097946D01*
X0054914Y0097520D01*
X0054126Y0096733D01*
X0053700Y0095703D01*
X0053700Y0094589D01*
X0053718Y0094546D01*
X0041911Y0094546D01*
X0038611Y0097846D01*
X0039087Y0097371D02*
X0054764Y0097371D01*
X0053728Y0095772D02*
X0040686Y0095772D01*
X0039734Y0098969D02*
X0057211Y0098969D01*
X0058810Y0100568D02*
X0042108Y0100568D01*
X0044042Y0102166D02*
X0070300Y0102166D01*
X0070300Y0100568D02*
X0069239Y0100568D01*
X0069800Y0098969D02*
X0070011Y0098969D01*
X0067089Y0096046D02*
X0065589Y0094546D01*
X0059282Y0094546D01*
X0059300Y0094589D01*
X0059300Y0094835D01*
X0061111Y0096646D01*
X0065240Y0096646D01*
X0065414Y0096473D01*
X0066443Y0096046D01*
X0067089Y0096046D01*
X0066814Y0095772D02*
X0060237Y0095772D01*
X0060726Y0106962D02*
X0070300Y0106962D01*
X0070300Y0108560D02*
X0062325Y0108560D01*
X0063923Y0110159D02*
X0070300Y0110159D01*
X0070300Y0111757D02*
X0065522Y0111757D01*
X0067120Y0113356D02*
X0070300Y0113356D01*
X0070300Y0114954D02*
X0067672Y0114954D01*
X0067672Y0116553D02*
X0070300Y0116553D01*
X0070300Y0118151D02*
X0067672Y0118151D01*
X0067672Y0119750D02*
X0070300Y0119750D01*
X0070300Y0121348D02*
X0067672Y0121348D01*
X0067672Y0122947D02*
X0070300Y0122947D01*
X0071588Y0124545D02*
X0067672Y0124545D01*
X0067672Y0126144D02*
X0073186Y0126144D01*
X0074785Y0127742D02*
X0067672Y0127742D01*
X0069001Y0129341D02*
X0069818Y0129341D01*
X0061944Y0129341D02*
X0061127Y0129341D01*
X0077200Y0119935D02*
X0080411Y0123146D01*
X0088301Y0123146D01*
X0088200Y0122903D01*
X0088200Y0122658D01*
X0084689Y0119146D01*
X0084443Y0119146D01*
X0083414Y0118720D01*
X0082626Y0117933D01*
X0082200Y0116903D01*
X0082200Y0115789D01*
X0082626Y0114760D01*
X0083414Y0113973D01*
X0084443Y0113546D01*
X0085557Y0113546D01*
X0086586Y0113973D01*
X0087374Y0114760D01*
X0087800Y0115789D01*
X0087800Y0116035D01*
X0091311Y0119546D01*
X0091557Y0119546D01*
X0092586Y0119973D01*
X0093374Y0120760D01*
X0093800Y0121789D01*
X0093800Y0122903D01*
X0093699Y0123146D01*
X0094911Y0123146D01*
X0097800Y0126035D01*
X0097800Y0102758D01*
X0093089Y0098046D01*
X0078199Y0098046D01*
X0078300Y0098289D01*
X0078300Y0099403D01*
X0077874Y0100433D01*
X0077200Y0101106D01*
X0077200Y0119935D01*
X0077200Y0119750D02*
X0085292Y0119750D01*
X0086890Y0121348D02*
X0078613Y0121348D01*
X0080212Y0122947D02*
X0088218Y0122947D01*
X0092048Y0119750D02*
X0097800Y0119750D01*
X0097800Y0121348D02*
X0093617Y0121348D01*
X0093782Y0122947D02*
X0097800Y0122947D01*
X0097800Y0124545D02*
X0096310Y0124545D01*
X0097800Y0118151D02*
X0089916Y0118151D01*
X0088317Y0116553D02*
X0097800Y0116553D01*
X0097800Y0114954D02*
X0087454Y0114954D01*
X0082546Y0114954D02*
X0077200Y0114954D01*
X0077200Y0113356D02*
X0097800Y0113356D01*
X0097800Y0111757D02*
X0077200Y0111757D01*
X0077200Y0110159D02*
X0097800Y0110159D01*
X0097800Y0108560D02*
X0077200Y0108560D01*
X0077200Y0106962D02*
X0097800Y0106962D01*
X0097800Y0105363D02*
X0077200Y0105363D01*
X0077200Y0103765D02*
X0079641Y0103765D01*
X0079281Y0103404D02*
X0080230Y0104353D01*
X0081470Y0104867D01*
X0082813Y0104867D01*
X0084053Y0104353D01*
X0085003Y0103404D01*
X0085517Y0102163D01*
X0085517Y0100821D01*
X0085003Y0099580D01*
X0084053Y0098631D01*
X0082813Y0098117D01*
X0081470Y0098117D01*
X0080230Y0098631D01*
X0079281Y0099580D01*
X0078767Y0100821D01*
X0078767Y0102163D01*
X0079281Y0103404D01*
X0078768Y0102166D02*
X0077200Y0102166D01*
X0077739Y0100568D02*
X0078872Y0100568D01*
X0078300Y0098969D02*
X0079892Y0098969D01*
X0084391Y0098969D02*
X0094011Y0098969D01*
X0095610Y0100568D02*
X0085412Y0100568D01*
X0085515Y0102166D02*
X0097208Y0102166D01*
X0097800Y0103765D02*
X0084642Y0103765D01*
X0082200Y0116553D02*
X0077200Y0116553D01*
X0077200Y0118151D02*
X0082845Y0118151D01*
X0070300Y0105363D02*
X0043443Y0105363D01*
X0044300Y0103765D02*
X0070300Y0103765D01*
X0082974Y0082984D02*
X0091700Y0082984D01*
X0092350Y0081385D02*
X0083420Y0081385D01*
X0077782Y0070196D02*
X0076785Y0070196D01*
X0097037Y0095772D02*
X0101314Y0095772D01*
X0102913Y0097371D02*
X0098635Y0097371D01*
X0100234Y0098969D02*
X0105663Y0098969D01*
X0108337Y0098969D02*
X0110517Y0098969D01*
X0110517Y0097371D02*
X0109800Y0097371D01*
X0109800Y0095772D02*
X0110517Y0095772D01*
X0110517Y0094174D02*
X0109633Y0094174D01*
X0109800Y0092575D02*
X0110517Y0092575D01*
X0110517Y0090976D02*
X0109090Y0090976D01*
X0110517Y0089378D02*
X0106643Y0089378D01*
X0114917Y0089378D02*
X0117822Y0089378D01*
X0117822Y0090976D02*
X0114917Y0090976D01*
X0114917Y0092575D02*
X0117822Y0092575D01*
X0117822Y0094174D02*
X0114917Y0094174D01*
X0114917Y0095772D02*
X0117822Y0095772D01*
X0117822Y0097371D02*
X0114917Y0097371D01*
X0114917Y0098969D02*
X0117822Y0098969D01*
X0117822Y0100568D02*
X0114917Y0100568D01*
X0114917Y0102166D02*
X0117822Y0102166D01*
X0117822Y0103765D02*
X0114917Y0103765D01*
X0114917Y0105363D02*
X0117822Y0105363D01*
X0117822Y0106962D02*
X0114917Y0106962D01*
X0114917Y0108560D02*
X0117822Y0108560D01*
X0117822Y0110159D02*
X0114917Y0110159D01*
X0114917Y0111757D02*
X0117822Y0111757D01*
X0117822Y0113356D02*
X0114917Y0113356D01*
X0114917Y0114954D02*
X0117822Y0114954D01*
X0117822Y0116553D02*
X0114917Y0116553D01*
X0114917Y0118151D02*
X0117822Y0118151D01*
X0117822Y0119750D02*
X0114917Y0119750D01*
X0114917Y0121348D02*
X0117822Y0121348D01*
X0117822Y0122947D02*
X0114917Y0122947D01*
X0114917Y0124545D02*
X0117822Y0124545D01*
X0117822Y0126144D02*
X0114917Y0126144D01*
X0114917Y0127742D02*
X0117822Y0127742D01*
X0117822Y0129341D02*
X0116245Y0129341D01*
X0116679Y0129774D02*
X0116679Y0138974D01*
X0115741Y0139911D01*
X0109692Y0139911D01*
X0108780Y0138999D01*
X0107867Y0139911D01*
X0101818Y0139911D01*
X0100906Y0138999D01*
X0099993Y0139911D01*
X0093944Y0139911D01*
X0093031Y0138999D01*
X0092119Y0139911D01*
X0086070Y0139911D01*
X0085157Y0138999D01*
X0084245Y0139911D01*
X0083524Y0139911D01*
X0084000Y0140387D01*
X0084000Y0142146D01*
X0136089Y0142146D01*
X0141093Y0137143D01*
X0118291Y0137143D01*
X0117822Y0136674D01*
X0117822Y0086136D01*
X0114917Y0089041D01*
X0114917Y0128837D01*
X0115741Y0128837D01*
X0116679Y0129774D01*
X0116679Y0130939D02*
X0117822Y0130939D01*
X0117822Y0132538D02*
X0116679Y0132538D01*
X0116679Y0134136D02*
X0117822Y0134136D01*
X0117822Y0135735D02*
X0116679Y0135735D01*
X0116679Y0137333D02*
X0140902Y0137333D01*
X0139303Y0138932D02*
X0116679Y0138932D01*
X0108200Y0146924D02*
X0166150Y0146924D01*
X0166150Y0145326D02*
X0139132Y0145326D01*
X0140730Y0143727D02*
X0166150Y0143727D01*
X0166150Y0142129D02*
X0142329Y0142129D01*
X0143927Y0140530D02*
X0166150Y0140530D01*
X0166150Y0138932D02*
X0145526Y0138932D01*
X0147124Y0137333D02*
X0166150Y0137333D01*
X0166150Y0135735D02*
X0148723Y0135735D01*
X0150321Y0134136D02*
X0166150Y0134136D01*
X0166150Y0132538D02*
X0161024Y0132538D01*
X0162902Y0130939D02*
X0166150Y0130939D01*
X0166150Y0129341D02*
X0163618Y0129341D01*
X0163800Y0127742D02*
X0166150Y0127742D01*
X0166150Y0126144D02*
X0163531Y0126144D01*
X0162694Y0124545D02*
X0166150Y0124545D01*
X0166150Y0122947D02*
X0160521Y0122947D01*
X0161494Y0121348D02*
X0166150Y0121348D01*
X0166150Y0119750D02*
X0162448Y0119750D01*
X0162800Y0118151D02*
X0166150Y0118151D01*
X0166150Y0116553D02*
X0162701Y0116553D01*
X0162039Y0114954D02*
X0166150Y0114954D01*
X0166150Y0113356D02*
X0160505Y0113356D01*
X0162085Y0111757D02*
X0166150Y0111757D01*
X0166150Y0110159D02*
X0163279Y0110159D01*
X0163800Y0108560D02*
X0166150Y0108560D01*
X0166150Y0106962D02*
X0163800Y0106962D01*
X0163208Y0105363D02*
X0166150Y0105363D01*
X0166150Y0103765D02*
X0161913Y0103765D01*
X0160676Y0102166D02*
X0166150Y0102166D01*
X0166150Y0100568D02*
X0162110Y0100568D01*
X0162772Y0098969D02*
X0166150Y0098969D01*
X0166150Y0097371D02*
X0162800Y0097371D01*
X0162377Y0095772D02*
X0166150Y0095772D01*
X0166150Y0094174D02*
X0161322Y0094174D01*
X0160934Y0092575D02*
X0166150Y0092575D01*
X0166150Y0090976D02*
X0162865Y0090976D01*
X0163602Y0089378D02*
X0166150Y0089378D01*
X0166150Y0087779D02*
X0163800Y0087779D01*
X0163547Y0086181D02*
X0166150Y0086181D01*
X0166150Y0084582D02*
X0162731Y0084582D01*
X0160610Y0082984D02*
X0166150Y0082984D01*
X0156053Y0082984D02*
X0146981Y0082984D01*
X0146981Y0084582D02*
X0154269Y0084582D01*
X0153453Y0086181D02*
X0146981Y0086181D01*
X0146981Y0087779D02*
X0153200Y0087779D01*
X0153398Y0089378D02*
X0146981Y0089378D01*
X0146981Y0090976D02*
X0154135Y0090976D01*
X0156066Y0092575D02*
X0146981Y0092575D01*
X0146981Y0094174D02*
X0153678Y0094174D01*
X0152623Y0095772D02*
X0146981Y0095772D01*
X0146981Y0097371D02*
X0152200Y0097371D01*
X0152228Y0098969D02*
X0146981Y0098969D01*
X0146981Y0100568D02*
X0152890Y0100568D01*
X0154324Y0102166D02*
X0146981Y0102166D01*
X0146981Y0103765D02*
X0155087Y0103765D01*
X0153792Y0105363D02*
X0146981Y0105363D01*
X0146981Y0106962D02*
X0153200Y0106962D01*
X0153200Y0108560D02*
X0146981Y0108560D01*
X0146981Y0110159D02*
X0153721Y0110159D01*
X0154915Y0111757D02*
X0146981Y0111757D01*
X0146981Y0113356D02*
X0154495Y0113356D01*
X0152961Y0114954D02*
X0146981Y0114954D01*
X0146981Y0116553D02*
X0152299Y0116553D01*
X0152200Y0118151D02*
X0146981Y0118151D01*
X0146981Y0119750D02*
X0152552Y0119750D01*
X0153506Y0121348D02*
X0146981Y0121348D01*
X0146981Y0122947D02*
X0155964Y0122947D01*
X0154306Y0124545D02*
X0146981Y0124545D01*
X0146981Y0126144D02*
X0152091Y0126144D01*
X0150493Y0127742D02*
X0146981Y0127742D01*
X0146981Y0129341D02*
X0148894Y0129341D01*
X0147296Y0130939D02*
X0146981Y0130939D01*
X0151920Y0132538D02*
X0155976Y0132538D01*
X0154097Y0130939D02*
X0153518Y0130939D01*
X0137705Y0140530D02*
X0084000Y0140530D01*
X0084000Y0142129D02*
X0136106Y0142129D01*
X0147475Y0154917D02*
X0110672Y0154917D01*
X0111300Y0153318D02*
X0150010Y0153318D01*
X0146027Y0156515D02*
X0109326Y0156515D01*
X0111300Y0151720D02*
X0166150Y0151720D01*
X0166150Y0153318D02*
X0155990Y0153318D01*
X0158524Y0154917D02*
X0166150Y0154917D01*
X0166112Y0156515D02*
X0159973Y0156515D01*
X0160635Y0158114D02*
X0165982Y0158114D01*
X0165617Y0159712D02*
X0161099Y0159712D01*
X0161099Y0161311D02*
X0165252Y0161311D01*
X0164617Y0162909D02*
X0160912Y0162909D01*
X0160250Y0164508D02*
X0163847Y0164508D01*
X0162887Y0166107D02*
X0159194Y0166107D01*
X0157595Y0167705D02*
X0161612Y0167705D01*
X0166150Y0150121D02*
X0110815Y0150121D01*
X0109672Y0148523D02*
X0166150Y0148523D01*
X0110517Y0127742D02*
X0109089Y0127742D01*
X0109188Y0129341D02*
X0108371Y0129341D01*
X0109729Y0126144D02*
X0110517Y0126144D01*
X0110517Y0124545D02*
X0109527Y0124545D01*
X0110517Y0122947D02*
X0108369Y0122947D01*
X0110517Y0121348D02*
X0102200Y0121348D01*
X0102200Y0119750D02*
X0110517Y0119750D01*
X0110517Y0118151D02*
X0102200Y0118151D01*
X0102200Y0116553D02*
X0110517Y0116553D01*
X0110517Y0114954D02*
X0102200Y0114954D01*
X0102200Y0113356D02*
X0110517Y0113356D01*
X0110517Y0111757D02*
X0102200Y0111757D01*
X0102200Y0110159D02*
X0110517Y0110159D01*
X0110517Y0108560D02*
X0102200Y0108560D01*
X0102200Y0106962D02*
X0110517Y0106962D01*
X0110517Y0105363D02*
X0102200Y0105363D01*
X0102200Y0103765D02*
X0110517Y0103765D01*
X0110517Y0102166D02*
X0102200Y0102166D01*
X0101832Y0100568D02*
X0110517Y0100568D01*
X0116178Y0087779D02*
X0117822Y0087779D01*
X0117777Y0086181D02*
X0117822Y0086181D01*
X0137545Y0070196D02*
X0139573Y0070196D01*
X0146981Y0073393D02*
X0154152Y0073393D01*
X0152946Y0074991D02*
X0146981Y0074991D01*
X0146981Y0076590D02*
X0152284Y0076590D01*
X0152200Y0078188D02*
X0146981Y0078188D01*
X0146981Y0079787D02*
X0152567Y0079787D01*
X0153544Y0081385D02*
X0146981Y0081385D01*
X0156431Y0055809D02*
X0166150Y0055809D01*
X0166150Y0054211D02*
X0158030Y0054211D01*
X0158900Y0052612D02*
X0166150Y0052612D01*
X0166150Y0051014D02*
X0158900Y0051014D01*
X0158900Y0049415D02*
X0166150Y0049415D01*
X0166150Y0047817D02*
X0158900Y0047817D01*
X0158900Y0046218D02*
X0166150Y0046218D01*
X0166150Y0044620D02*
X0158590Y0044620D01*
X0157069Y0043021D02*
X0166150Y0043021D01*
X0166150Y0041423D02*
X0155470Y0041423D01*
X0154100Y0051014D02*
X0147059Y0051014D01*
X0104340Y0122947D02*
X0102200Y0122947D01*
X0102310Y0124545D02*
X0103182Y0124545D01*
X0093796Y0148523D02*
X0089955Y0148523D01*
X0091039Y0150121D02*
X0091730Y0150121D01*
X0090914Y0154917D02*
X0090863Y0154917D01*
X0091674Y0156515D02*
X0089609Y0156515D01*
X0086200Y0156515D02*
X0085800Y0156515D01*
X0085800Y0154917D02*
X0086200Y0154917D01*
X0086200Y0153318D02*
X0085800Y0153318D01*
X0085800Y0151720D02*
X0086200Y0151720D01*
X0086200Y0150121D02*
X0085800Y0150121D01*
X0085800Y0148523D02*
X0086200Y0148523D01*
X0082045Y0148523D02*
X0080839Y0148523D01*
X0076000Y0153346D02*
X0062500Y0153346D01*
X0062669Y0150121D02*
X0070700Y0150121D01*
X0071161Y0148523D02*
X0061071Y0148523D01*
X0070700Y0156515D02*
X0034973Y0156515D01*
X0035635Y0158114D02*
X0071105Y0158114D01*
X0080895Y0158114D02*
X0093660Y0158114D01*
X0082391Y0156515D02*
X0081300Y0156515D01*
D23*
X0081200Y0141546D03*
X0057000Y0123346D03*
X0054000Y0123346D03*
X0054000Y0120346D03*
X0057000Y0120346D03*
X0049500Y0104346D03*
X0049500Y0101346D03*
X0046500Y0101346D03*
X0046500Y0104346D03*
X0032000Y0103346D03*
X0057000Y0086346D03*
X0057000Y0083346D03*
X0060000Y0083346D03*
X0060000Y0086346D03*
X0063000Y0086346D03*
X0069600Y0081546D03*
X0078000Y0084846D03*
X0084500Y0083346D03*
X0087500Y0083346D03*
X0087500Y0086346D03*
X0084500Y0086346D03*
X0094500Y0083346D03*
X0105500Y0083346D03*
X0108500Y0083346D03*
X0108500Y0086346D03*
X0105500Y0086346D03*
X0107000Y0092846D03*
X0107000Y0096346D03*
X0108000Y0107846D03*
X0105000Y0107846D03*
X0105000Y0110846D03*
X0108000Y0110846D03*
X0089500Y0109546D03*
X0086500Y0109546D03*
X0086500Y0112546D03*
X0089500Y0112546D03*
X0061000Y0095146D03*
X0062000Y0069346D03*
X0085700Y0050546D03*
X0089500Y0062346D03*
X0105000Y0060846D03*
X0110400Y0064246D03*
X0120000Y0058846D03*
X0125000Y0061846D03*
X0119000Y0051846D03*
X0120000Y0072846D03*
X0149700Y0093946D03*
X0152500Y0087346D03*
X0147500Y0102846D03*
X0147500Y0112846D03*
X0147500Y0123846D03*
X0130500Y0137846D03*
X0127000Y0137846D03*
X0127000Y0141346D03*
X0130500Y0141346D03*
X0033500Y0054846D03*
X0092000Y0038546D03*
X0137500Y0035846D03*
D24*
X0080500Y0062346D03*
X0077500Y0059446D03*
X0071000Y0063846D03*
X0069500Y0069546D03*
X0059500Y0066846D03*
X0051000Y0074846D03*
X0044000Y0080846D03*
X0056500Y0095146D03*
X0067000Y0098846D03*
X0075500Y0098846D03*
X0085000Y0116346D03*
X0091000Y0122346D03*
X0041500Y0103346D03*
X0078500Y0052846D03*
X0070500Y0049346D03*
X0065700Y0047146D03*
X0060000Y0051046D03*
D25*
X0057598Y0131748D02*
X0057598Y0134374D01*
D26*
X0053500Y0150846D03*
X0049500Y0150846D03*
X0049500Y0154846D03*
X0053500Y0154846D03*
X0034500Y0093846D03*
X0034000Y0071846D03*
X0030000Y0071846D03*
X0030000Y0067846D03*
X0034000Y0067846D03*
X0018500Y0048846D03*
X0018500Y0044846D03*
X0018500Y0040846D03*
X0047000Y0035346D03*
X0047000Y0031846D03*
X0050500Y0031846D03*
X0050500Y0035346D03*
X0109500Y0048846D03*
X0110500Y0055846D03*
X0114000Y0055846D03*
X0114000Y0059346D03*
X0110500Y0059346D03*
X0116000Y0068346D03*
X0133500Y0071846D03*
X0137500Y0071846D03*
X0141500Y0071846D03*
X0151000Y0050346D03*
X0161000Y0050346D03*
X0161000Y0046346D03*
X0161000Y0042346D03*
X0142000Y0024846D03*
X0137500Y0026346D03*
X0128000Y0027846D03*
X0128000Y0024346D03*
X0124500Y0024346D03*
X0124500Y0027846D03*
X0122000Y0046346D03*
X0116500Y0045346D03*
X0127000Y0151346D03*
X0131000Y0151346D03*
X0131000Y0155346D03*
X0127000Y0155346D03*
D27*
X0054000Y0130846D03*
D28*
X0078000Y0065346D02*
X0067500Y0054846D01*
X0049059Y0054846D01*
X0075760Y0045946D02*
X0077760Y0047946D01*
X0085500Y0047946D01*
X0085500Y0047846D01*
X0089000Y0044346D01*
X0089000Y0036346D01*
X0090500Y0034846D01*
X0093500Y0034846D01*
X0095000Y0036346D01*
X0095000Y0038846D01*
X0096500Y0040346D01*
X0108441Y0040346D01*
X0086000Y0058346D02*
X0086000Y0062346D01*
X0083000Y0065346D01*
X0078000Y0065346D01*
X0075760Y0045946D02*
X0075760Y0044783D01*
M02*
