%
M48
M72
T01C0.01200
T02C0.01600
T03C0.03150
T04C0.03346
T05C0.04000
T06C0.12598
%
T01
X33500Y54846
X51000Y74846
X44000Y80846
X57000Y83346
X60000Y83346
X60000Y86346
X57000Y86346
X63000Y86346
X69600Y81546
X78000Y84846
X84500Y83346
X87500Y83346
X87500Y86346
X84500Y86346
X94500Y83346
X105500Y83346
X108500Y83346
X108500Y86346
X105500Y86346
X107000Y92846
X107000Y96346
X108000Y107846
X105000Y107846
X105000Y110846
X108000Y110846
X91000Y122346
X85000Y116346
X86500Y112546
X86500Y109546
X89500Y109546
X89500Y112546
X75500Y98846
X67000Y98846
X61000Y95146
X56500Y95146
X49500Y101346
X46500Y101346
X46500Y104346
X49500Y104346
X41500Y103346
X32000Y103346
X54000Y120346
X57000Y120346
X57000Y123346
X54000Y123346
X81200Y141546
X127000Y141346
X127000Y137846
X130500Y137846
X130500Y141346
X147500Y123846
X147500Y112846
X147500Y102846
X149700Y93946
X152500Y87346
X125000Y61846
X120000Y58846
X119000Y51846
X110400Y64246
X105000Y60846
X89500Y62346
X80500Y62346
X77500Y59446
X71000Y63846
X69500Y69546
X62000Y69346
X59500Y66846
X60000Y51046
X65700Y47146
X70500Y49346
X78500Y52846
X85700Y50546
X92000Y38546
X120000Y72846
X137500Y35846
T02
X128000Y27846
X128000Y24346
X124500Y24346
X124500Y27846
X137500Y26346
X142000Y24846
X161000Y42346
X161000Y46346
X161000Y50346
X151000Y50346
X141500Y71846
X137500Y71846
X133500Y71846
X116000Y68346
X114000Y59346
X114000Y55846
X110500Y55846
X110500Y59346
X109500Y48846
X116500Y45346
X122000Y46346
X50500Y35346
X50500Y31846
X47000Y31846
X47000Y35346
X18500Y40846
X18500Y44846
X18500Y48846
X30000Y67846
X34000Y67846
X34000Y71846
X30000Y71846
X34500Y93846
X54000Y130846
X53500Y150846
X49500Y150846
X49500Y154846
X53500Y154846
X127000Y155346
X127000Y151346
X131000Y151346
X131000Y155346
T03
X106354Y125705
X82142Y101492
T04
X82020Y30008
X96980Y30008
T05
X157500Y77846
X158500Y87846
X157500Y97846
X158500Y107846
X157500Y117846
X158500Y127846
X106000Y152346
X96000Y153346
X86000Y152346
X76000Y153346
X23500Y127846
X22500Y117846
X23500Y107846
X22500Y97846
X23500Y87846
X22500Y77846
T06
X28000Y30846
X153000Y30846
X153000Y160846
X28000Y160846
M30
